<?xml version="1.0" encoding="UTF-8"?>
<svg width="130px" height="134px" viewBox="0 0 130 134" version="1.1" xmlns="http://www.w3.org/2000/svg" xmlns:xlink="http://www.w3.org/1999/xlink">
    <!-- Generator: Sketch 53.2 (72643) - https://sketchapp.com -->
    <title>noun_quotation_1903069</title>
    <desc>Created with Sketch.</desc>
    <g id="Page-1" stroke="none" stroke-width="1" fill="none" fill-rule="evenodd">
        <g id="noun_quotation_1903069" transform="translate(65.000000, 67.000000) scale(1, -1) translate(-65.000000, -67.000000) " fill="#000000" fill-rule="nonzero">
            <path d="M57.104,0.953 C58.208,0.953 59.104,1.849 59.104,2.953 L59.104,62.989 C59.104,90.203 49.131,109.772 26.198,130.177 L23.544,132.54 C22.779,133.221 21.624,133.215 20.867,132.525 L0.683,114.131 C-0.163,113.361 -0.191,112.039 0.621,111.233 L3.568,108.309 C14.676,97.577 25.048,85.225 25.465,69.095 L4.806,69.095 C3.701,69.095 2.806,68.199 2.806,67.095 L2.806,2.953 C2.806,1.849 3.701,0.953 4.806,0.953 L57.104,0.953 Z" id="Path"></path>
            <path d="M127.97,0.953 C129.075,0.953 129.97,1.849 129.97,2.953 L129.97,62.989 C129.97,90.203 119.997,109.772 97.064,130.177 L94.41,132.54 C93.645,133.221 92.49,133.215 91.733,132.525 L71.548,114.131 C70.702,113.361 70.674,112.039 71.486,111.233 L74.434,108.309 C85.541,97.577 95.915,85.225 96.331,69.095 L75.866,69.095 C74.761,69.095 73.866,68.199 73.866,67.095 L73.866,2.953 C73.866,1.849 74.761,0.953 75.866,0.953 L127.97,0.953 Z" id="Path"></path>
        </g>
    </g>
</svg>