<?xml version="1.0" encoding="UTF-8"?>
<svg width="53px" height="20px" viewBox="0 0 53 20" version="1.1" xmlns="http://www.w3.org/2000/svg" xmlns:xlink="http://www.w3.org/1999/xlink">
    <!-- Generator: Sketch 52.3 (67297) - http://www.bohemiancoding.com/sketch -->
    <title>american-express</title>
    <desc>Created with Sketch.</desc>
    <g id="Payment" stroke="none" stroke-width="1" fill="none" fill-rule="evenodd">
        <g id="so-payment-card-input-A01" transform="translate(-388.000000, -563.000000)">
            <g id="american-express" transform="translate(387.914894, 563.042553)">
                <path d="M13.9250247,9.04474804 L13.9250247,8.37070549 L13.6058553,9.04474804 L10.8480409,9.04474804 L10.5023183,8.3212542 L10.5023183,9.04474804 L5.34781277,9.04474804 L4.73762043,7.58539754 L3.7057634,7.58539754 L3.06158298,9.04474804 L0.386614468,9.04474804 L0.386614468,4.63982083 L2.34730213,0.152653975 L6.09820596,0.152653975 L6.62502128,1.42387458 L6.62502128,0.161791713 L11.2139438,0.161791713 L12.2229651,2.30270997 L13.2091506,0.152653975 L27.6939166,0.152653975 C27.6939166,0.152653975 28.4538689,0.141903695 28.9525379,0.497737962 L28.9509447,0.152653975 L32.5988221,0.152653975 L32.5988221,0.638566629 C32.5988221,0.638566629 33.254686,0.152653975 34.2249396,0.152653975 C35.1951932,0.152653975 40.6640885,0.152653975 40.6640885,0.152653975 L41.2296715,1.44268757 L41.2296715,0.152653975 L45.3560374,0.152653975 L46.1043064,1.44268757 L46.1043064,0.152653975 L50.0495796,0.152619072 L50.0495796,9.05281075 L45.9970315,9.05281075 L45.044834,7.50154535 L45.044834,9.04474804 L40.0082247,9.04474804 L39.2992545,7.45531915 L38.3125379,7.45531915 L37.6471149,9.04474804 L34.5993396,9.04474804 C34.5993396,9.04474804 33.462863,9.03023516 32.6105055,8.41263158 C32.6105055,8.73621501 32.6105055,9.04474804 32.6105055,9.04474804 L26.5415081,9.04474804 C26.5415081,9.04474804 26.5415081,7.27041433 26.5415081,6.96833147 C26.5415081,6.66678611 26.3126196,6.68774916 26.3126196,6.68774916 L26.091166,6.68774916 L26.091166,9.04474804 L13.9250247,9.04474804" id="Fill-316" fill="#FFFFFF"></path>
                <path d="M10.8974298,10.9722732 L18.8718843,10.9722732 L20.0216374,12.2907951 L21.199006,10.9722732 L27.3306689,10.9722732 C27.3306689,10.9722732 27.9063421,10.9867861 28.4538689,11.2818813 L28.4538689,10.9722732 C28.4538689,10.9722732 33.2201668,10.9722732 33.912674,10.9722732 C34.6057123,10.9722732 35.1882894,11.3227324 35.1882894,11.3227324 L35.1882894,10.9722732 L42.2068289,10.9722732 L42.2068289,11.2953191 C42.2068289,11.2953191 42.7054979,10.9722732 43.3778247,10.9722732 C44.0490894,10.9722732 47.9502843,10.9722732 47.9502843,10.9722732 L47.9502843,11.2953191 C47.9502843,11.2953191 48.5254264,10.9722732 49.1345566,10.9722732 C49.7442179,10.9722732 52.723486,10.9722732 52.723486,10.9722732 L52.723486,19.3591041 C52.723486,19.3591041 52.2524323,19.8998432 51.275806,19.8998432 L46.5429651,19.8998432 L46.5429651,19.6332363 C46.5429651,19.6332363 46.093154,19.8998432 45.4070196,19.8998432 C44.7214162,19.8998432 32.8351455,19.8998432 32.8351455,19.8998432 C32.8351455,19.8998432 32.8351455,17.9470549 32.8351455,17.7320493 C32.8351455,17.5186562 32.7422094,17.4799552 32.5552749,17.4799552 L32.381617,17.4799552 L32.381617,19.8998432 L28.4538689,19.8998432 L28.4538689,17.4950056 C28.4538689,17.4950056 28.0173345,17.7320493 27.289777,17.7320493 C26.5616885,17.7320493 25.8760851,17.7320493 25.8760851,17.7320493 L25.8760851,19.8998432 L21.033314,19.8998432 L19.9313566,18.5393953 L18.7539881,19.8998432 L10.8974298,19.8998432 L10.8974298,10.9722732" id="Fill-317" fill="#FFFFFF"></path>
                <polyline id="Fill-318" fill="#0078A9" points="36.0305566 12.3106831 41.0347711 12.3106831 41.0347711 13.668981 37.5621447 13.668981 37.5621447 14.8536618 40.9375864 14.8536618 40.9375864 16.050168 37.5621447 16.050168 37.5621447 17.2961254 41.0347711 17.2961254 41.0347711 18.6210974 36.0305566 18.6210974 36.0305566 12.3106831"></polyline>
                <path d="M50.702257,14.7692721 C52.5838162,14.8670997 52.74048,15.8179619 52.74048,16.8322508 C52.74048,18.0142441 51.7797855,18.6495857 50.7787302,18.6495857 L47.5631387,18.6495857 L47.5631387,17.2961254 L50.0686979,17.2961254 C50.4930179,17.2961254 51.126046,17.2961254 51.126046,16.6903471 C51.126046,16.4027772 51.0150536,16.2194849 50.5620562,16.1711086 C50.3618451,16.1415454 49.6172936,16.0996193 49.5047081,16.0974692 C47.8053038,16.052318 47.4096613,15.1965957 47.4096613,14.1554311 C47.4096613,12.9723628 48.231217,12.325196 49.2338655,12.325196 L52.449457,12.325196 L52.449457,13.6775812 L50.0957821,13.6775812 C49.5610009,13.6829563 48.9837345,13.613617 48.9837345,14.2258455 C48.9837345,14.6128555 49.2678536,14.6907951 49.6300391,14.726271 C49.7559013,14.726271 50.5902026,14.7703471 50.702257,14.7692721" id="Fill-319" fill="#0078A9"></path>
                <path d="M44.9391523,14.7692721 C46.8207115,14.8670997 46.9779064,15.8179619 46.9779064,16.8322508 C46.9779064,18.0142441 46.017743,18.6495857 45.0156255,18.6495857 L41.8005651,18.6495857 L41.8005651,17.2961254 L44.3061243,17.2961254 C44.7304443,17.2961254 45.3640034,17.2961254 45.3640034,16.6903471 C45.3640034,16.4027772 45.25248,16.2194849 44.8000136,16.1711086 C44.5982094,16.1415454 43.8536579,16.0996193 43.7421345,16.0974692 C42.0427302,16.052318 41.6481498,15.1965957 41.6481498,14.1554311 C41.6481498,12.9723628 42.4686434,12.325196 43.4712919,12.325196 L46.6863523,12.325196 L46.6863523,13.6775812 L44.3342706,13.6775812 C43.7978962,13.6829563 43.2206298,13.613617 43.2206298,14.2258455 C43.2206298,14.6128555 43.5058111,14.6907951 43.8679966,14.726271 C43.9927966,14.726271 44.8286911,14.7703471 44.9391523,14.7692721" id="Fill-320" fill="#0078A9"></path>
                <path d="M26.274383,15.1933707 L24.3678638,15.1933707 L24.3678638,13.6786562 L26.2796936,13.6786562 C26.9201566,13.6786562 27.123023,14.0941545 27.123023,14.4043001 C27.123023,14.8273236 26.9005072,15.1933707 26.274383,15.1933707 Z M22.8229991,18.0292945 L20.6238638,15.3949384 L22.8229991,12.9298992 L22.8229991,18.0292945 Z M16.9706757,17.2961254 L13.4428187,17.2961254 L13.4428187,16.050168 L16.8177294,16.050168 L16.8177294,14.8536618 L13.4428187,14.8536618 L13.4428187,13.668981 L17.1650451,13.6775812 L18.6552102,15.3949384 L16.9706757,17.2961254 Z M26.7889838,12.3241209 L21.4172732,12.3241209 L19.6631694,14.2822844 L17.9664204,12.3106831 L11.9324732,12.3106831 L11.9324732,18.6210974 L17.77152,18.6210974 L19.6079387,16.5360806 L21.4034655,18.6361478 L24.3402485,18.6361478 L24.3402485,16.4930795 L26.399714,16.4930795 C27.1936545,16.4930795 28.6408034,16.4662038 28.6408034,14.2537962 C28.6408034,12.6761926 27.5409702,12.3241209 26.7889838,12.3241209 Z" id="Fill-321" fill="#0078A9"></path>
                <path d="M32.8616987,15.1084434 L30.9557106,15.1084434 L30.9557106,13.6786562 L32.8686026,13.6786562 C33.5090655,13.6786562 33.7103387,14.0941545 33.7103387,14.4043001 C33.7103387,14.8262486 33.488354,15.1084434 32.8616987,15.1084434 Z M34.1835166,15.761523 C35.01888,15.3395745 35.2413957,14.7757223 35.2413957,14.0146025 C35.2413957,12.6632923 34.1564323,12.325196 33.4039149,12.325196 L29.4246536,12.325196 L29.4246536,18.6361478 L30.9557106,18.6361478 L30.9557106,16.4092273 L32.9594145,16.4092273 C33.488354,16.4092273 33.6970621,16.9445913 33.7103387,17.4799552 L33.7522928,18.6361478 L35.2413957,18.6361478 L35.185634,17.3396641 C35.185634,16.3243001 34.9078877,15.8453751 34.1835166,15.761523 Z" id="Fill-322" fill="#0078A9"></path>
                <polygon id="Fill-323" fill="#0078A9" points="30.0380323 7.73428891 31.5685583 7.73428891 31.5685583 1.41634938 30.0380323 1.41634938"></polygon>
                <polyline id="Fill-324" fill="#0078A9" points="17.5065191 1.42387458 22.5091404 1.42387458 22.5091404 2.78217245 19.0386383 2.78217245 19.0386383 3.9668533 22.4124868 3.9668533 22.4124868 5.16335946 19.0386383 5.16335946 19.0386383 6.40985442 22.5091404 6.40985442 22.5091404 7.73428891 17.5065191 7.73428891 17.5065191 1.42387458"></polyline>
                <path d="M26.8558979,4.20712206 L24.9493787,4.20712206 L24.9493787,2.77733483 L26.8628017,2.77733483 C27.5032647,2.77733483 27.7045379,3.19283315 27.7045379,3.50244121 C27.7045379,3.92546473 27.4825532,4.20712206 26.8558979,4.20712206 Z M28.1782468,4.86020157 C29.0136102,4.43932811 29.236126,3.8744009 29.236126,3.11328108 C29.236126,1.76089586 28.1506315,1.42387458 27.398114,1.42387458 L23.4188528,1.42387458 L23.4188528,7.73428891 L24.9493787,7.73428891 L24.9493787,5.50898096 L26.9525515,5.50898096 C27.4825532,5.50898096 27.6912613,6.04326988 27.7045379,6.57863382 L27.747554,7.73428891 L29.236126,7.73428891 L29.1803643,6.43780515 C29.1803643,5.42405375 28.9020868,4.94512878 28.1782468,4.86020157 Z" id="Fill-325" fill="#0078A9"></path>
                <path d="M3.19063149,4.96394177 L4.10353021,2.75852184 L5.05466553,4.96394177 L3.19063149,4.96394177 Z M13.9765379,1.42387458 L12.0981651,5.65679731 L10.225634,1.42387458 L7.82522553,1.42387458 L7.82522553,7.50154535 L5.15291234,1.42387458 L3.12796596,1.42387458 L0.399891064,7.73428891 L2.01485617,7.73428891 L2.61177191,6.32546473 L5.66751319,6.32546473 L6.27345702,7.73428891 L9.35628255,7.73428891 L9.35628255,3.05039194 L11.4014094,7.73428891 L12.7933277,7.73428891 L14.8878434,3.12779395 L14.8878434,7.73428891 L16.4189004,7.73428891 L16.4189004,1.42387458 L13.9765379,1.42387458 Z" id="Fill-326" fill="#0078A9"></path>
                <path d="M37.9625668,4.96716685 L38.8744034,2.76120941 L39.8345668,4.96716685 L37.9625668,4.96716685 Z M47.3650519,1.4206495 L47.3650519,5.79010078 L44.7840817,1.4206495 L42.5217498,1.4206495 L42.5217498,7.34727884 L39.9131643,1.42387458 L37.8876868,1.42387458 L35.7788323,6.31202688 C35.7788323,6.31202688 34.8882383,6.31202688 34.7984885,6.2899888 C34.428337,6.2131243 33.8526638,5.94974244 33.8452289,4.83708847 L33.8452289,4.37912654 C33.8452289,2.89988802 34.6391694,2.7918477 35.6561566,2.7918477 L36.6014502,2.7918477 L36.6014502,1.4206495 L34.602526,1.4206495 C33.9068323,1.4206495 32.3927694,1.95816349 32.3417872,4.55059351 C32.306737,6.297514 33.0587234,7.737514 34.7554723,7.737514 L36.774046,7.737514 L37.3725549,6.32868981 L40.427234,6.32868981 L41.0326468,7.737514 L44.0522757,7.737514 L44.0522757,3.11650616 L46.807966,7.737514 L48.8955779,7.737514 L48.8955779,1.4206495 L47.3650519,1.4206495 Z" id="Fill-327" fill="#0078A9"></path>
            </g>
        </g>
    </g>
</svg>