<?xml version="1.0" encoding="UTF-8"?>
<svg width="40px" height="25px" viewBox="0 0 40 25" version="1.1" xmlns="http://www.w3.org/2000/svg" xmlns:xlink="http://www.w3.org/1999/xlink">
    <!-- Generator: Sketch 52.3 (67297) - http://www.bohemiancoding.com/sketch -->
    <title>mastercard</title>
    <desc>Created with Sketch.</desc>
    <g id="Payment" stroke="none" stroke-width="1" fill="none" fill-rule="evenodd">
        <g id="so-payment-card-input-A01" transform="translate(-326.000000, -561.000000)">
            <g id="mastercard" transform="translate(325.957447, 561.000000)">
                <polyline id="Fill-189" fill="#FBB231" points="28.0520224 24.4200555 28.6651467 24.4040703 29.2713998 24.3598446 29.8654961 24.2831156 30.4548354 24.1776133 31.028318 24.0444033 31.5944009 23.88242 32.1477984 23.6921961 32.6900963 23.4779944 33.2191803 23.2355523 33.7329362 22.9723293 34.2303068 22.6808659 34.7160493 22.3696873 35.1817066 22.034531 35.6304502 21.6780611 36.0638656 21.301876 36.477196 20.9017132 36.8741411 20.4850324 37.2473012 20.0475708 37.6009048 19.5951896 37.9338947 19.1257576 38.2430997 18.6366105 38.5306338 18.1341425 38.7917402 17.6167549 39.0327615 17.0833821 39.2452408 16.5366883 39.4334065 15.9788048 39.5951445 15.4091989 39.7267548 14.8305347 39.8308802 14.2358853 39.9069922 13.6369732 39.9519194 13.0263386 39.9672475 12.4077114 39.9519194 11.7928141 39.9069922 11.1859093 39.8308802 10.5875301 39.7267548 10.0008733 39.5951445 9.42274191 39.4334065 8.85633302 39.2452408 8.29844958 39.0327615 7.7560185 38.7917402 7.22690842 38.5306338 6.70845513 38.2430997 6.21131545 37.9338947 5.72216836 37.6009048 5.25273636 37.2473012 4.80355227 36.8741411 4.36768918 36.477196 3.95047549 36.0638656 3.55404255 35.6304502 3.17785754 35.1817066 2.82192044 34.7160493 2.48623127 34.2303068 2.17451989 33.7329362 1.88785199 33.2191803 1.62516189 32.6900963 1.38165402 32.1477984 1.16745236 31.5944009 0.977761332 31.028318 0.815777983 30.4548354 0.682035153 29.8654961 0.57759852 29.2713998 0.500336725 28.6651467 0.455578168 28.0520224 0.43906013 27.4410123 0.455578168 26.8352878 0.500336725 26.2422486 0.57759852 25.6560806 0.682035153 25.082598 0.815777983 24.5175722 0.977761332 23.967346 1.16745236 23.4250482 1.38165402 22.8996641 1.62516189 22.3901366 1.88785199 21.892766 2.17451989 21.4117805 2.48623127 20.9466517 2.82192044 20.4968511 3.17785754 20.0676641 3.55404255 19.6538052 3.95047549 19.2610885 4.36768918 18.8873998 4.80355227 18.5348533 5.25273636 18.2060918 5.72216836 17.8968869 6.21131545 17.6119955 6.70845513 17.3471892 7.22690842 17.1103964 7.7560185 16.8973886 8.29844958 16.7134513 8.85633302 16.5522419 9.42274191 16.420103 10.0008733 16.3159776 10.5875301 16.2403942 11.1859093 16.195467 11.7928141 16.1790817 12.4077114 16.195467 13.0263386 16.2403942 13.6369732 16.3159776 14.2358853 16.420103 14.8305347 16.5522419 15.4091989 16.7134513 15.9788048 16.8973886 16.5366883 17.1103964 17.0833821 17.3471892 17.6167549 17.6119955 18.1341425 17.8968869 18.6366105 18.2060918 19.1257576 18.5348533 19.5951896 18.8873998 20.0475708 19.2610885 20.4850324 19.6538052 20.9017132 20.0676641 21.301876 20.4968511 21.6780611 20.9466517 22.034531 21.4117805 22.3696873 21.892766 22.6808659 22.3901366 22.9723293 22.8996641 23.2355523 23.4250482 23.4779944 23.967346 23.6921961 24.5175722 23.88242 25.082598 24.0444033 25.6560806 24.1776133 26.2422486 24.2831156 26.8352878 24.3598446 27.4410123 24.4040703 28.0520224 24.4200555"></polyline>
                <polyline id="Fill-190" fill="#EC1C2E" points="12.1398611 24.4200555 12.748757 24.4040703 13.3550101 24.3598446 13.9491064 24.2831156 14.5347458 24.1776133 15.1082284 24.0444033 15.6737828 23.88242 16.224009 23.6921961 16.7652497 23.4779944 17.2906338 23.2355523 17.8006898 22.9723293 18.2980605 22.6808659 18.7790459 22.3696873 19.2452318 22.034531 19.6945039 21.6780611 20.1231624 21.301876 20.5364927 20.9017132 20.9302665 20.4850324 21.3034267 20.0475708 21.6559731 19.5951896 21.9847346 19.1257576 22.2944681 18.6366105 22.5793595 18.1341425 22.8436372 17.6167549 23.08043 17.0833821 23.2934378 16.5366883 23.4773751 15.9788048 23.638056 15.4091989 23.7707234 14.8305347 23.8748488 14.2358853 23.9509608 13.6369732 23.9948309 13.0263386 24.0112161 12.4077114 23.9948309 11.7928141 23.9509608 11.1859093 23.8748488 10.5875301 23.7707234 10.0008733 23.638056 9.42274191 23.4773751 8.85633302 23.2934378 8.29844958 23.08043 7.7560185 22.8436372 7.22690842 22.5793595 6.70845513 22.2944681 6.21131545 21.9847346 5.72216836 21.6559731 5.25273636 21.3034267 4.80355227 20.9302665 4.36768918 20.5364927 3.95047549 20.1231624 3.55404255 19.6945039 3.17785754 19.2452318 2.82192044 18.7790459 2.48623127 18.2980605 2.17451989 17.8006898 1.88785199 17.2906338 1.62516189 16.7652497 1.38165402 16.224009 1.16745236 15.6737828 0.977761332 15.1082284 0.815777983 14.5347458 0.682035153 13.9491064 0.57759852 13.3550101 0.500336725 12.748757 0.455578168 12.1398611 0.43906013 11.5251512 0.455578168 10.9199552 0.500336725 10.3258589 0.57759852 9.73546249 0.682035153 9.16197984 0.815777983 8.59642553 0.977761332 8.04249944 1.16745236 7.50125868 1.38165402 6.97164614 1.62516189 6.45789026 1.88785199 5.9605196 2.17451989 5.47477716 2.48623127 5.00964838 2.82192044 4.56037626 3.17785754 4.12696081 3.55404255 3.71415901 3.95047549 3.31668533 4.36768918 2.9435252 4.80355227 2.59045017 5.25273636 2.25746025 5.72216836 1.94878387 6.21131545 1.65966405 6.70845513 1.39908623 7.22690842 1.15806495 7.7560185 0.945585666 8.29844958 0.757419933 8.85633302 0.596739082 9.42274191 0.464071669 10.0008733 0.359946249 10.5875301 0.283305711 11.1859093 0.23943561 11.7928141 0.223050392 12.4077114 0.23943561 13.0263386 0.283305711 13.6369732 0.359946249 14.2358853 0.464071669 14.8305347 0.596739082 15.4091989 0.757419933 15.9788048 0.945585666 16.5366883 1.15806495 17.0833821 1.39908623 17.6167549 1.65966405 18.1341425 1.94878387 18.6366105 2.25746025 19.1257576 2.59045017 19.5951896 2.9435252 20.0475708 3.31668533 20.4850324 3.71415901 20.9017132 4.12696081 21.301876 4.56037626 21.6780611 5.00964838 22.034531 5.47477716 22.3696873 5.9605196 22.6808659 6.45789026 22.9723293 6.97164614 23.2355523 7.50125868 23.4779944 8.04249944 23.6921961 8.59642553 23.88242 9.16197984 24.0444033 9.73546249 24.1776133 10.3258589 24.2831156 10.9199552 24.3598446 11.5251512 24.4040703 12.1398611 24.4200555"></polyline>
                <polyline id="Fill-191" fill="#FBB231" points="18.7034625 5.03853469 25.0223427 5.03853469 25.0223427 4.38687142 19.2489317 4.38687142 18.7034625 5.03853469"></polyline>
                <polyline id="Fill-192" fill="#FBB231" points="17.7562912 6.48626087 25.0223427 6.48626087 25.0223427 5.83459759 18.1373796 5.83459759 17.7562912 6.48626087"></polyline>
                <polyline id="Fill-193" fill="#FBB231" points="17.0506697 7.93025717 25.0223427 7.93025717 25.0223427 7.27859389 17.3313326 7.27859389 17.0506697 7.93025717"></polyline>
                <polyline id="Fill-194" fill="#FBB231" points="16.5649272 9.37798335 25.0223427 9.37798335 25.0223427 8.72738575 16.7652497 8.72738575 16.5649272 9.37798335"></polyline>
                <polyline id="Fill-195" fill="#FBB231" points="16.8461187 16.3757706 25.0424278 16.3757706 25.0424278 15.7241073 16.6447391 15.7241073 16.8461187 16.3757706"></polyline>
                <polyline id="Fill-196" fill="#FBB231" points="17.4513147 17.8234968 25.0424278 17.8234968 25.0424278 17.1723663 17.1505666 17.1723663 17.4513147 17.8234968"></polyline>
                <polyline id="Fill-197" fill="#FBB231" points="18.3012318 19.2674931 25.0424278 19.2674931 25.0424278 18.6163626 17.8968869 18.6163626 18.3012318 19.2674931"></polyline>
                <polyline id="Fill-198" fill="#FBB231" points="19.4735677 20.7152192 25.0424278 20.7152192 25.0424278 20.0598261 18.9080134 20.0598261 19.4735677 20.7152192"></polyline>
                <polyline id="Fill-199" fill="#FBB231" points="16.2800358 10.8219796 25.0223427 10.8219796 25.0223427 10.1708492 16.4042464 10.1708492 16.2800358 10.8219796"></polyline>
                <polyline id="Fill-200" fill="#FBB231" points="21.6078746 14.9317743 24.9420022 14.9317743 24.9420022 14.280111 21.7283852 14.280111 21.6078746 14.9317743"></polyline>
                <polyline id="Fill-201" fill="#FBB231" points="21.8732094 13.4872451 24.9420022 13.4872451 24.9420022 12.8323848 21.9931915 12.8323848 21.8732094 13.4872451"></polyline>
                <polyline id="Fill-202" fill="#FBB231" points="16.0590997 12.8323848 16.9264591 12.8323848 16.9264591 13.4872451 16.0997984 13.4872451 16.0590997 12.8323848"></polyline>
                <polyline id="Fill-203" fill="#FFFFFF" points="14.44172 12.0432488 14.3862217 12.0389861 14.3301948 12.0315264 14.2778679 12.0235338 14.2260694 12.0155412 14.1774423 12.0075486 14.1256439 11.9990231 14.0738455 11.9915634 14.0167615 11.9825051 13.9612632 11.9750453 13.8967794 11.9707826 13.8243673 11.9665199 13.7487839 11.9622572 13.664215 11.9622572 13.5717178 11.9665199 13.4670638 11.9750453 13.3513102 11.9825051 13.2709698 11.9952932 13.1948578 12.0075486 13.1261456 12.0315264 13.0664188 12.0555042 13.0098634 12.0837447 12.9585935 12.1162479 12.9173662 12.1572766 12.8808959 12.1935097 12.8576394 12.2377354 12.8375543 12.282494 12.8290974 12.3304496 12.8290974 12.3794709 12.8412542 12.432222 12.8576394 12.4844403 12.8893527 12.5371915 12.929523 12.5899426 13.0098634 12.6661388 13.106589 12.7268825 13.2186428 12.7796337 13.3391534 12.8238594 13.4670638 12.8648881 13.5992027 12.9091138 13.7318701 12.9581351 13.8603091 13.0103534 13.9808197 13.0790897 14.093402 13.1638113 14.193299 13.2655837 14.2778679 13.3908011 14.3418231 13.544259 14.3825218 13.7259574 14.3978499 13.9449547 14.3825218 14.1996522 14.3545084 14.389876 14.3058813 14.5555893 14.2413975 14.7090472 14.1615857 14.8422572 14.069617 14.9600148 13.9644345 15.0607216 13.8523807 15.1497058 13.7286988 15.2269676 13.5992027 15.2877114 13.4670638 15.3399297 13.3306965 15.3804255 13.1906293 15.4129288 13.0537335 15.4374394 12.9221232 15.4491619 12.7899843 15.4576873 12.6652452 15.4608844 12.4918791 15.4608844 12.3317268 15.4576873 12.191131 15.4576873 12.0589922 15.4539574 11.9384815 15.4491619 11.8306562 15.4411693 11.7344591 15.4331767 11.6419619 15.4209214 11.5573931 15.4129288 11.4818096 15.3969436 11.4051691 15.3841554 11.3369854 15.3644403 11.2682732 15.3479223 11.2048466 15.3234117 11.1403628 15.2999667 11.0721792 15.2754561 11.2524166 14.3813506 11.2888869 14.389876 11.3322284 14.4021314 11.3887839 14.4175837 11.4574961 14.4346346 11.5293796 14.450087 11.60972 14.466605 11.6979888 14.4863201 11.7936573 14.5028381 11.8946114 14.5188233 11.9992654 14.5353414 12.1070907 14.5470638 12.219673 14.5593191 12.3354267 14.563049 12.4532945 14.5673117 12.567991 14.5673117 12.6848018 14.563049 12.8016125 14.5390712 12.8941097 14.506568 12.9654647 14.4623423 13.0220202 14.4058612 13.0621904 14.3488474 13.0944323 14.2838409 13.1150459 14.2199001 13.130374 14.1591563 13.1388309 14.0413987 13.1028891 13.9401591 13.0336484 13.8591674 12.9337514 13.7909639 12.8132408 13.7302202 12.6731736 13.6694764 12.5167212 13.6124625 12.3602688 13.5479889 12.1995879 13.4755227 12.0473639 13.3908011 11.9067682 13.2852988 11.7783292 13.1600814 11.6779037 13.0060907 11.6060202 12.8238594 11.5695498 12.6059278 11.5732497 12.3475005 11.5938634 12.189247 11.6224054 12.0389861 11.662047 11.9020463 11.709617 11.7725661 11.7741008 11.6516115 11.8465129 11.5461092 11.9310817 11.4448696 12.0315073 11.3564181 12.148318 11.2796892 12.2762284 11.2146827 12.4199955 11.1539389 12.5806764 11.1097132 12.7619709 11.0724144 12.9585935 11.0447068 13.1742441 11.0281887 13.4120941 11.023926 13.559561 11.023926 13.6959283 11.0281887 13.8206674 11.0329843 13.9327212 11.0367142 14.0331467 11.0447068 14.1256439 11.0526994 14.2054558 11.060692 14.2778679 11.0692174 14.3460515 11.0766772 14.4026069 11.0889325 14.4544054 11.0974579 14.5030325 11.1054505 14.5432027 11.1129103 14.5791445 11.1177058 14.6145577 11.1256984 14.6467996 11.1299611 14.44172 12.0432488"></polyline>
                <polyline id="Stroke-204" stroke="#FFFFFF" stroke-width="0.216" points="14.44172 12.0432488 14.44172 12.0432488 14.3862217 12.0389861 14.3301948 12.0315264 14.2778679 12.0235338 14.2260694 12.0155412 14.1774423 12.0075486 14.1256439 11.9990231 14.0738455 11.9915634 14.0167615 11.9825051 13.9612632 11.9750453 13.8967794 11.9707826 13.8243673 11.9665199 13.7487839 11.9622572 13.664215 11.9622572 13.5717178 11.9665199 13.4670638 11.9750453 13.3513102 11.9825051 13.2709698 11.9952932 13.1948578 12.0075486 13.1261456 12.0315264 13.0664188 12.0555042 13.0098634 12.0837447 12.9585935 12.1162479 12.9173662 12.1572766 12.8808959 12.1935097 12.8576394 12.2377354 12.8375543 12.282494 12.8290974 12.3304496 12.8290974 12.3794709 12.8412542 12.432222 12.8576394 12.4844403 12.8893527 12.5371915 12.929523 12.5899426 13.0098634 12.6661388 13.106589 12.7268825 13.2186428 12.7796337 13.3391534 12.8238594 13.4670638 12.8648881 13.5992027 12.9091138 13.7318701 12.9581351 13.8603091 13.0103534 13.9808197 13.0790897 14.093402 13.1638113 14.193299 13.2655837 14.2778679 13.3908011 14.3418231 13.544259 14.3825218 13.7259574 14.3978499 13.9449547 14.3825218 14.1996522 14.3545084 14.389876 14.3058813 14.5555893 14.2413975 14.7090472 14.1615857 14.8422572 14.069617 14.9600148 13.9644345 15.0607216 13.8523807 15.1497058 13.7286988 15.2269676 13.5992027 15.2877114 13.4670638 15.3399297 13.3306965 15.3804255 13.1906293 15.4129288 13.0537335 15.4374394 12.9221232 15.4491619 12.7899843 15.4576873 12.6652452 15.4608844 12.4918791 15.4608844 12.3317268 15.4576873 12.191131 15.4576873 12.0589922 15.4539574 11.9384815 15.4491619 11.8306562 15.4411693 11.7344591 15.4331767 11.6419619 15.4209214 11.5573931 15.4129288 11.4818096 15.3969436 11.4051691 15.3841554 11.3369854 15.3644403 11.2682732 15.3479223 11.2048466 15.3234117 11.1403628 15.2999667 11.0721792 15.2754561 11.2524166 14.3813506 11.2888869 14.389876 11.3322284 14.4021314 11.3887839 14.4175837 11.4574961 14.4346346 11.5293796 14.450087 11.60972 14.466605 11.6979888 14.4863201 11.7936573 14.5028381 11.8946114 14.5188233 11.9992654 14.5353414 12.1070907 14.5470638 12.219673 14.5593191 12.3354267 14.563049 12.4532945 14.5673117 12.567991 14.5673117 12.6848018 14.563049 12.8016125 14.5390712 12.8941097 14.506568 12.9654647 14.4623423 13.0220202 14.4058612 13.0621904 14.3488474 13.0944323 14.2838409 13.1150459 14.2199001 13.130374 14.1591563 13.1388309 14.0413987 13.1028891 13.9401591 13.0336484 13.8591674 12.9337514 13.7909639 12.8132408 13.7302202 12.6731736 13.6694764 12.5167212 13.6124625 12.3602688 13.5479889 12.1995879 13.4755227 12.0473639 13.3908011 11.9067682 13.2852988 11.7783292 13.1600814 11.6779037 13.0060907 11.6060202 12.8238594 11.5695498 12.6059278 11.5732497 12.3475005 11.5938634 12.189247 11.6224054 12.0389861 11.662047 11.9020463 11.709617 11.7725661 11.7741008 11.6516115 11.8465129 11.5461092 11.9310817 11.4448696 12.0315073 11.3564181 12.148318 11.2796892 12.2762284 11.2146827 12.4199955 11.1539389 12.5806764 11.1097132 12.7619709 11.0724144 12.9585935 11.0447068 13.1742441 11.0281887 13.4120941 11.023926 13.559561 11.023926 13.6959283 11.0281887 13.8206674 11.0329843 13.9327212 11.0367142 14.0331467 11.0447068 14.1256439 11.0526994 14.2054558 11.060692 14.2778679 11.0692174 14.3460515 11.0766772 14.4026069 11.0889325 14.4544054 11.0974579 14.5030325 11.1054505 14.5432027 11.1129103 14.5791445 11.1177058 14.6145577 11.1256984 14.6467996 11.1299611 14.44172 12.0432488"></polyline>
                <polyline id="Fill-205" fill="#FFFFFF" points="15.3931198 10.1308862 16.5052004 10.1308862 16.3402912 11.1097132 17.0104994 11.1097132 16.8656753 12.0235338 16.1589966 12.0032858 15.7747368 14.2598631 15.7705084 14.3408548 15.7900649 14.410124 15.8307637 14.4623423 15.8830907 14.506568 15.9555028 14.5353414 16.0353147 14.5593191 16.1230549 14.5753043 16.2197805 14.5838298 16.3080493 14.5800999 16.3878611 14.5715745 16.4608018 14.5593191 16.524757 14.543334 16.577084 14.5268159 16.6130258 14.5150934 16.6373393 14.506568 16.6447391 14.5028381 16.5052004 15.2552081 16.4766585 15.2754561 16.448645 15.2914413 16.420103 15.3074265 16.3926181 15.3234117 16.3640761 15.335667 16.3318343 15.3479223 16.2964211 15.3601776 16.2599507 15.3724329 16.2197805 15.3841554 16.1790817 15.3926809 16.1315118 15.4006735 16.0839418 15.4091989 16.0316148 15.4171915 15.9708309 15.4251841 15.9063471 15.4331767 15.8381635 15.4411693 15.533187 15.4411693 15.3725062 15.428914 15.232439 15.4129288 15.1045286 15.388951 14.9961747 15.3601776 14.9031489 15.3234117 14.8275655 15.2839815 14.7593819 15.2349602 14.7070549 15.1822091 14.6668847 15.125728 14.6383427 15.0569917 14.6187861 14.9877225 14.6066293 14.9115264 14.6029295 14.826272 14.6029295 14.7372877 14.627243 14.543334 15.3931198 10.1308862"></polyline>
                <path d="M15.3931198,10.1308862 L16.5052004,10.1308862 L16.3402912,11.1097132 L17.0104994,11.1097132 L16.8656753,12.0235338 L16.1589966,12.0032858 L15.7747368,14.2598631 L15.7705084,14.3408548 L15.7900649,14.410124 L15.8307637,14.4623423 L15.8830907,14.506568 L15.9555028,14.5353414 L16.0353147,14.5593191 L16.1230549,14.5753043 L16.2197805,14.5838298 L16.3080493,14.5800999 L16.3878611,14.5715745 L16.4608018,14.5593191 L16.524757,14.543334 L16.577084,14.5268159 L16.6130258,14.5150934 L16.6373393,14.506568 L16.6447391,14.5028381 L16.5052004,15.2552081 L16.4766585,15.2754561 L16.448645,15.2914413 L16.420103,15.3074265 L16.3926181,15.3234117 L16.3640761,15.335667 L16.3318343,15.3479223 L16.2964211,15.3601776 L16.2599507,15.3724329 L16.2197805,15.3841554 L16.1790817,15.3926809 L16.1315118,15.4006735 L16.0839418,15.4091989 L16.0316148,15.4171915 L15.9708309,15.4251841 L15.9063471,15.4331767 L15.8381635,15.4411693 L15.533187,15.4411693 L15.3725062,15.428914 L15.232439,15.4129288 L15.1045286,15.388951 L14.9961747,15.3601776 L14.9031489,15.3234117 L14.8275655,15.2839815 L14.7593819,15.2349602 L14.7070549,15.1822091 L14.6668847,15.125728 L14.6383427,15.0569917 L14.6187861,14.9877225 L14.6066293,14.9115264 L14.6029295,14.826272 L14.6029295,14.7372877 L14.627243,14.543334 L15.3931198,10.1308862 M17.8968869,13.5479889 L17.8847301,13.6167253 L17.8810302,13.6891915 L17.8889586,13.7664533 L17.9048152,13.8431822 L17.9328287,13.920444 L17.9655991,13.9939759 L18.0094692,14.0701721 L18.0570392,14.1383756 L18.1135946,14.2076448 L18.1733214,14.2689214 L18.2378052,14.3291323 L18.3096887,14.3770879 L18.3826293,14.4223793 L18.4624412,14.4580796 L18.5427816,14.4863201 L18.6231221,14.5028381 L18.7272475,14.5188233 L18.827673,14.5310786 L18.932327,14.543334 L19.0364524,14.5513265 L19.1405778,14.5555893 L19.2489317,14.5555893 L19.3530571,14.5513265 L19.461411,14.543334 L19.5697648,14.5268159 L19.6781187,14.506568 L19.790701,14.4825902 L19.8985263,14.4463571 L20.0116372,14.4021314 L20.1273908,14.3525772 L20.2399731,14.2886364 L20.3562553,14.2199001 L20.1955745,15.2147123 L20.1310907,15.2466827 L20.0676641,15.2797188 L20.0031803,15.3031637 L19.9434535,15.3282072 L19.8831982,15.3479223 L19.8181859,15.3687031 L19.7542307,15.3841554 L19.686047,15.3969436 L19.6136349,15.4091989 L19.5338231,15.4171915 L19.4497828,15.4251841 L19.3572856,15.4331767 L19.2526316,15.4374394 L19.1453348,15.4374394 L19.0200672,15.4411693 L18.8873998,15.4411693 L18.6913057,15.4374394 L18.4909832,15.4171915 L18.2901321,15.388951 L18.0892811,15.3399297 L17.893187,15.2797188 L17.7050213,15.2019241 L17.5237268,15.1017502 L17.3551176,14.9839926 L17.1986652,14.8465199 L17.0628264,14.6808067 L16.9465442,14.4943127 L16.84929,14.280111 L16.7816349,14.0413987 L16.7377648,13.7701832 L16.7256081,13.4712599 L16.7456932,13.1398335 L16.7615498,13.0103534 L16.7853348,12.8600925 L16.8175767,12.7034376 L16.8614468,12.5323959 L16.9222307,12.3597558 L16.9941142,12.1849843 L17.0860829,12.0075486 L17.1986652,11.8375726 L17.3265756,11.6755893 L17.483028,11.5221314 L17.6600941,11.3846586 L17.8609451,11.2631711 L18.092981,11.1619315 L18.3546159,11.0889325 L18.6426786,11.0409769 L18.9682688,11.023926 L19.1247212,11.0281887 L19.2891019,11.0447068 L19.4540112,11.0724144 L19.6183919,11.1129103 L19.7785442,11.1741869 L19.9355252,11.2471859 L20.0798208,11.3441628 L20.2119597,11.4571249 L20.3319418,11.5945976 L20.4328959,11.7571138 L20.5127077,11.9425421 L20.5692632,12.1572766 L20.601505,12.3991859 L20.6052049,12.6741314 L20.5771915,12.98158 L20.5164076,13.3220648 L20.4968511,13.5687697 L17.5723539,13.5687697 L17.7562912,12.7711082 L19.513738,12.7711082 L19.5221948,12.6709343 L19.5174378,12.5734246 L19.508981,12.4844403 L19.4936529,12.4039815 L19.4656394,12.3267197 L19.437626,12.2574505 L19.3974558,12.1972396 L19.3572856,12.1407586 L19.3097156,12.0922701 L19.25686,12.0517743 L19.1966047,12.0155412 L19.1363494,11.9825051 L19.0723942,11.9590601 L19.0079104,11.9425421 L18.9397268,11.9302868 L18.8678432,11.9222942 L18.7912027,11.9265569 L18.7193191,11.9382794 L18.6511355,11.9553302 L18.5829518,11.9787752 L18.5142396,12.0112784 L18.4550414,12.0480444 L18.393729,12.0922701 L18.3424591,12.1407586 L18.2901321,12.1972396 L18.241505,12.2574505 L18.1981635,12.3229898 L18.1616932,12.392259 L18.1252228,12.4647253 L18.0972094,12.5451841 L18.0734244,12.6261758 L18.0570392,12.7108973 L17.8968869,13.5479889" id="Stroke-206" stroke="#FFFFFF" stroke-width="0.216"></path>
                <polyline id="Fill-207" fill="#FFFFFF" points="27.4653259 11.3521554 27.4135274 11.3239149 27.361729 11.2994043 27.304645 11.2711637 27.2449183 11.2423904 27.1841344 11.2184126 27.1170078 11.1944348 27.0482956 11.1699241 26.9769406 11.1459463 26.9003001 11.1256984 26.823131 11.1097132 26.7396193 11.0931952 26.6555789 11.0809399 26.5630817 11.0724144 26.4711131 11.0649547 26.1740649 11.0649547 26.069411 11.0724144 25.9610571 11.0852026 25.8490034 11.1054505 25.7364211 11.1374209 25.6243673 11.1821795 25.5123135 11.2386605 25.3992027 11.3111267 25.2913774 11.4006438 25.1861948 11.5056133 25.0857693 11.6350934 24.9906293 11.7848215 24.901832 11.9622572 24.8177917 12.1647364 24.7416797 12.392259 24.6777245 12.6506864 24.6528824 12.7956189 24.6375543 12.9373543 24.6290974 13.0790897 24.6338544 13.2165624 24.6449541 13.3540352 24.6729675 13.4835153 24.7094378 13.6050028 24.753308 13.7259574 24.8135633 13.8357225 24.8854468 13.9401591 24.9705442 14.0334061 25.0667413 14.1186605 25.1745666 14.1916596 25.2987772 14.2518705 25.435673 14.3046216 25.587897 14.3408548 25.640224 14.3525772 25.7010078 14.3648326 25.7734199 14.373358 25.8532318 14.3813506 25.940972 14.389876 26.1333662 14.389876 26.2343203 14.3813506 26.3384457 14.3690953 26.4425711 14.3488474 26.5429966 14.3206068 26.6434222 14.2886364 26.7433191 14.2438779 26.8352878 14.1916596 26.9198567 14.1266531 27.0001971 14.0541869 26.8204882 15.1342535 26.7956461 15.1539685 26.7718611 15.1784792 26.7396193 15.2072525 26.7036775 15.2301647 26.6598074 15.2626679 26.603252 15.2914413 26.5387682 15.3196818 26.4668847 15.3436596 26.3743875 15.3724329 26.270262 15.3926809 26.15028 15.4091989 26.0091557 15.4251841 25.8532318 15.4331767 25.6719373 15.4374394 25.4684434 15.4331767 25.2427503 15.4209214 25.0582844 15.4006735 24.8738186 15.3601776 24.6893527 15.2999667 24.5048869 15.2184422 24.3283494 15.1219981 24.1592116 14.9999778 23.9995879 14.8587752 23.8510638 14.6973247 23.7178679 14.5150934 23.6063427 14.3131471 23.509617 14.0866901 23.438262 13.8394524 23.3896349 13.5687697 23.3732497 13.2815689 23.3817066 12.9661277 23.4250482 12.6299056 23.4578186 12.4647253 23.4932318 12.3027419 23.5339306 12.1450213 23.5746293 11.9952932 23.6174423 11.8535578 23.6697693 11.7123552 23.7226249 11.5786124 23.7786517 11.453395 23.8394356 11.3276448 23.8991624 11.21042 23.967346 11.0974579 24.038701 10.9924884 24.1116417 10.890716 24.1919821 10.794272 24.271794 10.7052877 24.3563628 10.6200333 24.4483315 10.5390416 24.5408287 10.4623127 24.6375543 10.3935763 24.7379798 10.3285698 24.8458052 10.2678261 24.954159 10.2161406 25.0667413 10.1671193 25.1830235 10.1223608 25.3077626 10.0818649 25.430916 10.0498945 25.5598835 10.0211212 25.6967794 9.99714339 25.8326181 9.97636263 25.9769138 9.96091027 26.121738 9.95291767 26.2739619 9.94812211 26.403458 9.95291767 26.52714 9.96091027 26.6476506 9.97316559 26.7676327 9.98915079 26.880215 10.005136 26.9885689 10.0291138 27.0926943 10.0498945 27.1888914 10.0738723 27.2813886 10.0978501 27.361729 10.1223608 27.4383695 10.1468714 27.5017962 10.1708492 27.5583516 10.1910971 27.6059216 10.2076152 27.6423919 10.2236004 27.6667055 10.2321258 27.4653259 11.3521554"></polyline>
                <polyline id="Stroke-208" stroke="#FFFFFF" stroke-width="0.216" points="27.4653259 11.3521554 27.4653259 11.3521554 27.4135274 11.3239149 27.361729 11.2994043 27.304645 11.2711637 27.2449183 11.2423904 27.1841344 11.2184126 27.1170078 11.1944348 27.0482956 11.1699241 26.9769406 11.1459463 26.9003001 11.1256984 26.823131 11.1097132 26.7396193 11.0931952 26.6555789 11.0809399 26.5630817 11.0724144 26.4711131 11.0649547 26.1740649 11.0649547 26.069411 11.0724144 25.9610571 11.0852026 25.8490034 11.1054505 25.7364211 11.1374209 25.6243673 11.1821795 25.5123135 11.2386605 25.3992027 11.3111267 25.2913774 11.4006438 25.1861948 11.5056133 25.0857693 11.6350934 24.9906293 11.7848215 24.901832 11.9622572 24.8177917 12.1647364 24.7416797 12.392259 24.6777245 12.6506864 24.6528824 12.7956189 24.6375543 12.9373543 24.6290974 13.0790897 24.6338544 13.2165624 24.6449541 13.3540352 24.6729675 13.4835153 24.7094378 13.6050028 24.753308 13.7259574 24.8135633 13.8357225 24.8854468 13.9401591 24.9705442 14.0334061 25.0667413 14.1186605 25.1745666 14.1916596 25.2987772 14.2518705 25.435673 14.3046216 25.587897 14.3408548 25.640224 14.3525772 25.7010078 14.3648326 25.7734199 14.373358 25.8532318 14.3813506 25.940972 14.389876 26.1333662 14.389876 26.2343203 14.3813506 26.3384457 14.3690953 26.4425711 14.3488474 26.5429966 14.3206068 26.6434222 14.2886364 26.7433191 14.2438779 26.8352878 14.1916596 26.9198567 14.1266531 27.0001971 14.0541869 26.8204882 15.1342535 26.7956461 15.1539685 26.7718611 15.1784792 26.7396193 15.2072525 26.7036775 15.2301647 26.6598074 15.2626679 26.603252 15.2914413 26.5387682 15.3196818 26.4668847 15.3436596 26.3743875 15.3724329 26.270262 15.3926809 26.15028 15.4091989 26.0091557 15.4251841 25.8532318 15.4331767 25.6719373 15.4374394 25.4684434 15.4331767 25.2427503 15.4209214 25.0582844 15.4006735 24.8738186 15.3601776 24.6893527 15.2999667 24.5048869 15.2184422 24.3283494 15.1219981 24.1592116 14.9999778 23.9995879 14.8587752 23.8510638 14.6973247 23.7178679 14.5150934 23.6063427 14.3131471 23.509617 14.0866901 23.438262 13.8394524 23.3896349 13.5687697 23.3732497 13.2815689 23.3817066 12.9661277 23.4250482 12.6299056 23.4578186 12.4647253 23.4932318 12.3027419 23.5339306 12.1450213 23.5746293 11.9952932 23.6174423 11.8535578 23.6697693 11.7123552 23.7226249 11.5786124 23.7786517 11.453395 23.8394356 11.3276448 23.8991624 11.21042 23.967346 11.0974579 24.038701 10.9924884 24.1116417 10.890716 24.1919821 10.794272 24.271794 10.7052877 24.3563628 10.6200333 24.4483315 10.5390416 24.5408287 10.4623127 24.6375543 10.3935763 24.7379798 10.3285698 24.8458052 10.2678261 24.954159 10.2161406 25.0667413 10.1671193 25.1830235 10.1223608 25.3077626 10.0818649 25.430916 10.0498945 25.5598835 10.0211212 25.6967794 9.99714339 25.8326181 9.97636263 25.9769138 9.96091027 26.121738 9.95291767 26.2739619 9.94812211 26.403458 9.95291767 26.52714 9.96091027 26.6476506 9.97316559 26.7676327 9.98915079 26.880215 10.005136 26.9885689 10.0291138 27.0926943 10.0498945 27.1888914 10.0738723 27.2813886 10.0978501 27.361729 10.1223608 27.4383695 10.1468714 27.5017962 10.1708492 27.5583516 10.1910971 27.6059216 10.2076152 27.6423919 10.2236004 27.6667055 10.2321258 27.4653259 11.3521554"></polyline>
                <polyline id="Fill-209" fill="#FFFFFF" points="37.3434983 15.4411693 36.2319462 15.4411693 36.3128152 14.992518 36.3128152 14.9514894 36.2483315 15.0330139 36.1796193 15.1049473 36.1119642 15.1699537 36.0400806 15.2269676 35.9676685 15.2797188 35.8952564 15.3234117 35.8228443 15.3601776 35.7467324 15.3969436 35.6706204 15.4251841 35.5945084 15.445432 35.5178679 15.4651471 35.4375274 15.4768696 35.3582441 15.4896577 35.2816036 15.4976503 35.2017917 15.501913 35.1214513 15.501913 34.9126719 15.485395 34.7197492 15.4411693 34.5432116 15.3724329 34.3825308 15.2797188 34.2382352 15.1619611 34.1097962 15.0250213 33.9972139 14.8747604 33.9010168 14.7053173 33.8217335 14.5225532 33.7572497 14.333395 33.7128511 14.1351785 33.6806092 13.9284366 33.668981 13.7222276 33.6726809 13.5122886 33.6922374 13.3055467 33.7287077 13.0998705 33.788963 12.8600925 33.8608466 12.6341684 33.945944 12.4279593 34.045841 12.2340056 34.1494378 12.0517743 34.270477 11.8897909 34.394159 11.7448585 34.527355 11.6111156 34.6674222 11.493358 34.8159462 11.3926512 34.9686988 11.303667 35.1214513 11.2349306 35.2816036 11.1779167 35.4417559 11.1416836 35.6019082 11.1177058 35.7662889 11.1097132 35.8836282 11.1129103 35.995682 11.1256984 36.1003359 11.1459463 36.1960045 11.1741869 36.2885017 11.2066901 36.3693707 11.2423904 36.4491825 11.2876818 36.5215946 11.3319075 36.5855498 11.3798631 36.6452766 11.4331471 36.6976036 11.4853654 36.7457021 11.5381166 36.7858723 11.5908677 36.8223427 11.643086 36.8545845 11.6921073 36.877841 11.7405957 37.159561 10.1511341 38.2504994 10.1511341 37.3434983 15.4411693"></polyline>
                <polyline id="Stroke-210" stroke="#FFFFFF" stroke-width="0.216" points="37.3434983 15.4411693 36.2319462 15.4411693 36.3128152 14.992518 36.3128152 14.9514894 36.2483315 15.0330139 36.1796193 15.1049473 36.1119642 15.1699537 36.0400806 15.2269676 35.9676685 15.2797188 35.8952564 15.3234117 35.8228443 15.3601776 35.7467324 15.3969436 35.6706204 15.4251841 35.5945084 15.445432 35.5178679 15.4651471 35.4375274 15.4768696 35.3582441 15.4896577 35.2816036 15.4976503 35.2017917 15.501913 35.1214513 15.501913 34.9126719 15.485395 34.7197492 15.4411693 34.5432116 15.3724329 34.3825308 15.2797188 34.2382352 15.1619611 34.1097962 15.0250213 33.9972139 14.8747604 33.9010168 14.7053173 33.8217335 14.5225532 33.7572497 14.333395 33.7128511 14.1351785 33.6806092 13.9284366 33.668981 13.7222276 33.6726809 13.5122886 33.6922374 13.3055467 33.7287077 13.0998705 33.788963 12.8600925 33.8608466 12.6341684 33.945944 12.4279593 34.045841 12.2340056 34.1494378 12.0517743 34.270477 11.8897909 34.394159 11.7448585 34.527355 11.6111156 34.6674222 11.493358 34.8159462 11.3926512 34.9686988 11.303667 35.1214513 11.2349306 35.2816036 11.1779167 35.4417559 11.1416836 35.6019082 11.1177058 35.7662889 11.1097132 35.8836282 11.1129103 35.995682 11.1256984 36.1003359 11.1459463 36.1960045 11.1741869 36.2885017 11.2066901 36.3693707 11.2423904 36.4491825 11.2876818 36.5215946 11.3319075 36.5855498 11.3798631 36.6452766 11.4331471 36.6976036 11.4853654 36.7457021 11.5381166 36.7858723 11.5908677 36.8223427 11.643086 36.8545845 11.6921073 36.877841 11.7405957 37.159561 10.1511341 38.2504994 10.1511341 37.3434983 15.4411693"></polyline>
                <polyline id="Fill-211" fill="#FBB231" points="35.5257962 14.4623423 35.6383785 14.4543497 35.7425039 14.4303719 35.8392296 14.4021314 35.9317268 14.3573728 36.0157671 14.3094172 36.0961075 14.2476078 36.1722195 14.1799371 36.2404031 14.1058723 36.3001299 14.0254135 36.3566853 13.9364292 36.4084838 13.8431822 36.453411 13.7467382 36.4930526 13.6449658 36.5252945 13.5399963 36.553308 13.4307641 36.5733931 13.3220648 36.5929496 13.2091027 36.6056349 13.0918779 36.6056349 12.98158 36.6019351 12.8691508 36.5897783 12.7636485 36.5733931 12.6624089 36.5453796 12.565432 36.5131377 12.472185 36.4729675 12.392259 36.424869 12.3149972 36.3730705 12.2494579 36.3128152 12.1935097 36.2446316 12.1450213 36.1722195 12.112518 36.0961075 12.0922701 36.0120672 12.0837447 35.9031848 12.0922701 35.8027592 12.1082553 35.7107906 12.1407586 35.6182934 12.1812544 35.5384815 12.2340056 35.4576125 12.2984792 35.3899574 12.3672155 35.3212452 12.4444773 35.2615185 12.5323959 35.204963 12.6261758 35.1521075 12.7231526 35.108766 12.8281221 35.0685957 12.9373543 35.0368824 13.0471193 35.0046405 13.1638113 34.9808555 13.2815689 34.9602419 13.4595375 34.9686988 13.6534912 34.9961837 13.8511748 35.0495677 14.0413987 35.1288511 14.2076448 35.233505 14.3408548 35.3656439 14.4303719 35.5257962 14.4623423"></polyline>
                <polyline id="Fill-212" fill="#FFFFFF" points="10.8882419 14.543334 10.7270325 15.4411693 9.71590594 15.4411693 9.74391937 15.2754561 9.76506159 15.125728 9.77986114 15.012766 9.79624636 14.9514894 9.74021948 15.0164958 9.67573572 15.0815023 9.6001523 15.1422461 9.51505487 15.1981943 9.41938634 15.2552081 9.31896081 15.3031637 9.21430683 15.352185 9.10595297 15.3926809 8.98914222 15.428914 8.87391713 15.4576873 8.75657783 15.4816651 8.6371243 15.4976503 8.52031355 15.5061758 8.40455991 15.5099056 8.2919776 15.4976503 8.18309518 15.4816651 8.04249944 15.445432 7.91458903 15.4044033 7.80200672 15.352185 7.70158119 15.2914413 7.61384099 15.2269676 7.53402912 15.1539685 7.4690168 15.0767068 7.41298992 14.9962479 7.36541993 14.9115264 7.32472116 14.8220093 7.29300784 14.7335578 7.26869429 14.6445735 7.25230907 14.5513265 7.24068085 14.4580796 7.23275252 14.3690953 7.23275252 14.280111 7.24438074 14.1223904 7.26869429 13.9726623 7.3088645 13.8314598 7.36119149 13.6934542 7.4251467 13.5645069 7.49703024 13.4472821 7.5815991 13.3343201 7.67779619 13.2325476 7.77875028 13.1398335 7.89080403 13.0545791 8.00708623 12.9778501 8.12706831 12.9128437 8.25550728 12.8574283 8.38817469 12.8121369 8.52454199 12.7759038 8.66513774 12.7513932 8.67253751 12.7513932 8.69262262 12.7471304 8.72116461 12.7434006 8.76503471 12.7391378 8.81313326 12.7311452 8.86916013 12.7268825 8.92941545 12.7188899 8.9975991 12.7108973 9.06578275 12.7034376 9.13449496 12.6949121 9.20690705 12.6906494 9.27086226 12.6826568 9.33534602 12.6789269 9.39454423 12.6741314 9.45162822 12.6709343 9.58799552 12.6709343 9.68419261 12.6741314 9.77193281 12.6789269 9.86020157 12.6789269 9.93261366 12.6826568 9.98916909 12.6863867 10.0288108 12.6906494 10.0409675 12.6906494 10.0488959 12.6624089 10.0732094 12.5899426 10.092766 12.5041554 10.1006943 12.4279593 10.0848376 12.338975 10.0488959 12.2574505 10.0007973 12.1849843 9.93631355 12.1242405 9.86020157 12.072555 9.77616125 12.0357891 9.67943561 12.0112784 9.57583875 12.0032858 9.46325644 11.9990231 9.34221725 11.9952932 9.21800672 11.9952932 9.0900963 11.9990231 8.95795745 12.0075486 8.82898992 12.019271 8.70107951 12.0315264 8.57686898 12.0480444 8.45582979 12.0634968 8.33954759 12.0837447 8.23542217 12.1039926 8.13922508 12.1242405 8.05095633 12.149284 7.97854423 12.172729 7.92251736 12.2015023 7.8781187 12.2254801 8.16301008 11.2509158 8.25180739 11.2146827 8.33954759 11.1821795 8.43627324 11.1539389 8.53247032 11.1331582 8.62919597 11.1129103 8.73332139 11.0974579 8.83744681 11.0809399 8.94580067 11.0724144 9.05785442 11.0649547 9.17413662 11.060692 9.29464726 11.0564292 9.67943561 11.0564292 9.82055991 11.060692 9.96115566 11.0649547 10.0732094 11.0724144 10.19372 11.0931952 10.3179306 11.1214357 10.445841 11.1582017 10.5705801 11.2066901 10.6910907 11.2631711 10.8110728 11.3319075 10.9241837 11.4086364 11.0230235 11.4981536 11.1123494 11.5945976 11.1932184 11.7038298 11.2524166 11.8253173 11.2931153 11.9553302 11.3163718 12.0922701 11.3163718 12.245728 11.2931153 12.4077114 10.8882419 14.543334"></polyline>
                <polyline id="Stroke-213" stroke="#FFFFFF" stroke-width="0.216" points="10.8882419 14.543334 10.7270325 15.4411693 9.71590594 15.4411693 9.74391937 15.2754561 9.76506159 15.125728 9.77986114 15.012766 9.79624636 14.9514894 9.74021948 15.0164958 9.67573572 15.0815023 9.6001523 15.1422461 9.51505487 15.1981943 9.41938634 15.2552081 9.31896081 15.3031637 9.21430683 15.352185 9.10595297 15.3926809 8.98914222 15.428914 8.87391713 15.4576873 8.75657783 15.4816651 8.6371243 15.4976503 8.52031355 15.5061758 8.40455991 15.5099056 8.2919776 15.4976503 8.18309518 15.4816651 8.04249944 15.445432 7.91458903 15.4044033 7.80200672 15.352185 7.70158119 15.2914413 7.61384099 15.2269676 7.53402912 15.1539685 7.4690168 15.0767068 7.41298992 14.9962479 7.36541993 14.9115264 7.32472116 14.8220093 7.29300784 14.7335578 7.26869429 14.6445735 7.25230907 14.5513265 7.24068085 14.4580796 7.23275252 14.3690953 7.23275252 14.280111 7.24438074 14.1223904 7.26869429 13.9726623 7.3088645 13.8314598 7.36119149 13.6934542 7.4251467 13.5645069 7.49703024 13.4472821 7.5815991 13.3343201 7.67779619 13.2325476 7.77875028 13.1398335 7.89080403 13.0545791 8.00708623 12.9778501 8.12706831 12.9128437 8.25550728 12.8574283 8.38817469 12.8121369 8.52454199 12.7759038 8.66513774 12.7513932 8.67253751 12.7513932 8.69262262 12.7471304 8.72116461 12.7434006 8.76503471 12.7391378 8.81313326 12.7311452 8.86916013 12.7268825 8.92941545 12.7188899 8.9975991 12.7108973 9.06578275 12.7034376 9.13449496 12.6949121 9.20690705 12.6906494 9.27086226 12.6826568 9.33534602 12.6789269 9.39454423 12.6741314 9.45162822 12.6709343 9.58799552 12.6709343 9.68419261 12.6741314 9.77193281 12.6789269 9.86020157 12.6789269 9.93261366 12.6826568 9.98916909 12.6863867 10.0288108 12.6906494 10.0409675 12.6906494 10.0488959 12.6624089 10.0732094 12.5899426 10.092766 12.5041554 10.1006943 12.4279593 10.0848376 12.338975 10.0488959 12.2574505 10.0007973 12.1849843 9.93631355 12.1242405 9.86020157 12.072555 9.77616125 12.0357891 9.67943561 12.0112784 9.57583875 12.0032858 9.46325644 11.9990231 9.34221725 11.9952932 9.21800672 11.9952932 9.0900963 11.9990231 8.95795745 12.0075486 8.82898992 12.019271 8.70107951 12.0315264 8.57686898 12.0480444 8.45582979 12.0634968 8.33954759 12.0837447 8.23542217 12.1039926 8.13922508 12.1242405 8.05095633 12.149284 7.97854423 12.172729 7.92251736 12.2015023 7.8781187 12.2254801 8.16301008 11.2509158 8.25180739 11.2146827 8.33954759 11.1821795 8.43627324 11.1539389 8.53247032 11.1331582 8.62919597 11.1129103 8.73332139 11.0974579 8.83744681 11.0809399 8.94580067 11.0724144 9.05785442 11.0649547 9.17413662 11.060692 9.29464726 11.0564292 9.67943561 11.0564292 9.82055991 11.060692 9.96115566 11.0649547 10.0732094 11.0724144 10.19372 11.0931952 10.3179306 11.1214357 10.445841 11.1582017 10.5705801 11.2066901 10.6910907 11.2631711 10.8110728 11.3319075 10.9241837 11.4086364 11.0230235 11.4981536 11.1123494 11.5945976 11.1932184 11.7038298 11.2524166 11.8253173 11.2931153 11.9553302 11.3163718 12.0922701 11.3163718 12.245728 11.2931153 12.4077114 10.8882419 14.543334"></polyline>
                <polyline id="Fill-214" fill="#EC1C2E" points="9.92098544 13.4872451 9.916757 13.4675301 9.90037178 13.4472821 9.87658679 13.4350268 9.83641657 13.4270342 9.79201792 13.4190416 9.74021948 13.4147789 9.61918029 13.4147789 9.55575364 13.4190416 9.48756999 13.4270342 9.42361478 13.4350268 9.35913102 13.4435523 9.2988757 13.4515449 9.24232027 13.4632673 9.19475028 13.4755227 9.15035162 13.4872451 9.12233819 13.4952377 9.0900963 13.5080259 9.0462262 13.5240111 9.00129899 13.544259 8.94950056 13.5687697 8.89717357 13.5970102 8.84167525 13.6252507 8.78934826 13.6577539 8.73332139 13.6977169 8.6809944 13.7382128 8.6323673 13.787234 8.58902576 13.8357225 8.54832699 13.8879408 8.52031355 13.9449547 8.49705711 14.0094283 8.48384323 14.0739019 8.48067189 14.2119075 8.50022844 14.3206068 8.54039866 14.4021314 8.59272564 14.4623423 8.65298096 14.5028381 8.72116461 14.5268159 8.78564838 14.5390712 8.84960358 14.543334 8.96958567 14.5390712 9.07846809 14.5268159 9.18259351 14.5102979 9.27509071 14.4863201 9.35490258 14.4580796 9.43101456 14.4223793 9.49919821 14.3856133 9.55998208 14.3408548 9.61230907 14.3003589 9.6593505 14.2518705 9.70004927 14.2076448 9.73229115 14.1591563 9.75977604 14.1106679 9.7851467 14.0621795 9.80470325 14.0174209 9.81580291 13.9726623 9.84857335 13.8559704 9.87658679 13.7222276 9.90037178 13.5927475 9.92098544 13.4872451"></polyline>
                <polyline id="Fill-215" fill="#FFFFFF" points="2.44562598 15.4411693 1.35468757 15.4411693 2.26591713 10.1308862 4.16290258 10.1308862 4.34419709 13.2815689 5.65607167 10.1308862 7.63815454 10.1308862 6.70683987 15.4411693 5.61590146 15.4411693 6.30566629 11.4736429 6.26232475 11.4736429 4.62855991 15.4411693 3.39755431 15.4411693 3.38909742 15.2754561 3.36108399 14.8342646 3.32514222 14.2076448 3.28444345 13.4872451 3.24427324 12.7636485 3.20833147 12.1290361 3.18031803 11.6681295 3.17186114 11.4736429 3.11213438 11.4736429 2.44562598 15.4411693"></polyline>
                <polyline id="Stroke-216" stroke="#FFFFFF" stroke-width="0.216" points="2.44562598 15.4411693 1.35468757 15.4411693 2.26591713 10.1308862 4.16290258 10.1308862 4.34419709 13.2815689 5.65607167 10.1308862 7.63815454 10.1308862 6.70683987 15.4411693 5.61590146 15.4411693 6.30566629 11.4736429 6.26232475 11.4736429 4.62855991 15.4411693 3.39755431 15.4411693 3.38909742 15.2754561 3.36108399 14.8342646 3.32514222 14.2076448 3.28444345 13.4872451 3.24427324 12.7636485 3.20833147 12.1290361 3.18031803 11.6681295 3.17186114 11.4736429 3.11213438 11.4736429 2.44562598 15.4411693"></polyline>
                <polyline id="Fill-217" fill="#FFFFFF" points="30.8005106 14.543334 30.6356013 15.4411693 29.6287032 15.4411693 29.636103 15.2754561 29.6403315 15.1299907 29.6403315 15.0207586 29.6482598 14.9722701 29.5964614 15.0330139 29.5356775 15.0932248 29.4643225 15.1497058 29.3834535 15.2072525 29.2999418 15.258938 29.2032161 15.3074265 29.1027906 15.3564477 29.0023651 15.3969436 28.8940112 15.428914 28.7814289 15.4608844 28.6699037 15.4816651 28.5573214 15.4976503 28.4405106 15.5061758 28.3289854 15.5099056 28.220103 15.4976503 28.1117492 15.4816651 27.9674535 15.445432 27.8395431 15.4044033 27.7264323 15.352185 27.6217783 15.2914413 27.5340381 15.2269676 27.4573975 15.1539685 27.3934423 15.0767068 27.337944 14.9962479 27.2893169 14.9115264 27.2533751 14.8220093 27.2211333 14.7335578 27.2010482 14.6445735 27.1841344 14.5513265 27.1730347 14.4580796 27.1645778 14.3690953 27.1645778 14.280111 27.1730347 14.1223904 27.1973483 13.9726623 27.2327615 13.8314598 27.285617 13.6934542 27.3453438 13.5645069 27.4214558 13.4472821 27.5060246 13.3343201 27.5979933 13.2325476 27.7026473 13.1398335 27.8110011 13.0545791 27.9272833 12.9778501 28.0520224 12.9128437 28.1762329 12.8574283 28.3083718 12.8121369 28.4405106 12.7759038 28.5768779 12.7513932 28.5853348 12.7513932 28.6048914 12.7471304 28.6334334 12.7434006 28.6736036 12.7391378 28.7259306 12.7311452 28.7814289 12.7268825 28.8422128 12.7188899 28.9056394 12.7108973 28.9743516 12.7034376 29.0467637 12.6949121 29.1149474 12.6906494 29.183131 12.6826568 29.2470862 12.6789269 29.3031131 12.6741314 29.3596685 12.6709343 29.5002643 12.6709343 29.5964614 12.6741314 29.68843 12.6789269 29.7766988 12.6789269 29.8533393 12.6826568 29.9172945 12.6863867 29.9532363 12.6906494 29.9696215 12.6906494 29.9780784 12.6624089 29.9897066 12.5899426 30.0013348 12.5041554 30.0092632 12.4279593 29.9939351 12.338975 29.9622217 12.2574505 29.9098947 12.1849843 29.8485823 12.1242405 29.7766988 12.072555 29.6926585 12.0357891 29.6043897 12.0112784 29.5076641 12.0032858 29.3950817 11.9990231 29.2756282 11.9952932 29.1508891 11.9952932 29.0219216 11.9990231 28.8903113 12.0075486 28.7618723 12.019271 28.6334334 12.0315264 28.5086943 12.0480444 28.3881837 12.0634968 28.27243 12.0837447 28.167776 12.1039926 28.0715789 12.1242405 27.9833102 12.149284 27.9114267 12.172729 27.8543427 12.2015023 27.8110011 12.2254801 28.0916641 11.2509158 28.1794043 11.2146827 28.27243 11.1821795 28.3649272 11.1539389 28.4605957 11.1331582 28.5610213 11.1129103 28.6619754 11.0974579 28.7650437 11.0809399 28.8744546 11.0724144 28.9859798 11.0649547 29.1027906 11.060692 29.2190728 11.0564292 29.5964614 11.0564292 29.7328287 11.060692 29.869196 11.0649547 29.9817783 11.0724144 30.1017604 11.0931952 30.2259709 11.1214357 30.3549384 11.1582017 30.4796775 11.2066901 30.6028309 11.2631711 30.7233415 11.3319075 30.8359239 11.4086364 30.9368779 11.4981536 31.028318 11.5945976 31.1081299 11.7038298 31.1689138 11.8253173 31.2133124 11.9553302 31.2418544 12.0922701 31.2418544 12.245728 31.2212408 12.4077114 30.8005106 14.543334"></polyline>
                <polyline id="Fill-218" fill="#FFFFFF" points="30.6356013 15.4694098 30.6593863 15.445432 30.8237671 14.5470638 30.7756685 14.5390712 30.6112878 15.4374394 30.6356013 15.4129288 30.6356013 15.4694098 30.6551579 15.4651471 30.6593863 15.445432 30.6356013 15.4694098"></polyline>
                <polyline id="Fill-219" fill="#FFFFFF" points="29.6043897 15.4411693 29.6287032 15.4694098 30.6356013 15.4694098 30.6356013 15.4129288 29.6287032 15.4129288 29.6530168 15.4411693 29.6043897 15.4411693 29.6006898 15.4694098 29.6287032 15.4694098 29.6043897 15.4411693"></polyline>
                <polyline id="Fill-220" fill="#FFFFFF" points="29.6688735 14.9877225 29.6324031 14.9557521 29.6165465 15.0207586 29.6117895 15.1299907 29.6117895 15.2754561 29.6043897 15.4411693 29.6530168 15.4411693 29.6604166 15.2754561 29.6688735 15.1299907 29.664645 15.0207586 29.664645 14.9877225 29.6287032 14.9557521 29.6688735 14.9877225"></polyline>
                <polyline id="Fill-221" fill="#FFFFFF" points="28.1080493 15.5061758 28.1080493 15.5061758 28.220103 15.522161 28.3289854 15.5338834 28.4405106 15.5306864 28.5573214 15.522161 28.6736036 15.5061758 28.7856573 15.485395 28.8982396 15.4539574 29.0102934 15.4209214 29.1107189 15.3804255 29.2148443 15.3324699 29.3120985 15.2839815 29.3950817 15.2269676 29.4796506 15.1699537 29.5515342 15.1140056 29.6165465 15.0484662 29.6688735 14.9877225 29.6287032 14.9557521 29.5763763 15.0164958 29.5203494 15.0729769 29.4474087 15.1299907 29.3718253 15.1864718 29.2872564 15.2349602 29.1915879 15.2839815 29.0948623 15.3324699 28.9944367 15.3724329 28.8903113 15.4044033 28.777729 15.4374394 28.6651467 15.4576873 28.5573214 15.4731397 28.4405106 15.4816651 28.3289854 15.485395 28.220103 15.4731397 28.1159776 15.4576873 28.1080493 15.5061758"></polyline>
                <polyline id="Fill-222" fill="#FFFFFF" points="27.1370929 14.280111 27.1370929 14.280111 27.1407928 14.3690953 27.1487212 14.4580796 27.1614065 14.5555893 27.1772632 14.6483034 27.1973483 14.7372877 27.2295901 14.8305347 27.2650034 14.9232488 27.3178589 15.0085032 27.3733572 15.0932248 27.4383695 15.1699537 27.5181814 15.2466827 27.6101501 15.3116892 27.714804 15.3766957 27.8316148 15.428914 27.9632251 15.4694098 28.1080493 15.5061758 28.1159776 15.4576873 27.9711534 15.4209214 27.8474714 15.3804255 27.738589 15.3282072 27.6339351 15.2711933 27.5498947 15.2072525 27.4774826 15.1374505 27.4135274 15.0607216 27.356972 14.9839926 27.3136305 14.899271 27.2776887 14.8140167 27.2449183 14.7298279 27.2253617 14.6403108 27.209505 14.5470638 27.1973483 14.4580796 27.1888914 14.3690953 27.1931198 14.280111 27.1370929 14.280111"></polyline>
                <polyline id="Fill-223" fill="#FFFFFF" points="28.5768779 12.7268825 28.5768779 12.7268825 28.4368108 12.7513932 28.3004434 12.7881591 28.167776 12.8323848 28.0398656 12.8888659 27.914598 12.9533395 27.7951445 13.034864 27.686262 13.1201184 27.5821366 13.2165624 27.4859395 13.317802 27.4013707 13.4307641 27.3210302 13.5522516 27.2613035 13.6859944 27.209505 13.8234672 27.1730347 13.9689325 27.1487212 14.1223904 27.1370929 14.280111 27.1931198 14.280111 27.1973483 14.1223904 27.2211333 13.9769251 27.257075 13.8394524 27.309402 13.7019796 27.3691288 13.5762294 27.4410123 13.4632673 27.5261097 13.3497724 27.6138499 13.2490657 27.7179754 13.1600814 27.8268578 13.074827 27.938383 13.0023608 28.0641792 12.9373543 28.1836327 12.8814061 28.3163001 12.8366475 28.4447391 12.7998816 28.5768779 12.7759038 28.5768779 12.7268825"></polyline>
                <polyline id="Fill-224" fill="#FFFFFF" points="29.4035386 12.642161 29.3596685 12.642161 29.3031131 12.6506864 29.2470862 12.655482 29.183131 12.658679 29.1149474 12.6661388 29.0467637 12.6709343 28.9743516 12.6789269 28.9056394 12.6863867 28.8422128 12.6949121 28.7814289 12.7034376 28.7259306 12.7066346 28.6736036 12.71516 28.6334334 12.7188899 28.6011915 12.7231526 28.5853348 12.7268825 28.5768779 12.7268825 28.5768779 12.7759038 28.5853348 12.7759038 28.6091198 12.7711082 28.6334334 12.7679112 28.6736036 12.7636485 28.7259306 12.7556559 28.7814289 12.7513932 28.8422128 12.7434006 28.9056394 12.7348751 28.9743516 12.7268825 29.0467637 12.7188899 29.1149474 12.71516 29.183131 12.7066346 29.2470862 12.7034376 29.3031131 12.698642 29.4035386 12.698642 29.4035386 12.642161"></polyline>
                <polyline id="Fill-225" fill="#FFFFFF" points="29.945308 12.6863867 29.9696215 12.6661388 29.9532363 12.6661388 29.9172945 12.6624089 29.8533393 12.658679 29.7766988 12.6506864 29.5964614 12.6506864 29.5002643 12.642161 29.4035386 12.642161 29.4035386 12.698642 29.5964614 12.698642 29.68843 12.7066346 29.8533393 12.7066346 29.9172945 12.7108973 29.9532363 12.71516 29.9696215 12.71516 29.9939351 12.6949121 29.9696215 12.71516 29.9897066 12.7188899 29.9939351 12.6949121 29.945308 12.6863867"></polyline>
                <polyline id="Fill-226" fill="#FFFFFF" points="29.9854782 12.4279593 29.9817783 12.4279593 29.9780784 12.5041554 29.9648645 12.5856799 29.9532363 12.658679 29.945308 12.6863867 29.9939351 12.6949121 30.0013348 12.6661388 30.0134916 12.5931397 30.0251198 12.5041554 30.0372766 12.4279593 29.9854782 12.4279593"></polyline>
                <polyline id="Fill-227" fill="#FFFFFF" points="29.5076641 12.0272636 29.5076641 12.0315264 29.6006898 12.0357891 29.6847301 12.0602997 29.764542 12.096 29.8327256 12.1450213 29.8887525 12.2015023 29.9368511 12.2702387 29.9696215 12.3427049 29.9854782 12.4279593 30.0335767 12.4279593 30.0171915 12.3352451 29.9854782 12.245728 29.9294513 12.1695319 29.8654961 12.1039926 29.7888555 12.0480444 29.7005868 12.0112784 29.6080896 11.9873006 29.5076641 11.9750453 29.5076641 12.0272636"></polyline>
                <polyline id="Fill-228" fill="#FFFFFF" points="27.7866876 12.2217502 27.8268578 12.245728 27.867028 12.2254801 27.9188264 12.1972396 27.9880672 12.172729 28.0752788 12.149284 28.172533 12.1290361 28.2761299 12.1082553 28.3924121 12.0880074 28.5086943 12.072555 28.6334334 12.0555042 28.7618723 12.0432488 28.8903113 12.0315264 29.0219216 12.0235338 29.3950817 12.0235338 29.5076641 12.0272636 29.5076641 11.9787752 29.3950817 11.9750453 29.2756282 11.9665199 29.1508891 11.9665199 29.0219216 11.9750453 28.8903113 11.9825051 28.7618723 11.9952932 28.6334334 12.0075486 28.5086943 12.0235338 28.3844838 12.0389861 28.267673 12.0602997 28.1640761 12.0805476 28.0673505 12.1007956 27.9790817 12.1242405 27.9034983 12.149284 27.843243 12.1769917 27.7951445 12.2052322 27.8353147 12.2297428 27.7866876 12.2217502"></polyline>
                <polyline id="Fill-229" fill="#FFFFFF" points="28.0842643 11.2264052 28.0673505 11.2471859 27.7866876 12.2217502 27.8353147 12.2297428 28.1159776 11.2546457 28.0995924 11.2754265 28.0842643 11.2264052 28.0715789 11.2306679 28.0673505 11.2471859 28.0842643 11.2264052"></polyline>
                <polyline id="Fill-230" fill="#FFFFFF" points="29.869196 11.0409769 29.869196 11.0409769 29.7328287 11.0329843 29.5964614 11.0281887 29.2190728 11.0281887 29.1027906 11.0367142 28.9859798 11.0409769 28.8744546 11.0495023 28.7650437 11.0564292 28.6572184 11.0724144 28.5573214 11.0889325 28.4568959 11.1097132 28.3601702 11.1299611 28.2645017 11.1582017 28.172533 11.1901721 28.0842643 11.2264052 28.0995924 11.2754265 28.1883897 11.2386605 28.2798298 11.2066901 28.3680985 11.1779167 28.4648242 11.1582017 28.5657783 11.1374209 28.6651467 11.1214357 28.7650437 11.1054505 28.8744546 11.0974579 28.9859798 11.0889325 29.1027906 11.0852026 29.5964614 11.0852026 29.7328287 11.0889325 29.869196 11.0889325 29.869196 11.0409769"></polyline>
                <polyline id="Fill-231" fill="#FFFFFF" points="31.2455543 12.4119741 31.2455543 12.4119741 31.2651109 12.245728 31.2651109 12.0922701 31.237626 11.9500019 31.1932273 11.8167919 31.1292721 11.6921073 31.0478746 11.5786124 30.952206 11.4779056 30.8523091 11.3883885 30.7354983 11.3111267 30.6149877 11.2386605 30.4870773 11.1821795 30.3623382 11.1331582 30.2307279 11.0974579 30.1054602 11.0692174 29.9817783 11.0495023 29.869196 11.0409769 29.869196 11.0889325 29.9817783 11.0974579 30.0975319 11.1177058 30.222271 11.1459463 30.345953 11.1821795 30.4712206 11.2306679 30.5912027 11.2876818 30.7117133 11.3521554 30.8200672 11.4288844 30.9204927 11.5173358 31.0087615 11.6111156 31.0885733 11.7155523 31.1446002 11.8338427 31.1889989 11.9590601 31.2175409 12.0922701 31.2175409 12.245728 31.1969272 12.4039815 31.2455543 12.4119741"></polyline>
                <polyline id="Fill-232" fill="#FFFFFF" points="30.8237671 14.5470638 30.8237671 14.5470638 31.2455543 12.4119741 31.1969272 12.4039815 30.7756685 14.5390712 30.8237671 14.5470638"></polyline>
                <polyline id="Fill-233" fill="#FBB231" points="29.8290258 13.4872451 29.8210974 13.4632673 29.8057693 13.4435523 29.7766988 13.4307641 29.7370571 13.4190416 29.6926585 13.4147789 29.6403315 13.4105162 29.5800761 13.4105162 29.5203494 13.4147789 29.4558656 13.4227715 29.3913819 13.4307641 29.3274267 13.4392895 29.2666428 13.4472821 29.2079731 13.4595375 29.1551176 13.4675301 29.1027906 13.4797854 29.0626204 13.4872451 29.0351355 13.4915079 29.0023651 13.5037632 28.9627234 13.5160185 28.9177962 13.5320037 28.8654692 13.5559815 28.8178992 13.581025 28.7618723 13.6092655 28.7095454 13.6449658 28.6572184 13.6817317 28.6048914 13.7259574 28.5610213 13.7701832 28.5171512 13.8234672 28.4806809 13.8799482 28.4526674 13.9401591 28.4288824 14.0051656 28.4172542 14.0739019 28.4130258 14.2119075 28.4320538 14.3206068 28.4648242 14.4021314 28.5129227 14.4623423 28.5731781 14.5028381 28.6413617 14.5268159 28.7095454 14.5390712 28.777729 14.543334 28.8982396 14.5390712 29.0102934 14.5268159 29.1149474 14.506568 29.2079731 14.4788603 29.2951848 14.4463571 29.3718253 14.410124 29.4437088 14.3690953 29.5076641 14.3206068 29.564748 14.2763811 29.6117895 14.2241628 29.6561881 14.1751415 29.6926585 14.1223904 29.7201433 14.0739019 29.7412856 14.0254135 29.7571422 13.9769251 29.7687704 13.9326994 29.7851557 13.8192044 29.8057693 13.7019796 29.8210974 13.5890176 29.8290258 13.4872451"></polyline>
                <polyline id="Fill-234" fill="#FFFFFF" points="38.0935185 14.8875486 38.1025039 14.7937687 38.1331601 14.6845365 38.1897156 14.5875597 38.2578992 14.5028381 38.3424681 14.4346346 38.4397223 14.3856133 38.5438477 14.3525772 38.6553729 14.3408548 38.7684838 14.3525772 38.8720806 14.3856133 38.9688063 14.4346346 39.0533751 14.5028381 39.1215588 14.5875597 39.1775857 14.6845365 39.209299 14.7937687 39.2177559 14.8875486 39.0972452 14.8875486 39.0935454 14.8140167 39.0687032 14.7250324 39.028533 14.6445735 38.9767346 14.5753043 38.9127794 14.5188233 38.8366674 14.4788603 38.7483987 14.450087 38.6553729 14.4420944 38.5634043 14.450087 38.4756641 14.4788603 38.3990235 14.5188233 38.3345398 14.5753043 38.2827413 14.6445735 38.2430997 14.7250324 38.2187861 14.8140167 38.2103292 14.8875486 38.0935185 14.8875486"></polyline>
                <polyline id="Fill-235" fill="#FFFFFF" points="38.4550504 14.8875486 38.4550504 14.6445735 38.675458 14.6445735 38.7240851 14.6483034 38.7684838 14.656296 38.8001971 14.6685513 38.8282105 14.6845365 38.8482956 14.7090472 38.8641523 14.7335578 38.8720806 14.7612655 38.8763091 14.7900389 38.8720806 14.826272 38.8641523 14.8545125 38.8525241 14.8790231 38.8440672 14.8875486 38.675458 14.8875486 38.6913147 14.882753 38.7198567 14.8790231 38.7436417 14.8710305 38.7642553 14.8630379 38.780112 14.8507826 38.7885689 14.8379944 38.7959686 14.8188122 38.7959686 14.7900389 38.7917402 14.7697909 38.7838119 14.7532729 38.7721837 14.7458131 38.7600269 14.7372877 38.7394132 14.7335578 38.7198567 14.7298279 38.5554759 14.7298279 38.5554759 14.8875486 38.4550504 14.8875486"></polyline>
                <polyline id="Fill-236" fill="#FFFFFF" points="38.0935185 14.8875486 38.0903471 14.9115264 38.1025039 15.0287512 38.1331601 15.1374505 38.1897156 15.2349602 38.2578992 15.3159519 38.3424681 15.3841554 38.4397223 15.4374394 38.5438477 15.4694098 38.6553729 15.4816651 38.7684838 15.4694098 38.8720806 15.4374394 38.9688063 15.3841554 39.0533751 15.3159519 39.1215588 15.2349602 39.1775857 15.1374505 39.209299 15.0287512 39.2209272 14.9115264 39.2177559 14.8875486 39.0972452 14.8875486 39.1014737 14.9115264 39.0935454 15.0085032 39.0687032 15.0974875 39.028533 15.1747493 38.9767346 15.24242 38.9127794 15.2999667 38.8366674 15.3436596 38.7483987 15.3724329 38.6553729 15.3804255 38.5634043 15.3724329 38.4756641 15.3436596 38.3990235 15.2999667 38.3345398 15.24242 38.2827413 15.1747493 38.2430997 15.0974875 38.2187861 15.0085032 38.2103292 14.9115264 38.2103292 14.8875486 38.0935185 14.8875486"></polyline>
                <polyline id="Fill-237" fill="#FFFFFF" points="38.4550504 14.8875486 38.4550504 15.1342535 38.5554759 15.1342535 38.5554759 14.9317743 38.6553729 14.9317743 38.775355 15.1342535 38.8567525 15.1342535 38.7362419 14.9317743 38.7642553 14.9317743 38.7917402 14.9232488 38.8160538 14.9152562 38.8366674 14.899271 38.8440672 14.8875486 38.675458 14.8875486 38.6553729 14.8912784 38.5554759 14.8912784 38.5554759 14.8875486 38.4550504 14.8875486"></polyline>
                <path d="M38.6553729,15.3804255 L38.7483987,15.3724329 L38.8366674,15.3436596 L38.9127794,15.2999667 L38.9767346,15.24242 L39.028533,15.1747493 L39.0687032,15.0974875 L39.0935454,15.0085032 L39.1014737,14.9115264 L39.0935454,14.8140167 L39.0687032,14.7250324 L39.028533,14.6445735 L38.9767346,14.5753043 L38.9127794,14.5188233 L38.8366674,14.4788603 L38.7483987,14.450087 L38.6553729,14.4420944 L38.5634043,14.450087 L38.4756641,14.4788603 L38.3990235,14.5188233 L38.3345398,14.5753043 L38.2827413,14.6445735 L38.2430997,14.7250324 L38.2187861,14.8140167 L38.2103292,14.9115264 L38.2187861,15.0085032 L38.2430997,15.0974875 L38.2827413,15.1747493 L38.3345398,15.24242 L38.3990235,15.2999667 L38.4756641,15.3436596 L38.5634043,15.3724329 L38.6553729,15.3804255 M38.6553729,14.8912784 L38.6913147,14.882753 L38.7198567,14.8790231 L38.7436417,14.8710305 L38.7642553,14.8630379 L38.780112,14.8507826 L38.7885689,14.8379944 L38.7959686,14.8188122 L38.7959686,14.7900389 L38.7917402,14.7697909 L38.7838119,14.7532729 L38.7721837,14.7458131 L38.7600269,14.7372877 L38.7394132,14.7335578 L38.7198567,14.7298279 L38.5554759,14.7298279 L38.5554759,14.8912784 L38.6553729,14.8912784 M38.5554759,15.1342535 L38.4550504,15.1342535 L38.4550504,14.6445735 L38.675458,14.6445735 L38.7240851,14.6483034 L38.7684838,14.656296 L38.8001971,14.6685513 L38.8282105,14.6845365 L38.8482956,14.7090472 L38.8641523,14.7335578 L38.8720806,14.7612655 L38.8763091,14.7900389 L38.8720806,14.826272 L38.8641523,14.8545125 L38.8525241,14.8790231 L38.8366674,14.899271 L38.8160538,14.9152562 L38.7917402,14.9232488 L38.7642553,14.9317743 L38.7362419,14.9317743 L38.8567525,15.1342535 L38.775355,15.1342535 L38.6553729,14.9317743 L38.5554759,14.9317743 L38.5554759,15.1342535 M38.0903471,14.9115264 L38.1025039,14.7937687 L38.1331601,14.6845365 L38.1897156,14.5875597 L38.2578992,14.5028381 L38.3424681,14.4346346 L38.4397223,14.3856133 L38.5438477,14.3525772 L38.6553729,14.3408548 L38.7684838,14.3525772 L38.8720806,14.3856133 L38.9688063,14.4346346 L39.0533751,14.5028381 L39.1215588,14.5875597 L39.1775857,14.6845365 L39.209299,14.7937687 L39.2209272,14.9115264 L39.209299,15.0287512 L39.1775857,15.1374505 L39.1215588,15.2349602 L39.0533751,15.3159519 L38.9688063,15.3841554 L38.8720806,15.4374394 L38.7684838,15.4694098 L38.6553729,15.4816651 L38.5438477,15.4694098 L38.4397223,15.4374394 L38.3424681,15.3841554 L38.2578992,15.3159519 L38.1897156,15.2349602 L38.1331601,15.1374505 L38.1025039,15.0287512 L38.0903471,14.9115264" id="Stroke-238" stroke="#FFFFFF" stroke-width="0.216"></path>
                <polyline id="Fill-239" fill="#FFFFFF" points="31.1012587 15.4411693 32.2328959 15.4411693 32.6377693 13.1398335 32.653626 13.0513821 32.6779395 12.9618649 32.7017245 12.8728807 32.7339664 12.7838964 32.7741366 12.6949121 32.8222352 12.6096577 32.8745622 12.5291989 32.9385174 12.4519371 33.0109295 12.3837336 33.0907413 12.3187271 33.1832385 12.2574505 33.2873639 12.2089621 33.4036461 12.1695319 33.5320851 12.1370287 33.6726809 12.112518 33.8286047 12.1039926 33.9290302 12.1039926 34.1097962 11.0649547 33.9972139 11.0724144 33.8893886 11.0852026 33.788963 11.1054505 33.6922374 11.1331582 33.6044972 11.1656614 33.5199283 11.2066901 33.4395879 11.2509158 33.3634759 11.2994043 33.2915924 11.3564181 33.2228802 11.4128992 33.158925 11.4779056 33.0949698 11.5418464 33.0347144 11.6111156 32.9744591 11.6873117 32.9142038 11.7603108 32.8587055 11.8413025 32.9792161 11.1097132 31.8512788 11.1097132 31.1012587 15.4411693"></polyline>
                <polyline id="Stroke-240" stroke="#FFFFFF" stroke-width="0.216" points="31.1012587 15.4411693 32.2328959 15.4411693 32.6377693 13.1398335 32.653626 13.0513821 32.6779395 12.9618649 32.7017245 12.8728807 32.7339664 12.7838964 32.7741366 12.6949121 32.8222352 12.6096577 32.8745622 12.5291989 32.9385174 12.4519371 33.0109295 12.3837336 33.0907413 12.3187271 33.1832385 12.2574505 33.2873639 12.2089621 33.4036461 12.1695319 33.5320851 12.1370287 33.6726809 12.112518 33.8286047 12.1039926 33.9290302 12.1039926 34.1097962 11.0649547 33.9972139 11.0724144 33.8893886 11.0852026 33.788963 11.1054505 33.6922374 11.1331582 33.6044972 11.1656614 33.5199283 11.2066901 33.4395879 11.2509158 33.3634759 11.2994043 33.2915924 11.3564181 33.2228802 11.4128992 33.158925 11.4779056 33.0949698 11.5418464 33.0347144 11.6111156 32.9744591 11.6873117 32.9142038 11.7603108 32.8587055 11.8413025 32.9792161 11.1097132 31.8512788 11.1097132 31.1012587 15.4411693"></polyline>
                <polyline id="Fill-241" fill="#FFFFFF" points="20.476766 15.4411693 21.6279597 15.4411693 22.0132766 13.1398335 22.0296618 13.0513821 22.0492184 12.9661277 22.0693035 12.8814061 22.0978455 12.7998816 22.1295588 12.7188899 22.169729 12.642161 22.2178275 12.5696947 22.2738544 12.5009584 22.3383382 12.4391489 22.4102217 12.3794709 22.499019 12.3304496 22.5952161 12.2862239 22.7072699 12.2494579 22.832009 12.2180204 22.9683763 12.1972396 23.1243001 12.1849843 23.1369854 12.1849843 23.1528421 12.189247 23.1729272 12.1935097 23.1930123 12.1935097 23.2125689 12.1972396 23.2294826 12.2015023 23.2405823 12.2052322 23.2453393 12.2052322 23.2490392 12.189247 23.261196 12.1407586 23.2770526 12.0682923 23.2976663 11.9787752 23.3251512 11.8738057 23.3536932 11.7603108 23.3896349 11.6473488 23.4250482 11.533321 23.4578186 11.4571249 23.4979888 11.3798631 23.538159 11.303667 23.5778007 11.2349306 23.6137424 11.1741869 23.6417559 11.1256984 23.6623695 11.0974579 23.6697693 11.0852026 23.666598 11.0852026 23.6502128 11.0809399 23.6306562 11.0766772 23.6021142 11.0724144 23.5746293 11.0724144 23.5423875 11.0692174 23.5138455 11.0649547 23.485832 11.0649547 23.3610929 11.0724144 23.2490392 11.0852026 23.1449138 11.1054505 23.0487167 11.1299611 22.956748 11.1619315 22.8716506 11.2029602 22.7955386 11.2423904 22.7231265 11.2908788 22.6554714 11.3441628 22.5909877 11.4049066 22.5307324 11.4656503 22.4710056 11.533321 22.4102217 11.603123 22.3541948 11.6803848 22.2944681 11.7603108 22.2336842 11.8413025 22.3779798 11.1097132 21.2267861 11.1097132 20.476766 15.4411693"></polyline>
                <polyline id="Stroke-242" stroke="#FFFFFF" stroke-width="0.216" points="20.476766 15.4411693 21.6279597 15.4411693 22.0132766 13.1398335 22.0296618 13.0513821 22.0492184 12.9661277 22.0693035 12.8814061 22.0978455 12.7998816 22.1295588 12.7188899 22.169729 12.642161 22.2178275 12.5696947 22.2738544 12.5009584 22.3383382 12.4391489 22.4102217 12.3794709 22.499019 12.3304496 22.5952161 12.2862239 22.7072699 12.2494579 22.832009 12.2180204 22.9683763 12.1972396 23.1243001 12.1849843 23.1369854 12.1849843 23.1528421 12.189247 23.1729272 12.1935097 23.1930123 12.1935097 23.2125689 12.1972396 23.2294826 12.2015023 23.2405823 12.2052322 23.2453393 12.2052322 23.2490392 12.189247 23.261196 12.1407586 23.2770526 12.0682923 23.2976663 11.9787752 23.3251512 11.8738057 23.3536932 11.7603108 23.3896349 11.6473488 23.4250482 11.533321 23.4578186 11.4571249 23.4979888 11.3798631 23.538159 11.303667 23.5778007 11.2349306 23.6137424 11.1741869 23.6417559 11.1256984 23.6623695 11.0974579 23.6697693 11.0852026 23.666598 11.0852026 23.6502128 11.0809399 23.6306562 11.0766772 23.6021142 11.0724144 23.5746293 11.0724144 23.5423875 11.0692174 23.5138455 11.0649547 23.485832 11.0649547 23.3610929 11.0724144 23.2490392 11.0852026 23.1449138 11.1054505 23.0487167 11.1299611 22.956748 11.1619315 22.8716506 11.2029602 22.7955386 11.2423904 22.7231265 11.2908788 22.6554714 11.3441628 22.5909877 11.4049066 22.5307324 11.4656503 22.4710056 11.533321 22.4102217 11.603123 22.3541948 11.6803848 22.2944681 11.7603108 22.2336842 11.8413025 22.3779798 11.1097132 21.2267861 11.1097132 20.476766 15.4411693"></polyline>
                <polyline id="Fill-243" fill="#FBB231" points="38.1025039 19.6964292 38.1025039 19.6799112 38.1331601 19.5749417 38.1897156 19.4816947 38.2578992 19.4012359 38.3424681 19.3362294 38.4397223 19.2872081 38.5438477 19.2595005 38.6553729 19.2472451 38.7684838 19.2595005 38.8720806 19.2872081 38.9688063 19.3362294 39.0533751 19.4012359 39.1215588 19.4816947 39.1775857 19.5749417 39.209299 19.6799112 39.209299 19.6964292 39.0935454 19.6964292 39.0687032 19.6117077 39.028533 19.5344459 38.9767346 19.4651767 38.9127794 19.4092285 38.8366674 19.3644699 38.7483987 19.3362294 38.6553729 19.3282368 38.5634043 19.3362294 38.4756641 19.3644699 38.3990235 19.4092285 38.3345398 19.4651767 38.2827413 19.5344459 38.2430997 19.6117077 38.2187861 19.6964292 38.1025039 19.6964292"></polyline>
                <polyline id="Fill-244" fill="#FBB231" points="38.4550504 19.6964292 38.4550504 19.5552266 38.7240851 19.5552266 38.7684838 19.5632192 38.8001971 19.5701462 38.8282105 19.5866642 38.8482956 19.607445 38.8641523 19.6314228 38.8720806 19.6596633 38.8763091 19.6964292 38.7959686 19.6964292 38.7959686 19.6756485 38.7917402 19.6554006 38.7838119 19.6394154 38.7721837 19.6314228 38.7600269 19.6234302 38.7394132 19.6191674 38.7198567 19.6154376 38.5554759 19.6154376 38.5554759 19.6964292 38.4550504 19.6964292"></polyline>
                <polyline id="Fill-245" fill="#FBB231" points="38.0903471 19.7848807 38.1025039 19.6964292 38.2187861 19.6964292 38.2187861 19.6996263 38.2103292 19.7848807 38.0903471 19.7848807"></polyline>
                <polyline id="Fill-246" fill="#FBB231" points="38.4550504 19.7848807 38.4550504 19.6964292 38.5554759 19.6964292 38.5554759 19.7768881 38.6553729 19.7768881 38.6913147 19.7694283 38.7198567 19.7651656 38.7436417 19.7566401 38.7642553 19.7486475 38.780112 19.7369251 38.7885689 19.7241369 38.7959686 19.7049547 38.7959686 19.6964292 38.8763091 19.6964292 38.8720806 19.7241369 38.8641523 19.7486475 38.8525241 19.7694283 38.8366674 19.7848807 38.4550504 19.7848807"></polyline>
                <polyline id="Fill-247" fill="#FBB231" points="39.1014737 19.7848807 39.0935454 19.6996263 39.0935454 19.6964292 39.209299 19.6964292 39.2209272 19.7848807 39.1014737 19.7848807"></polyline>
                <polyline id="Fill-248" fill="#FBB231" points="38.0903471 19.7848807 38.0903471 19.797136 38.1025039 19.9143608 38.1331601 20.023593 38.1897156 20.1205698 38.2578992 20.2058242 38.3424681 20.2750934 38.4397223 20.3225162 38.5438477 20.3555523 38.6553729 20.3672747 38.7684838 20.3555523 38.8720806 20.3225162 38.9688063 20.2750934 39.0533751 20.2058242 39.1215588 20.1205698 39.1775857 20.023593 39.209299 19.9143608 39.2209272 19.797136 39.2209272 19.7848807 39.1014737 19.7848807 39.1014737 19.797136 39.0935454 19.8946457 39.0687032 19.98363 39.028533 20.0598261 38.9767346 20.1280296 38.9127794 20.1861092 38.8366674 20.2303349 38.7483987 20.2585754 38.6553729 20.266568 38.5634043 20.2585754 38.4756641 20.2303349 38.3990235 20.1861092 38.3345398 20.1280296 38.2827413 20.0598261 38.2430997 19.98363 38.2187861 19.8946457 38.2103292 19.797136 38.2103292 19.7848807 38.0903471 19.7848807"></polyline>
                <polyline id="Fill-249" fill="#FBB231" points="38.4550504 19.7848807 38.4550504 20.0198631 38.5554759 20.0198631 38.5554759 19.8173839 38.6553729 19.8173839 38.775355 20.0198631 38.8567525 20.0198631 38.7362419 19.8173839 38.7642553 19.8173839 38.7917402 19.8093913 38.8160538 19.8013987 38.8366674 19.7848807 38.4550504 19.7848807"></polyline>
                <path d="M19.513738,12.7711082 L18.0480538,12.7711082 L18.0491109,12.7679112 L18.0469966,12.7673784 L18.0570392,12.7108973 L18.0734244,12.6261758 L18.0972094,12.5451841 L18.1252228,12.4647253 L18.1616932,12.392259 L18.1981635,12.3229898 L18.241505,12.2574505 L18.2901321,12.1972396 L18.3424591,12.1407586 L18.393729,12.0922701 L18.4550414,12.0480444 L18.5142396,12.0112784 L18.5829518,11.9787752 L18.6511355,11.9553302 L18.7193191,11.9382794 L18.7912027,11.9265569 L18.8678432,11.9222942 L18.9397268,11.9302868 L19.0079104,11.9425421 L19.0723942,11.9590601 L19.1363494,11.9825051 L19.1966047,12.0155412 L19.25686,12.0517743 L19.3097156,12.0922701 L19.3572856,12.1407586 L19.3974558,12.1972396 L19.437626,12.2574505 L19.4656394,12.3267197 L19.4936529,12.4039815 L19.508981,12.4844403 L19.5174378,12.5734246 L19.5221948,12.6709343 L19.513738,12.7711082 Z M20.601505,12.3991859 L20.5692632,12.1572766 L20.5127077,11.9425421 L20.4328959,11.7571138 L20.3319418,11.5945976 L20.2119597,11.4571249 L20.0798208,11.3441628 L19.9355252,11.2471859 L19.7785442,11.1741869 L19.6183919,11.1129103 L19.4540112,11.0724144 L19.2891019,11.0447068 L19.1247212,11.0281887 L18.9682688,11.023926 L18.6426786,11.0409769 L18.3546159,11.0889325 L18.092981,11.1619315 L17.8609451,11.2631711 L17.6600941,11.3846586 L17.483028,11.5221314 L17.3265756,11.6755893 L17.1986652,11.8375726 L17.0860829,12.0075486 L16.9941142,12.1849843 L16.9222307,12.3597558 L16.8614468,12.5323959 L16.8175767,12.7034376 L16.7853348,12.8600925 L16.7615498,13.0103534 L16.7456932,13.1398335 L16.7256081,13.4712599 L16.7377648,13.7701832 L16.7816349,14.0413987 L16.84929,14.280111 L16.9465442,14.4943127 L17.0628264,14.6808067 L17.1986652,14.8465199 L17.3551176,14.9839926 L17.5237268,15.1017502 L17.7050213,15.2019241 L17.893187,15.2797188 L18.0892811,15.3399297 L18.2901321,15.388951 L18.4909832,15.4171915 L18.6913057,15.4374394 L18.8873998,15.4411693 L19.0200672,15.4411693 L19.1453348,15.4374394 L19.2526316,15.4374394 L19.3572856,15.4331767 L19.4497828,15.4251841 L19.5338231,15.4171915 L19.6136349,15.4091989 L19.686047,15.3969436 L19.7542307,15.3841554 L19.8181859,15.3687031 L19.8831982,15.3479223 L19.9434535,15.3282072 L20.0031803,15.3031637 L20.0676641,15.2797188 L20.1310907,15.2466827 L20.1955745,15.2147123 L20.3562553,14.2199001 L20.2399731,14.2886364 L20.1273908,14.3525772 L20.0116372,14.4021314 L19.8985263,14.4463571 L19.790701,14.4825902 L19.6781187,14.506568 L19.5697648,14.5268159 L19.461411,14.543334 L19.3530571,14.5513265 L19.2489317,14.5555893 L19.1405778,14.5555893 L19.0364524,14.5513265 L18.932327,14.543334 L18.827673,14.5310786 L18.7272475,14.5188233 L18.6231221,14.5028381 L18.5427816,14.4863201 L18.4624412,14.4580796 L18.3826293,14.4223793 L18.3096887,14.3770879 L18.2378052,14.3291323 L18.1733214,14.2689214 L18.1135946,14.2076448 L18.0570392,14.1383756 L18.0094692,14.0701721 L17.9655991,13.9939759 L17.9328287,13.920444 L17.9048152,13.8431822 L17.8889586,13.7664533 L17.8810302,13.6891915 L17.8842016,13.620988 L17.8937156,13.5687697 L20.4968511,13.5687697 L20.5164076,13.3220648 L20.5771915,12.98158 L20.6052049,12.6741314 L20.601505,12.3991859 Z" id="Fill-250" fill="#FFFFFF"></path>
            </g>
        </g>
    </g>
</svg>