<?xml version="1.0" encoding="UTF-8"?>
<svg width="982px" height="888px" viewBox="0 0 982 888" version="1.1" xmlns="http://www.w3.org/2000/svg" xmlns:xlink="http://www.w3.org/1999/xlink">
    <!-- Generator: Sketch 54.1 (76490) - https://sketchapp.com -->
    <title>Untitled</title>
    <desc>Created with Sketch.</desc>
    <g id="Page-1" stroke="none" stroke-width="1" fill="none" fill-rule="evenodd">
        <g id="thumb-fallback" fill="#D4D4D4" fill-rule="nonzero">
            <path d="M759.1,536.4 C750.7,532.5 726.7,528.3 722.1,536.4 C674.7,621.4 578.6,665.8 481.7,665.8 C384.8,665.8 307.3,621.3 259.8,536.4 C255.2,528.3 231.1,532.5 222.8,536.4 C-7.4,641.6 1,829.9 1,832.3 C1,842.1 21.1,887.8 56.5,887.8 L925.5,887.8 C938.9,887.8 981,858.6 981,832.3 C981,829.9 989.4,641.6 759.1,536.4 Z M491,603.7 C605,603.7 703.6,522.9 703.6,388.5 L703.6,203.6 C703.6,89.4 605,0.3 491,0.3 C377.1,0.3 278.3,89.5 278.3,203.7 L278.3,388.6 C278.4,524.8 377.1,603.7 491,603.7 Z" id="Shape"></path>
        </g>
    </g>
</svg>