<?xml version="1.0" encoding="UTF-8"?>
<svg width="40px" height="14px" viewBox="0 0 40 14" version="1.1" xmlns="http://www.w3.org/2000/svg" xmlns:xlink="http://www.w3.org/1999/xlink">
    <!-- Generator: Sketch 52.3 (67297) - http://www.bohemiancoding.com/sketch -->
    <title>visa</title>
    <desc>Created with Sketch.</desc>
    <g id="Payment" stroke="none" stroke-width="1" fill="none" fill-rule="evenodd">
        <g id="so-payment-card-input-A01" transform="translate(-264.000000, -566.000000)">
            <g id="visa" transform="translate(264.000000, 566.446809)">
                <polyline id="Fill-4" fill="#0066B2" points="17.2948623 13.1278979 14.0569317 13.1278979 16.0807704 0.309378723 19.3197581 0.309378723 17.2948623 13.1278979"></polyline>
                <path d="M11.3316999,0.309378723 L8.24440761,9.12612766 L7.87864726,7.22737021 L7.87864726,7.22791489 L6.78929451,1.46355745 C6.78929451,1.46355745 6.65821277,0.309378723 5.25331243,0.309378723 L0.149052632,0.309378723 L0.0893258679,0.526706383 C0.0893258679,0.526706383 1.65015006,0.860595745 3.47736618,1.99135319 L6.29086674,13.1278979 L9.66516461,13.1278979 L14.817523,0.309378723 L11.3316999,0.309378723" id="Fill-5" fill="#0066B2"></path>
                <path d="M33.2424367,8.59397447 L34.9433281,3.79588085 L35.9010705,8.59397447 L33.2424367,8.59397447 Z M36.8059574,13.1278979 L39.7796103,13.1278979 L37.1865174,0.309378723 L34.5833819,0.309378723 C33.3809183,0.309378723 33.0880985,1.26420426 33.0880985,1.26420426 L28.258159,13.1278979 L31.633514,13.1278979 L32.3090078,11.2242383 L36.4259261,11.2242383 L36.8059574,13.1278979 Z" id="Fill-6" fill="#0066B2"></path>
                <path d="M28.5113371,3.39172766 L28.9732945,0.638910638 C28.9732945,0.638910638 27.5467234,0.0800680851 26.0609541,0.0800680851 C24.4530885,0.0800680851 20.6369183,0.803948936 20.6369183,4.3236766 C20.6369183,7.63588085 25.1164255,7.67673191 25.1164255,9.41535319 C25.1164255,11.1545191 21.0983471,10.8440511 19.7722016,9.74706383 L19.2906876,12.6240681 C19.2906876,12.6240681 20.7362867,13.3490383 22.9467055,13.3490383 C25.1560672,13.3490383 28.491252,12.1692596 28.491252,8.96054468 C28.491252,5.62764255 23.9715745,5.31662979 23.9715745,3.86777872 C23.9715745,2.41838298 27.1254647,2.60466383 28.5113371,3.39172766" id="Fill-7" fill="#0066B2"></path>
                <path d="M7.87864726,7.22791489 L6.78929451,1.46355745 C6.78929451,1.46355745 6.65821277,0.309378723 5.25331243,0.309378723 L0.149052632,0.309378723 L0.0893258679,0.526706383 C0.0893258679,0.526706383 2.54340873,1.05014468 4.89600896,3.01262979 C7.14606943,4.8896 7.87864726,7.22791489 7.87864726,7.22791489" id="Fill-8" fill="#F9A533"></path>
            </g>
        </g>
    </g>
</svg>