<?xml version="1.0" encoding="UTF-8"?>
<svg width="40px" height="40px" viewBox="0 0 40 40" version="1.1" xmlns="http://www.w3.org/2000/svg" xmlns:xlink="http://www.w3.org/1999/xlink">
    <!-- Generator: Sketch 52.3 (67297) - http://www.bohemiancoding.com/sketch -->
    <title>all</title>
    <desc>Created with Sketch.</desc>
    <g id="Page-1" stroke="none" stroke-width="1" fill="none" fill-rule="evenodd">
        <path d="M29.0168594,14.5328643 C30.0668322,14.5328643 30.9181996,13.718746 30.9181996,12.7139605 L30.9181996,9.15517732 C30.9181996,7.96678652 29.9075963,7 28.6653452,7 L10.0934451,7 C9.25789587,7 8.52815243,7.43076645 8.18929276,8.12416255 C7.85008158,8.81755865 7.97276003,9.62965933 8.50917067,10.2436949 L17.51637,20.5450995 L8.59037044,29.6951033 C8.00545085,30.2953517 7.84480887,31.1155229 8.17206857,31.8341395 C8.49897675,32.5534287 9.23504744,33 10.0934451,33 L28.6653452,33 C29.9075963,33 30.9181996,32.0332135 30.9181996,30.8448227 L30.9181996,26.6134923 C30.9181996,25.6090432 30.0668322,24.7945886 29.0168594,24.7945886 C27.9668865,24.7945886 27.1155192,25.6090432 27.1155192,26.6134923 L27.1155192,29.3621925 L14.1165248,29.3621925 L21.2037537,22.097002 C21.9925515,21.2875915 22.0280545,20.0363175 21.2849535,19.186218 L13.811059,10.6378075 L27.1155192,10.6378075 L27.1155192,12.7142968 C27.1155192,13.718746 27.9668865,14.5328643 29.0168594,14.5328643 Z" id="Path" fill="#000000"></path>
    </g>
</svg>