<?xml version="1.0" encoding="UTF-8"?>
<svg width="40px" height="40px" viewBox="0 0 40 40" version="1.1" xmlns="http://www.w3.org/2000/svg" xmlns:xlink="http://www.w3.org/1999/xlink">
    <!-- Generator: Sketch 52.3 (67297) - http://www.bohemiancoding.com/sketch -->
    <title>instagram</title>
    <desc>Created with Sketch.</desc>
    <g id="Page-1" stroke="none" stroke-width="1" fill="none" fill-rule="evenodd">
        <g id="instagram" transform="translate(7.000000, 7.000000)" fill="#E5006A" fill-rule="nonzero">
            <path d="M13.5890689,6.58594144 C9.75327833,6.58594144 6.65931522,9.68059494 6.65931522,13.5172414 C6.65931522,17.3538878 9.75327833,20.4485413 13.5890689,20.4485413 C17.4248594,20.4485413 20.5188225,17.3538878 20.5188225,13.5172414 C20.5188225,9.68059494 17.4248594,6.58594144 13.5890689,6.58594144 Z M13.5890689,18.0234912 C11.1102797,18.0234912 9.08382432,16.0026161 9.08382432,13.5172414 C9.08382432,11.0318666 11.1042486,9.01099155 13.5890689,9.01099155 C16.0738891,9.01099155 18.0943134,11.0318666 18.0943134,13.5172414 C18.0943134,16.0026161 16.067858,18.0234912 13.5890689,18.0234912 Z M22.4186244,6.30241568 C22.4186244,7.20125266 21.6948903,7.91911575 20.802285,7.91911575 C19.9036485,7.91911575 19.1859456,7.1952202 19.1859456,6.30241568 C19.1859456,5.40961116 19.9096797,4.6857156 20.802285,4.6857156 C21.6948903,4.6857156 22.4186244,5.40961116 22.4186244,6.30241568 Z M27.0083046,7.9432456 C26.9057756,5.7775914 26.411224,3.85926818 24.8250402,2.27876288 C23.2448875,0.698257588 21.3269922,0.203595625 19.1618211,0.0950112916 C16.9303078,-0.0316704305 10.2417988,-0.0316704305 8.01028547,0.0950112916 C5.85114552,0.197563162 3.93325025,0.692225125 2.34706643,2.27273042 C0.760882616,3.85323572 0.272362124,5.77155894 0.163802015,7.93721314 C0.037148554,10.1692244 0.037148554,16.8592259 0.163802015,19.0912372 C0.266331007,21.2568914 0.760882616,23.1752146 2.34706643,24.7557199 C3.93325025,26.3362252 5.8451144,26.8308871 8.01028547,26.9394715 C10.2417988,27.0661532 16.9303078,27.0661532 19.1618211,26.9394715 C21.3269922,26.8369196 23.2448875,26.3422576 24.8250402,24.7557199 C26.4051929,23.1752146 26.8997445,21.2568914 27.0083046,19.0912372 C27.134958,16.8592259 27.134958,10.1752569 27.0083046,7.9432456 Z M24.1254306,21.486125 C23.6550034,22.6684877 22.7443047,23.5793896 21.5561747,24.0559542 C19.7769951,24.7617523 15.5552131,24.5988758 13.5890689,24.5988758 C11.6229247,24.5988758 7.39511151,24.7557199 5.62196306,24.0559542 C4.4398641,23.5854221 3.5291654,22.6745202 3.05270714,21.486125 C2.34706643,19.7065484 2.5099066,15.4838243 2.5099066,13.5172414 C2.5099066,11.5506585 2.35309755,7.32190192 3.05270714,5.54835781 C3.52313428,4.36599507 4.43383298,3.45509316 5.62196306,2.97852859 C7.40114263,2.27273042 11.6229247,2.43560692 13.5890689,2.43560692 C15.5552131,2.43560692 19.7830262,2.27876288 21.5561747,2.97852859 C22.7382736,3.4490607 23.6489723,4.3599626 24.1254306,5.54835781 C24.8310713,7.32793438 24.6682311,11.5506585 24.6682311,13.5172414 C24.6682311,15.4838243 24.8310713,19.7125808 24.1254306,21.486125 Z" id="Shape"></path>
        </g>
    </g>
</svg>