<?xml version="1.0" encoding="UTF-8"?>
<svg width="40px" height="40px" viewBox="0 0 40 40" version="1.1" xmlns="http://www.w3.org/2000/svg" xmlns:xlink="http://www.w3.org/1999/xlink">
    <!-- Generator: Sketch 52.3 (67297) - http://www.bohemiancoding.com/sketch -->
    <title>linkedin</title>
    <desc>Created with Sketch.</desc>
    <g id="Page-1" stroke="none" stroke-width="1" fill="none" fill-rule="evenodd">
        <g id="linkedin-in" transform="translate(7.000000, 6.000000)" fill="#0477B5" fill-rule="nonzero">
            <path d="M6.04366071,27 L0.445982143,27 L0.445982143,8.97388393 L6.04366071,8.97388393 L6.04366071,27 Z M3.24180804,6.51495536 C1.45185268,6.51495536 0,5.03236607 0,3.24241071 C2.66790559e-08,1.45200959 1.45140691,0.000602726878 3.24180804,0.000602726878 C5.03220916,0.000602726878 6.48361604,1.45200959 6.48361607,3.24241071 C6.48361607,5.03236607 5.03116071,6.51495536 3.24180804,6.51495536 Z M26.9939732,27 L21.4083482,27 L21.4083482,18.225 C21.4083482,16.1337054 21.3661607,13.4517857 18.4980134,13.4517857 C15.5876786,13.4517857 15.1416964,15.7238839 15.1416964,18.0743304 L15.1416964,27 L9.55004464,27 L9.55004464,8.97388393 L14.9187054,8.97388393 L14.9187054,11.4328125 L14.9970536,11.4328125 C15.744375,10.0165179 17.5698884,8.521875 20.2933929,8.521875 C25.9585714,8.521875 27,12.2524554 27,17.0979911 L27,27 L26.9939732,27 Z" id="Shape"></path>
        </g>
    </g>
</svg>