<?xml version="1.0" encoding="UTF-8"?>
<svg width="84px" height="84px" viewBox="0 0 84 84" version="1.1" xmlns="http://www.w3.org/2000/svg" xmlns:xlink="http://www.w3.org/1999/xlink">
    <!-- Generator: Sketch 52.3 (67297) - http://www.bohemiancoding.com/sketch -->
    <title>Artboard</title>
    <desc>Created with Sketch.</desc>
    <g id="Artboard" stroke="none" stroke-width="1" fill="none" fill-rule="evenodd">
        <g id="airlines" transform="translate(6.000000, 6.000000)" fill="#000000" fill-rule="nonzero">
            <path d="M69.9047946,0.39979611 C70.2562958,0.487861263 70.5638593,0.663991569 70.8274852,0.928187027 L70.8714228,0.972219604 C71.1350487,1.20735356 71.3257381,1.50061052 71.4417334,1.85287113 C72.4962369,4.87614783 72.0568605,8.4286961 70.1236041,12.5087546 C69.5673535,13.6826631 68.8942287,14.9006042 68.1024724,16.1634585 L68.1024724,16.2515236 C68.0444747,16.2805851 68.000537,16.3246177 67.9706594,16.3836214 L68.0594135,16.2955562 C65.7447783,19.8472238 62.3325807,23.8101557 57.821942,28.1843518 L58.3500725,30.9143716 L60.766643,28.4925799 C61.0592677,28.1693808 61.4257077,27.964189 61.8650841,27.8761238 C64.4125889,27.3186714 66.1270358,27.7880586 67.0057887,29.2851662 C68.0022945,30.3419481 68.1481675,32.1622548 67.4451652,34.7452057 C67.3274123,35.1265278 67.1376017,35.4638174 66.8739758,35.757955 L60.4151418,42.4509066 L65.2043452,68.6502896 C65.2623429,69.0615538 65.219284,69.4728181 65.0725323,69.8823211 L65.0725323,69.9272343 C64.9266593,70.3085564 64.6621547,70.6317555 64.2825334,70.895951 L64.3704087,70.8519184 C64.0189075,71.1161138 63.6384075,71.2631827 63.2280299,71.2922442 L63.1823348,71.2922442 L56.4159373,71.7325699 C56.0644361,71.7616314 55.7278738,71.7035084 55.4053714,71.5564396 L55.3614338,71.5564396 C55.0398102,71.4093708 54.7603668,71.204179 54.5266185,70.9399835 L36.3803708,48.9236953 C33.7731109,51.3014545 31.2695438,53.4449603 28.8670333,55.3524515 L33.6122991,70.6326362 C33.7590508,71.0729619 33.7590508,71.5132877 33.6122991,71.9536135 C33.5244238,72.4230007 33.2897968,72.7902324 32.9092968,73.0544279 C32.5577956,73.3476848 32.1623568,73.5097247 31.7229803,73.5387862 L25.8792734,73.9782313 C25.4978947,74.0363543 25.1613323,73.9782313 24.8687076,73.802101 C24.5172064,73.7140359 24.2395205,73.5379056 24.0338923,73.2737101 L23.946017,73.1847643 L16.3448043,63.9828365 C14.8219255,64.7745422 13.3719831,65.464973 11.9949773,66.0523676 C11.4088491,66.2875015 10.8385385,66.2875015 10.2814091,66.0523676 L10.3253468,66.0523676 C9.79809503,65.8762373 9.41759502,65.5829803 9.18296799,65.171716 C8.89034327,64.9365821 8.67065504,64.6292347 8.5239033,64.2470319 L8.5239033,64.2910645 C8.26027742,63.7036699 8.24533862,63.1321271 8.47996565,62.573794 C8.97821856,61.1356901 9.60740565,59.6535536 10.3692844,58.1265038 L0.878752918,50.8170961 C0.586128196,50.5819622 0.366439967,50.2878245 0.219688229,49.9364446 C0.0729364922,49.6132455 0,49.2759559 0,48.9236953 L0.219688229,43.0673627 C0.248687076,42.6270369 0.395438813,42.2157726 0.659064688,41.8344505 C0.922690563,41.4531284 1.27419173,41.188933 1.71356819,41.0418642 C2.12306705,40.895676 2.57738231,40.8807049 3.07563521,40.9978316 L3.03169757,40.9978316 L18.4538113,45.1809263 C20.2701935,42.6860406 22.2913253,40.0881185 24.5172064,37.3871603 L1.88931877,20.1263903 C1.59669405,19.8912564 1.37700582,19.6270609 1.23025408,19.333804 L1.23025408,19.2897714 C1.08350235,18.9375108 1.01056586,18.6002212 1.01056586,18.2770221 L1.14237879,11.4960054 C1.14237879,11.0556796 1.27419173,10.6593864 1.53781761,10.3071258 C1.77244463,9.98392669 2.08000816,9.71973124 2.46050817,9.51453943 L2.50444581,9.51453943 C2.88494583,9.33840912 3.28038464,9.26531505 3.69076225,9.29437655 L3.7346999,9.29437655 L30.0533498,13.0371455 L36.4243084,6.30016135 L36.5121837,6.30016135 C36.7758096,6.00690439 37.0833731,5.83077409 37.4348743,5.77177043 L37.3909366,5.77177043 C39.9393201,4.97918406 41.7557024,5.05315879 42.8392047,5.99193332 C44.3620835,6.72551604 44.9042741,8.41372502 44.4648976,11.0556796 C44.4068999,11.4669439 44.2162106,11.8332949 43.894587,12.156494 L41.6089506,14.6663509 L44.4648976,15.0626441 C48.6240352,10.3361873 52.4474891,6.74048712 55.933502,4.27466284 L55.9774396,4.27466284 C56.0064384,4.24560134 56.0653149,4.21565918 56.1531902,4.18659768 C57.2068149,3.42307281 58.2613184,2.76258416 59.3158219,2.20513174 C59.3738196,2.17607024 59.4476349,2.16109917 59.5355102,2.16109917 C63.3721454,0.135600652 66.8142206,-0.465884342 69.8608569,0.355763534 L69.9047946,0.39979611 Z M66.25797,6.2120962 C66.6085924,6.71142561 66.9170347,7.23981653 67.1806605,7.79726895 C67.4442864,6.62336046 67.531283,5.55160755 67.4442864,4.58289087 C66.4776582,4.49482572 65.4670924,4.62692345 64.4125889,4.97918406 C64.7930889,5.12625286 65.1744676,5.28741209 65.5549676,5.4635424 L65.4670924,5.4635424 C65.8185935,5.66873421 66.0822194,5.91883924 66.25797,6.2120962 Z M57.9976926,8.41372502 C54.7173079,10.7624226 51.1293598,14.1969636 47.2329693,18.7173479 C47.1152164,18.8644167 46.9983423,19.0106049 46.8814681,19.1576737 L46.9254058,19.0255759 C45.3137729,20.9040056 43.6300824,22.9594463 41.8725765,25.1901366 L41.8286389,25.2341692 C41.79964,25.2632307 41.7557024,25.3072633 41.6977047,25.3662669 L41.6977047,25.4102995 C37.1861872,29.960626 33.1448025,34.2899089 29.5709144,38.3999096 C29.5709144,38.4589132 29.5559756,38.4888554 29.5269768,38.4888554 C29.4979779,38.5179169 29.4540403,38.5619494 29.3951638,38.6200724 L29.3503474,38.6200724 C29.3503474,38.6790761 29.3354086,38.7090183 29.3064098,38.7090183 L29.3064098,38.7521702 C29.277411,38.7521702 29.2624722,38.7671413 29.2624722,38.7962028 C26.1868369,42.3769319 23.5066405,45.7973824 21.221883,49.0557931 C21.1340077,49.1729197 21.0311936,49.290927 20.9143194,49.407173 C18.6884383,52.5193955 16.8281184,55.4986396 15.3342384,58.345786 L15.3342384,58.3898186 C15.2463631,58.5368874 15.1584878,58.6681045 15.0706125,58.7861118 C14.9238608,59.0793688 14.7779878,59.4025679 14.6312361,59.7548285 C14.9238608,59.5496367 15.2463631,59.3594159 15.5978643,59.1832856 C15.6268631,59.0943398 15.6857396,59.0511879 15.7736149,59.0511879 C15.7736149,59.0221264 15.7885537,59.0071553 15.8175525,59.0071553 C18.6585607,57.3638596 21.6612594,55.3084189 24.8247699,52.8425946 L24.8687076,52.8425946 C24.8687076,52.7844716 24.8836464,52.7404391 24.9126452,52.7104969 C28.1051546,50.2737341 31.4742932,47.3975262 35.0183038,44.0801119 L35.1061791,44.0360793 L35.1501167,43.9920468 C39.1045048,40.2343067 43.2636424,36.0071794 47.6284081,31.3106648 C47.657407,31.2525418 47.7162834,31.1935381 47.8041587,31.1345345 C47.8331576,31.0755308 47.8621564,31.0174078 47.892034,30.9584041 C50.0599175,29.1680396 52.0511716,27.4507691 53.8675538,25.8065927 L53.9563079,25.674495 C58.3500725,21.5063713 61.6893336,17.7045986 63.9732124,14.2700577 C63.8853371,12.1855555 63.5048371,10.4973465 62.8308336,9.2063114 C61.5127042,8.64885898 59.9019501,8.38466352 57.9976926,8.41372502 Z M39.2802554,9.91083262 L35.5894932,13.8297319 L36.2485578,13.8737645 L40.071133,9.73470231 C39.8655049,9.79370596 39.601879,9.85182897 39.2802554,9.91083262 Z M50.747981,34.5250428 C46.9113457,38.664105 43.2205835,42.4359355 39.6756942,45.841415 L57.2946902,67.1972145 L60.3703254,66.9330191 L55.8886856,42.406874 C55.8008103,42.1717401 55.7577514,41.9515772 55.7577514,41.7463854 L54.7902444,36.2863459 C54.7612456,36.1982807 54.7463068,36.124306 54.7463068,36.066183 C54.7463068,36.0071794 54.7463068,35.9631468 54.7463068,35.9340853 L54.7463068,35.8900527 L53.9554291,31.7069579 C52.9589233,32.616671 51.9193586,33.5413551 50.8349775,34.4810103 C50.7769798,34.4810103 50.747981,34.4959813 50.747981,34.5250428 Z M59.4476349,36.9468345 L63.1823348,33.1160004 C63.2403325,32.7928013 63.2992089,32.5136347 63.3572066,32.2793814 L59.3588808,36.3303785 L59.4476349,36.9468345 Z M40.9938236,19.1576737 L30.7124145,17.7045986 C30.6245392,17.7045986 30.5656627,17.7045986 30.5366639,17.7045986 L5.58008103,14.13796 L5.53614338,17.2642729 L27.5049663,34.0406845 C30.7563521,30.3128866 34.3882379,26.4230488 38.4015025,22.3720517 C39.2512566,21.2562663 40.1150707,20.185394 40.9938236,19.1576737 Z M20.2552547,61.6050773 L26.7140887,69.3548108 L28.5155322,69.2667456 L25.0883958,58.3026341 C23.4477641,59.4765426 21.83701,60.577357 20.2552547,61.6050773 Z M15.7296772,49.0998256 L4.56951517,46.1056104 L4.52557753,47.9109461 L12.5661667,54.1195393 C13.4739185,52.5044244 14.528422,50.8320672 15.7296772,49.0998256 Z" id="Shape"></path>
        </g>
    </g>
</svg>