<svg id="Layer_1" data-name="Layer 1" xmlns="http://www.w3.org/2000/svg" viewBox="0 0 68 84"><defs><style>.cls-1{fill:#ff553f;}.cls-2{fill:none;stroke-linecap:round;stroke-width:4px;}.cls-2,.cls-3{stroke:#000;stroke-linejoin:round;}.cls-3{stroke-width:1.07px;}</style></defs><title>4-46-Arrivals</title><polygon id="Fill-1" class="cls-1" points="9 67.1 59 67.1 59 18 9 18 9 67.1"/><polygon id="Stroke-2" class="cls-2" points="2 82 66 82 66 2 2 2 2 82"/><path id="Stroke-3" class="cls-2" d="M11,8a2,2,0,1,1-2,2A2,2,0,0,1,11,8Z"/><polygon id="Stroke-5" class="cls-2" points="9 67.1 59 67.1 59 18 9 18 9 67.1"/><path id="Stroke-6" class="cls-2" d="M9,74H34"/><path id="Stroke-9" class="cls-2" d="M19,10H34"/><path class="cls-3" d="M26.79,26.41h2a.58.58,0,0,1,.26.06l3.72,1.6a.66.66,0,0,1,.35.85l-.78,1.94a.67.67,0,0,1-.69.41l-2-.23a.67.67,0,0,0-.74.66v7.2a.66.66,0,0,1-.66.65H21.94a.66.66,0,0,1-.66-.65V31.7a.66.66,0,0,0-.73-.66l-2,.23a.66.66,0,0,1-.69-.41l-.78-1.94a.65.65,0,0,1,.35-.85l3.72-1.6a.58.58,0,0,1,.26-.06h5.37Z"/><circle class="cls-1" cx="25.09" cy="25.31" r="1.61"/><path d="M44.69,35.31h-6a2.33,2.33,0,0,1,0-4.65h6a2.33,2.33,0,0,1,0,4.65Z"/><path d="M44.61,37.29l6.67-3.85a.53.53,0,0,0,0-.92l-6.67-3.84a.52.52,0,0,0-.79.45v7.7A.53.53,0,0,0,44.61,37.29Z"/><path d="M27.09,46.84h2.64V57.33H27.09Z"/><path d="M31.74,46.84h2.45l3.9,5.54V46.84h2.6V57.33H38.38l-4-5.76v5.76h-2.6Z"/></svg>