<?xml version="1.0" encoding="UTF-8"?>
<svg width="84px" height="84px" viewBox="0 0 84 84" version="1.1" xmlns="http://www.w3.org/2000/svg" xmlns:xlink="http://www.w3.org/1999/xlink">
    <!-- Generator: Sketch 52.3 (67297) - http://www.bohemiancoding.com/sketch -->
    <title>Artboard</title>
    <desc>Created with Sketch.</desc>
    <g id="Artboard" stroke="none" stroke-width="1" fill="none" fill-rule="evenodd">
        <g id="backdrops" transform="translate(2.000000, 8.000000)">
            <polyline id="Path" fill="#FF553F" points="50.6095238 58.3333333 80 58.3333333 80 0.0761904762 0 0.0761904762 0 58.5714286"></polyline>
            <path d="M59.5238095,31.7714286 C65.7337211,32.9007044 71.7859411,29.1295178 73.5086022,23.0573925 C75.2312633,16.9852673 72.0610839,10.5976873 66.1833066,8.29768744 C60.3055292,5.9976876 53.6420891,8.53732958 50.7861749,14.1660079 C47.9302606,19.7946863 49.8157086,26.6719169 55.1428571,30.0571429" id="Path" fill="#FFFFFF"></path>
            <polyline id="Path" fill="#FFFFFF" points="55.1428571 30.0571429 53.1333333 34.3428571 59.5238095 31.7619048"></polyline>
            <path d="M59.5238095,31.7714286 C65.7337211,32.9007044 71.7859411,29.1295178 73.5086022,23.0573925 C75.2312633,16.9852673 72.0610839,10.5976873 66.1833066,8.29768744 C60.3055292,5.9976876 53.6420891,8.53732958 50.7861749,14.1660079 C47.9302606,19.7946863 49.8157086,26.6719169 55.1428571,30.0571429" id="Path" stroke="#000000" stroke-width="4" stroke-linecap="round" stroke-linejoin="round"></path>
            <polyline id="Path" stroke="#000000" stroke-width="4" stroke-linecap="round" stroke-linejoin="round" points="55.1428571 30.0571429 53.1333333 34.3428571 59.5238095 31.7619048"></polyline>
            <path d="M58.3714286,16.9047619 L66.1047619,16.9047619" id="Path" stroke="#000000" stroke-width="4" stroke-linecap="round" stroke-linejoin="round"></path>
            <path d="M57.3714286,23.2190476 L66.8666667,23.2190476" id="Path" stroke="#000000" stroke-width="4" stroke-linecap="round" stroke-linejoin="round"></path>
            <polygon id="Path" stroke="#000000" stroke-width="4" stroke-linecap="round" stroke-linejoin="round" points="0 49.0380952 0 0.0761904762 80 0.0761904762 80 58.3333333 0 58.3333333"></polygon>
            <path d="M57.5809524,67.6190476 L55.9619048,55.3809524 L44.9047619,50.6190476 L44.1142857,49.6666667 L39.4380952,46.5714286 L37.6285714,46.5714286 C37.3642202,46.2478001 37.2136281,45.8462211 37.2,45.4285714 C38.4260709,44.1596253 39.2394894,42.5493887 39.5333333,40.8095238 C40.1809524,36.8952381 40.952381,32.2380952 41.1714286,30.9809524 C41.1714286,30.8571429 41.1714286,30.7333333 41.1714286,30.6095238 L41.447619,27.8761905 C41.7238095,25.1428571 41.447619,21.752381 39.6571429,19.7142857 C37.8666667,17.6761905 34.8952381,17.2666667 32.3047619,17.2095238 L31.4285714,16.6190476 L30.4761905,17.2952381 C28.0761905,17.447619 25.5238095,18.0666667 23.9904762,19.7619048 C22.1428571,21.8 21.9238095,25.1904762 22.1904762,27.9238095 L22.4666667,30.6571429 C22.4666667,30.7809524 22.4666667,30.9047619 22.4666667,31.0285714 C22.6761905,32.2952381 23.4190476,36.9428571 24.1047619,40.8571429 C24.3953668,42.5960915 25.2054846,44.2063667 26.4285714,45.4761905 C26.4262141,45.8988625 26.2744005,46.3070725 26,46.6285714 L19.5238095,49.0380952 L18.5142857,50.5714286 L7.33333333,55.3333333 L5.71428571,67.6190476 L57.5809524,67.6190476 Z" id="Path" fill="#FFFFFF"></path>
            <path d="M20.3333333,35.552381 C20.4132759,36.167963 20.7881694,36.7059748 21.3379762,36.9941494 C21.887783,37.282324 22.5435246,37.2845072 23.0952381,37 L21.9047619,31.0380952 C21.4360845,30.8104771 20.8803616,30.858006 20.4571429,31.1619048 C20.0367208,31.463135 19.8198629,31.9740377 19.8952381,32.4857143 C20,33.4571429 20.1904762,34.5714286 20.3333333,35.552381 Z" id="Path" fill="#FFFFFF"></path>
            <path d="M40.5333333,37 C41.0827821,37.2846504 41.7362655,37.2846504 42.2857143,37 C42.8339128,36.7156229 43.2102166,36.1831175 43.2952381,35.5714286 C43.4380952,34.6190476 43.6,33.4761905 43.7333333,32.4952381 C43.8087086,31.9835615 43.5918506,31.4726588 43.1714286,31.1714286 C42.7519235,30.8671786 42.1986674,30.8195473 41.7333333,31.047619 L40.5333333,37.0095238 L40.5333333,37 Z" id="Path" fill="#FFFFFF"></path>
            <polyline id="Path" stroke="#000000" stroke-width="4" stroke-linecap="round" stroke-linejoin="round" points="22.0666667 49.0380952 7.33333333 55.3809524 5.71428571 67.6190476"></polyline>
            <polyline id="Path" stroke="#000000" stroke-width="4" stroke-linecap="round" stroke-linejoin="round" points="41.2190476 49.0380952 55.9619048 55.3809524 57.5809524 67.6190476"></polyline>
            <path d="M31.8285714,17.2380952 C29.0857143,17.2380952 25.8,17.7333333 23.9619048,19.7619048 C22.1238095,21.7904762 21.8952381,25.1904762 22.1619048,27.9238095 L22.4380952,30.6571429" id="Stroke-1" stroke="#000000" stroke-width="4" stroke-linecap="round" stroke-linejoin="round"></path>
            <path d="M31.8285714,17.2380952 C34.5809524,17.2380952 37.8666667,17.7333333 39.7047619,19.7619048 C41.5428571,21.7904762 41.7714286,25.1904762 41.4952381,27.9238095 L41.2190476,30.6571429" id="Stroke-3" stroke="#000000" stroke-width="4" stroke-linecap="round" stroke-linejoin="round"></path>
            <path d="M22.4380922,30.3142857 C22.4378158,30.5409 22.4569332,30.7671225 22.4952381,30.9904762 C22.7047619,32.2571429 23.447619,36.9047619 24.1333333,40.8190476 C24.7302541,44.389399 27.4700852,47.2201789 31.0190476,47.9333333 C31.5504446,48.0380628 32.0971744,48.0380628 32.6285714,47.9333333 C36.1812389,47.2236914 38.9255837,44.3921644 39.5238095,40.8190476 C40.1714286,36.9047619 40.9428571,32.247619 41.1619048,30.9904762 C41.1923079,30.7663385 41.208214,30.5404722 41.2095238,30.3142857" id="Stroke-4" stroke="#000000" stroke-width="4" stroke-linecap="round" stroke-linejoin="round"></path>
            <path d="M37.2,45.4190476 C37.2137137,46.2129549 37.7184792,46.9150722 38.4666667,47.1809524 C39.4829301,47.659675 40.4129568,48.3032921 41.2190476,49.0857143 C41.2190476,49.0857143 39.7333333,56.8380952 31.8285714,56.8380952 C23.9238095,56.8380952 22.0666667,49.0857143 22.0666667,49.0857143 C23.0288562,48.329363 24.07747,47.6899643 25.1904762,47.1809524 C25.942416,46.9182488 26.4514977,46.2154122 26.4666667,45.4190476" id="Stroke-11" stroke="#000000" stroke-width="4" stroke-linecap="round" stroke-linejoin="round"></path>
            <path d="M21.9047619,31.0380952 C21.4360845,30.8104771 20.8803616,30.858006 20.4571429,31.1619048 C20.0367208,31.463135 19.8198629,31.9740377 19.8952381,32.4857143 C20.0380952,33.4380952 20.1904762,34.5809524 20.3333333,35.5619048 C20.4132759,36.1774868 20.7881694,36.7154986 21.3379762,37.0036732 C21.887783,37.2918478 22.5435246,37.294031 23.0952381,37.0095238" id="Stroke-15" stroke="#000000" stroke-width="3.56" stroke-linecap="round" stroke-linejoin="round"></path>
            <path d="M41.7333333,31.0380952 C42.1986674,30.8100235 42.7519235,30.8576548 43.1714286,31.1619048 C43.5918506,31.463135 43.8087086,31.9740377 43.7333333,32.4857143 C43.6,33.4380952 43.4380952,34.5809524 43.2952381,35.5619048 C43.2102166,36.1735937 42.8339128,36.7060991 42.2857143,36.9904762 C41.7362655,37.2751266 41.0827821,37.2751266 40.5333333,36.9904762" id="Stroke-16" stroke="#000000" stroke-width="3.56" stroke-linecap="round" stroke-linejoin="round"></path>
            <path d="M41.2190476,28.7238095 C39.12533,27.7229335 37.198031,26.4059458 35.5047619,24.8190476 C31.4129761,26.8159696 26.9851348,28.0335453 22.447619,28.4095238" id="Path" stroke="#000000" stroke-width="4" stroke-linecap="round" stroke-linejoin="round"></path>
        </g>
    </g>
</svg>