<svg xmlns="http://www.w3.org/2000/svg" xmlns:xlink="http://www.w3.org/1999/xlink" width="84" height="76" viewBox="0 0 84 76"><defs><path id="22gua" d="M70 46H58l-1.5 1s-3.22 1.3-3.46 3H53v-6.5a3.5 3.5 0 1 0-7 0V46H14V30h56z"/><path id="22gub" d="M67 66h15V6H2v60h37"/><path id="22guc" d="M2 18h80"/><path id="22gud" d="M8 12h2"/><path id="22gue" d="M16 12h2"/><path id="22guf" d="M24 12h2"/><path id="22gug" d="M36 12h38"/><path id="22guh" d="M18 34h14"/><path id="22gui" d="M18 42h8"/><path id="22guj" d="M60 50h14V26H10v24h36"/><path id="22guk" d="M46 62V43.5a3.5 3.5 0 1 1 7 0V58"/><path id="22gul" d="M53 58v-7.5a3.5 3.5 0 1 1 7 0V58"/><path id="22gum" d="M60 61v-7.5a3.5 3.5 0 1 1 7 0v10.14a10 10 0 0 1-1.06 4.47l-1.2 2.42a6.95 6.95 0 0 0-.74 3.11A4.36 4.36 0 0 1 59.64 78h-9.21A4.43 4.43 0 0 1 46 73.57c0-.37-.13-.72-.38-1l-6.36-7.15A5 5 0 0 1 38 62.1v-2.2a5 5 0 0 1 3.79-4.85L46 54"/><path id="22gun" d="M39 42a9 9 0 0 1 9-9h3a9 9 0 0 1 9 9"/></defs><g><g transform="translate(0 -4)"><g><use fill="#ff553f" xlink:href="#22gua"/></g><g><use fill="#fff" fill-opacity="0" stroke="#000" stroke-linecap="round" stroke-linejoin="round" stroke-miterlimit="50" stroke-width="4" xlink:href="#22gub"/></g><g><use fill="#fff" fill-opacity="0" stroke="#000" stroke-linecap="round" stroke-linejoin="round" stroke-miterlimit="50" stroke-width="4" xlink:href="#22guc"/></g><g><use fill="#fff" fill-opacity="0" stroke="#000" stroke-linecap="round" stroke-linejoin="round" stroke-miterlimit="50" stroke-width="4" xlink:href="#22gud"/></g><g><use fill="#fff" fill-opacity="0" stroke="#000" stroke-linecap="round" stroke-linejoin="round" stroke-miterlimit="50" stroke-width="4" xlink:href="#22gue"/></g><g><use fill="#fff" fill-opacity="0" stroke="#000" stroke-linecap="round" stroke-linejoin="round" stroke-miterlimit="50" stroke-width="4" xlink:href="#22guf"/></g><g><use fill="#fff" fill-opacity="0" stroke="#000" stroke-linecap="round" stroke-linejoin="round" stroke-miterlimit="50" stroke-width="4" xlink:href="#22gug"/></g><g><use fill="#fff" fill-opacity="0" stroke="#000" stroke-linecap="round" stroke-linejoin="round" stroke-miterlimit="50" stroke-width="4" xlink:href="#22guh"/></g><g><use fill="#fff" fill-opacity="0" stroke="#000" stroke-linecap="round" stroke-linejoin="round" stroke-miterlimit="50" stroke-width="4" xlink:href="#22gui"/></g><g><use fill="#fff" fill-opacity="0" stroke="#000" stroke-linecap="round" stroke-linejoin="round" stroke-miterlimit="50" stroke-width="4" xlink:href="#22guj"/></g><g><use fill="#fff" fill-opacity="0" stroke="#000" stroke-linecap="round" stroke-linejoin="round" stroke-miterlimit="50" stroke-width="4" xlink:href="#22guk"/></g><g><use fill="#fff" fill-opacity="0" stroke="#000" stroke-linecap="round" stroke-linejoin="round" stroke-miterlimit="50" stroke-width="4" xlink:href="#22gul"/></g><g><use fill="#fff" fill-opacity="0" stroke="#000" stroke-linecap="round" stroke-linejoin="round" stroke-miterlimit="50" stroke-width="4" xlink:href="#22gum"/></g><g><use fill="#fff" fill-opacity="0" stroke="#000" stroke-linecap="round" stroke-linejoin="round" stroke-miterlimit="50" stroke-width="4" xlink:href="#22gun"/></g></g></g></svg>