<?xml version="1.0" encoding="UTF-8"?>
<svg width="84px" height="84px" viewBox="0 0 84 84" version="1.1" xmlns="http://www.w3.org/2000/svg" xmlns:xlink="http://www.w3.org/1999/xlink">
    <!-- Generator: Sketch 52.3 (67297) - http://www.bohemiancoding.com/sketch -->
    <title>Artboard</title>
    <desc>Created with Sketch.</desc>
    <g id="Artboard" stroke="none" stroke-width="1" fill="none" fill-rule="evenodd">
        <g id="betting-competition" transform="translate(5.000000, 9.000000)">
            <rect id="Rectangle" fill="#FF553F" x="10.49" y="47.32" width="12.02" height="11.93"></rect>
            <rect id="Rectangle" fill="#FF553F" x="51.49" y="47.32" width="12.02" height="11.93"></rect>
            <rect id="Rectangle" fill="#FF553F" x="0" y="0" width="74" height="13.49"></rect>
            <g id="Page-1" transform="translate(0.000000, 13.000000)" stroke="#000000" stroke-linecap="round" stroke-linejoin="round" stroke-width="4">
                <g id="Icons:-Main">
                    <g id="bigboard-front">
                        <polygon id="Stroke-1" points="0 53 74 53 74 0.49 0 0.49"></polygon>
                    </g>
                </g>
            </g>
            <path d="M16.5,40.86 C11.1393435,39.1066505 7.50989096,34.1101041 7.5,28.47 L7.5,20.55 L25.5,20.55 L25.5,28.47 C25.4869889,34.109087 21.8587245,39.1039978 16.5,40.86 Z" id="Path" stroke="#000000" stroke-width="4" stroke-linecap="round" stroke-linejoin="round"></path>
            <path d="M57.5,40.86 C52.1412755,39.1039978 48.5130111,34.109087 48.5,28.47 L48.5,20.55 L66.5,20.55 L66.5,28.47 C66.490109,34.1101041 62.8606565,39.1066505 57.5,40.86 Z" id="Path" stroke="#000000" stroke-width="4" stroke-linecap="round" stroke-linejoin="round"></path>
            <ellipse id="Oval" fill="#000000" cx="37" cy="50.19" rx="1.88" ry="1.91"></ellipse>
            <ellipse id="Oval" fill="#000000" cx="37" cy="56.38" rx="1.88" ry="1.91"></ellipse>
            <rect id="Rectangle" stroke="#000000" stroke-width="4" stroke-linecap="round" stroke-linejoin="round" x="0" y="0" width="74" height="13.49"></rect>
            <rect id="Rectangle" stroke="#000000" stroke-width="4" stroke-linecap="round" stroke-linejoin="round" x="10.49" y="47.32" width="12.02" height="11.93"></rect>
            <rect id="Rectangle" stroke="#000000" stroke-width="4" stroke-linecap="round" stroke-linejoin="round" x="51.49" y="47.32" width="12.02" height="11.93"></rect>
            <path d="M33.45,27.89 L34.09,30.38 C34.21,30.85 34.29,31.3 34.37,31.76 C34.44,31.29 34.52,30.87 34.64,30.38 L35.22,27.89 L37.49,27.89 L35.34,33.75 L33.2,33.75 L31.1,27.89 L33.45,27.89 Z" id="Path" stroke="#000000" stroke-width="0.5" fill="#000000" stroke-linejoin="round"></path>
            <path d="M38.54,31.94 C39.0458394,32.2009688 39.6015497,32.3509765 40.17,32.38 C40.64,32.38 40.82,32.29 40.82,32.06 C40.82,31.83 40.69,31.76 40.05,31.56 C38.75,31.16 38.3,30.45 38.31,29.77 C38.31,28.61 39.31,27.77 40.88,27.77 C41.4800708,27.7665653 42.0748692,27.8821261 42.63,28.11 L42.28,29.56 C41.8722475,29.3679754 41.430297,29.2591876 40.98,29.24 C40.61,29.24 40.39,29.33 40.39,29.57 C40.39,29.81 40.58,29.88 41.28,30.11 C42.44,30.47 42.88,31.11 42.9,31.91 C42.9,33.03 42.02,33.91 40.2,33.91 C39.5104368,33.920041 38.8272735,33.7765767 38.2,33.49 L38.54,31.94 Z" id="Path" stroke="#000000" stroke-width="0.5" fill="#000000" stroke-linejoin="round"></path>
            <path d="M7.5,20.55 L22.14,37.18" id="Path" stroke="#000000" stroke-width="4" stroke-linecap="round" stroke-linejoin="round"></path>
            <path d="M48.5,28.47 L66.5,28.47" id="Path" stroke="#000000" stroke-width="4" stroke-linecap="round" stroke-linejoin="round"></path>
        </g>
    </g>
</svg>