<?xml version="1.0" encoding="UTF-8"?>
<svg width="84px" height="84px" viewBox="0 0 84 84" version="1.1" xmlns="http://www.w3.org/2000/svg" xmlns:xlink="http://www.w3.org/1999/xlink">
    <!-- Generator: Sketch 52.3 (67297) - http://www.bohemiancoding.com/sketch -->
    <title>Artboard</title>
    <desc>Created with Sketch.</desc>
    <g id="Artboard" stroke="none" stroke-width="1" fill="none" fill-rule="evenodd">
        <g id="boards-led-mini" transform="translate(2.000000, 12.000000)">
            <polygon id="Stroke-1" stroke="#000000" stroke-width="4" stroke-linecap="round" stroke-linejoin="round" points="0 60 80 60 80 34 0 34"></polygon>
            <polygon id="Fill-2" fill="#FF553F" points="56 54 72 54 72 40 56 40"></polygon>
            <polygon id="Stroke-3" stroke="#000000" stroke-width="4" stroke-linecap="round" stroke-linejoin="round" points="57 53 71 53 71 41 57 41"></polygon>
            <polyline id="Stroke-4" stroke="#000000" stroke-width="4" stroke-linecap="round" stroke-linejoin="round" points="6 40 12 47 6 54"></polyline>
            <polyline id="Stroke-5" stroke="#000000" stroke-width="4" stroke-linecap="round" stroke-linejoin="round" points="15 40 21 47 15 54"></polyline>
            <polyline id="Stroke-6" stroke="#000000" stroke-width="4" stroke-linecap="round" stroke-linejoin="round" points="24.14 40 30.14 47 24.14 54"></polyline>
            <polyline id="Stroke-7" stroke="#000000" stroke-width="4" stroke-linecap="round" stroke-linejoin="round" points="33.14 40 39.14 47 33.14 54"></polyline>
            <path d="M7,32 C7,32 7.52,26 7.89,21.57 C8.11374347,18.9777622 10.288142,16.9903619 12.89,17 L19.13,17 C21.731858,16.9903619 23.9062565,18.9777622 24.13,21.57 C24.48,26 25,32 25,32" id="Stroke-8" stroke="#000000" stroke-width="4" stroke-linecap="round" stroke-linejoin="round"></path>
            <path d="M7.64,26.33 L9.09,26.13 C13.6744581,25.4902894 18.3255419,25.4902894 22.91,26.13 L24.36,26.33" id="Stroke-9" stroke="#000000" stroke-width="4" stroke-linecap="round" stroke-linejoin="round"></path>
            <path d="M31,32 C31,32 31.52,26 31.89,21.57 C32.1137435,18.9777622 34.288142,16.9903619 36.89,17 L43.13,17 C45.731858,16.9903619 47.9062565,18.9777622 48.13,21.57 C48.48,26 49,32 49,32" id="Stroke-10" stroke="#000000" stroke-width="4" stroke-linecap="round" stroke-linejoin="round"></path>
            <path d="M31.64,26.33 L33.09,26.13 C37.6744581,25.4902894 42.3255419,25.4902894 46.91,26.13 L48.36,26.33" id="Stroke-11" stroke="#000000" stroke-width="4" stroke-linecap="round" stroke-linejoin="round"></path>
            <path d="M55,32 C55,32 55.52,26 55.89,21.57 C56.1137435,18.9777622 58.288142,16.9903619 60.89,17 L67.13,17 C69.731858,16.9903619 71.9062565,18.9777622 72.13,21.57 C72.48,26 73,32 73,32" id="Stroke-12" stroke="#000000" stroke-width="4" stroke-linecap="round" stroke-linejoin="round"></path>
            <path d="M55.64,26.33 L57.09,26.13 C61.6744581,25.4902894 66.3255419,25.4902894 70.91,26.13 L72.36,26.33" id="Stroke-13" stroke="#000000" stroke-width="4" stroke-linecap="round" stroke-linejoin="round"></path>
            <path d="M19,15 C19,15 19.52,9 19.89,4.57 C20.1137435,1.97776219 22.288142,-0.00963805279 24.89,8.8817842e-16 L31.13,8.8817842e-16 C33.731858,-0.00963805279 35.9062565,1.97776219 36.13,4.57 C36.48,9 37,15 37,15" id="Stroke-14" stroke="#000000" stroke-width="4" stroke-linecap="round" stroke-linejoin="round"></path>
            <path d="M19.64,9.33 L21.09,9.13 C25.6744581,8.49028944 30.3255419,8.49028944 34.91,9.13 L36.36,9.33" id="Stroke-15" stroke="#000000" stroke-width="4" stroke-linecap="round" stroke-linejoin="round"></path>
            <path d="M43,15 C43,15 43.52,9 43.89,4.57 C44.1137435,1.97776219 46.288142,-0.00963805279 48.89,8.8817842e-16 L55.13,8.8817842e-16 C57.731858,-0.00963805279 59.9062565,1.97776219 60.13,4.57 C60.48,9 61,15 61,15" id="Stroke-16" stroke="#000000" stroke-width="4" stroke-linecap="round" stroke-linejoin="round"></path>
            <path d="M43.64,9.33 L45.09,9.13 C49.6744581,8.49028944 54.3255419,8.49028944 58.91,9.13 L60.36,9.33" id="Stroke-17" stroke="#000000" stroke-width="4" stroke-linecap="round" stroke-linejoin="round"></path>
        </g>
    </g>
</svg>