<?xml version="1.0" encoding="UTF-8"?>
<svg width="80px" height="80px" viewBox="0 0 80 80" version="1.1" xmlns="http://www.w3.org/2000/svg" xmlns:xlink="http://www.w3.org/1999/xlink">
    <!-- Generator: Sketch 52.3 (67297) - http://www.bohemiancoding.com/sketch -->
    <title>Artboard</title>
    <desc>Created with Sketch.</desc>
    <g id="Artboard" stroke="none" stroke-width="1" fill="none" fill-rule="evenodd">
        <g id="buses" transform="translate(0.000000, 19.000000)">
            <path d="M75.3577895,18.7894737 L21.2525263,18.7894737 L21.2525263,4.2 L65.4104211,4.2 C70.902,4.20631579 75.3525263,8.65578947 75.3577895,14.1473684 L75.3577895,18.7894737 Z M17.5788421,18.7894737 L4.19989474,18.7894737 L4.19989474,14.4947368 C4.20621053,8.84105263 8.78831579,4.25894737 14.442,4.25263158 L17.5998947,4.25263158 L17.5998947,18.7894737 L17.5788421,18.7894737 Z M65.4104211,0.526315789 L14.442,0.526315789 C6.75042105,0.532631579 0.520947368,6.77157895 0.526210526,14.4631579 L0.526210526,14.4947368 L0.526207194,41.3368421 L9.70515789,41.3368421 C9.40726316,40.1315789 9.36094737,38.8768421 9.56831579,37.6526316 L4.19989474,37.6526316 L4.19989474,22.4631579 L75.3577895,22.4631579 L75.3577895,37.6526316 L71.1472632,37.6526316 C71.2230526,38.1357895 71.262,38.6252632 71.2630526,39.1157895 C71.2588421,39.86 71.1746316,40.6010526 71.0104211,41.3263158 L78.9998947,41.3263158 L78.9998947,14.1473684 C78.9662105,6.65157895 72.9072632,0.577894737 65.4104211,0.526315789 Z" id="Fill-1" fill="#000000" fill-rule="nonzero"></path>
            <path d="M75.3577895,18.7894737 L21.2525263,18.7894737 L21.2525263,4.2 L65.4104211,4.2 C70.902,4.20631579 75.3525263,8.65578947 75.3577895,14.1473684 L75.3577895,18.7894737 Z M17.5788421,18.7894737 L4.19989474,18.7894737 L4.19989474,14.4947368 C4.20621053,8.84105263 8.78831579,4.25894737 14.442,4.25263158 L17.5998947,4.25263158 L17.5998947,18.7894737 L17.5788421,18.7894737 Z M65.4104211,0.526315789 L14.442,0.526315789 C6.75042105,0.532631579 0.520947368,6.77157895 0.526210526,14.4631579 L0.526210526,14.4947368 L0.526207194,41.3368421 L9.70515789,41.3368421 C9.40726316,40.1315789 9.36094737,38.8768421 9.56831579,37.6526316 L4.19989474,37.6526316 L4.19989474,22.4631579 L75.3577895,22.4631579 L75.3577895,37.6526316 L71.1472632,37.6526316 C71.2230526,38.1357895 71.262,38.6252632 71.2630526,39.1157895 C71.2588421,39.86 71.1746316,40.6010526 71.0104211,41.3263158 L78.9998947,41.3263158 L78.9998947,14.1473684 C78.9662105,6.65157895 72.9072632,0.577894737 65.4104211,0.526315789 Z" id="Stroke-3" stroke="#000000"></path>
            <path d="M71.2952632,41.2837895 C70.8289474,40.6385263 70.5657895,39.8690526 70.5363158,39.0732632 C70.5594737,38.5806316 70.6805263,38.0974737 70.8942105,37.6532632 L4.57947368,37.6532632 C4.79842105,38.1101053 4.92052632,38.608 4.93631579,39.1153684 C4.91315789,39.9122105 4.64894737,40.6827368 4.17947368,41.3258947 L71.2952632,41.2837895 Z" id="Fill-5" fill="#000000"></path>
            <path d="M71.2952632,41.2837895 C70.8289474,40.6385263 70.5657895,39.8690526 70.5363158,39.0732632 C70.5594737,38.5806316 70.6805263,38.0974737 70.8942105,37.6532632 L4.57947368,37.6532632 C4.79842105,38.1101053 4.92052632,38.608 4.93631579,39.1153684 C4.91315789,39.9122105 4.64894737,40.6827368 4.17947368,41.3258947 L71.2952632,41.2837895 Z" id="Stroke-7" stroke="#000000"></path>
        </g>
        <path d="M19.1263158,50 C23.613941,50 27.2526316,53.6386136 27.2526316,58.126144 C27.2526316,62.6136744 23.613941,66.2536842 19.1263158,66.2536842 C14.6386905,66.2536842 11,62.6136744 11,58.126144 C11,53.6386136 14.6386905,50 19.1263158,50" id="Fill-9" fill="#000000"></path>
        <path d="M61.1263158,50 C65.613941,50 69.2526316,53.6386136 69.2526316,58.126144 C69.2526316,62.6136744 65.613941,66.2536842 61.1263158,66.2536842 C56.6386905,66.2536842 53,62.6136744 53,58.126144 C53,53.6386136 56.6386905,50 61.1263158,50" id="Fill-9-Copy" fill="#000000"></path>
    </g>
</svg>