<?xml version="1.0" encoding="UTF-8"?>
<svg width="84px" height="84px" viewBox="0 0 84 84" version="1.1" xmlns="http://www.w3.org/2000/svg" xmlns:xlink="http://www.w3.org/1999/xlink">
    <!-- Generator: Sketch 52.3 (67297) - http://www.bohemiancoding.com/sketch -->
    <title>Artboard</title>
    <desc>Created with Sketch.</desc>
    <g id="Artboard" stroke="none" stroke-width="1" fill="none" fill-rule="evenodd">
        <g id="campaign" transform="translate(10.000000, 2.000000)">
            <path d="M37.76,44 C38.76,44 39.76,43.93 40.76,43.83 C40.37,43.83 39.97,43.83 39.57,43.77 L37.75,43.77 L37.76,44 Z" id="Path"></path>
            <path d="M27.52,18.32 L27.32,18.32 C23.1798339,18.6918254 19.1165904,19.6688906 15.26,21.22 L19.68,41.77 C23.6657724,39.3914213 28.0128529,37.678935 32.55,36.7 C34.7085588,36.2607719 36.9073013,36.0496122 39.11,36.07 L35.05,18.07 L31.51,18.07 C30.3,18.1 29,18.18 27.52,18.32 Z" id="Path"></path>
            <path d="M46.83,42.67 L48,42.33 C50.1168112,41.7000881 52.1967272,40.9522531 54.23,40.09 C55.78,39.42 57.1,38.79 58.07,38.28 L57.07,34.05 L53.85,19.7 C51.4786377,20.6510264 49.0382358,21.4199202 46.55,22 C45.68,22.2 44.79,22.4 43.89,22.57 L47.63,39.18 C47.9061944,40.4044565 47.6119499,41.6880981 46.83,42.67 Z" id="Path"></path>
            <path d="M64.64,39.51 L58.85,14.06 C58.7063705,13.3803791 58.2967612,12.7864906 57.7125125,12.410768 C57.1282639,12.0350454 56.4179621,11.9087338 55.74,12.06 C55.4984547,12.1122264 55.2659465,12.1998383 55.05,12.32 C50.898789,14.5126472 46.4158892,16.0091993 41.78,16.75 L41.07,16.87 L40.44,14.07 C40.1826522,12.978424 39.2567361,12.1732795 38.14,12.07 C35.86,11.87 23.93,11.07 13.38,15.36 L12.55,15.69 L11.78,12.4 L12.12,12.11 C13.63,10.84 3.72,13.26 6.95,13.75 L7.46,13.83 L21.07,77.42 C21.3461424,78.6681635 22.5818365,79.4561423 23.83,79.1799999 C25.0781635,78.9038575 25.8661423,77.6681635 25.59,76.42 L19.7,49.05 L20.11,48.77 C23.32132,46.5488613 26.8334603,44.7978422 30.54,43.57 L31.31,43.32 L32.43,48 C32.6845517,49.093262 33.6119826,49.8997236 34.73,50 C35.67,50.09 36.64,50.13 37.62,50.13 C49.75,50.13 61.26,43.65 63.44,42.35 C64.421253,41.7704367 64.9083772,40.6175761 64.64,39.51 Z M32.85,38.19 C28.1406993,39.2171012 23.6444638,41.0507804 19.56,43.61 L18.65,44.17 L13.54,20.36 L14.09,20.11 C19.85,17.53 26.39,16.76 31.09,16.58 L36.29,16.58 L41,37.67 L40,37.62 L38.25,37.62 C36.4366782,37.6498139 34.6295838,37.8405627 32.85,38.19 Z M59.8,39.08 L59.29,39.34 C57.1267963,40.4757015 54.8959369,41.4775844 52.61,42.34 C48.4481348,43.9750148 44.0674696,44.9859376 39.61,45.34 C38.96,45.34 38.31,45.41 37.61,45.41 L36.61,45.41 L35.87,42.33 L36.74,42.26 C38.8713951,42.0589904 41.0207176,42.1701623 43.12,42.59 C43.3359372,42.6151437 43.5540628,42.6151437 43.77,42.59 C44.4257735,42.5594924 45.0464287,42.2848346 45.51,41.82 C45.604383,41.7152219 45.6881272,41.6013297 45.76,41.48 C45.8157996,41.4250805 45.866043,41.3647883 45.91,41.3 C46.2187914,40.7427395 46.3113576,40.0912161 46.17,39.47 L42.08,21.4 L42.85,21.27 C44.04,21.05 45.19,20.8 46.31,20.53 C48.9700877,19.9077458 51.572716,19.0613898 54.09,18 L54.92,17.64 L58.69,34.22 L59.8,39.11 L59.8,39.08 Z" id="Shape" fill="#000000" fill-rule="nonzero"></path>
            <circle id="Oval" fill="#FF553F" cx="7.96" cy="7.42" r="7.3"></circle>
        </g>
    </g>
</svg>