<?xml version="1.0" encoding="UTF-8"?>
<svg width="84px" height="84px" viewBox="0 0 84 84" version="1.1" xmlns="http://www.w3.org/2000/svg" xmlns:xlink="http://www.w3.org/1999/xlink">
    <!-- Generator: Sketch 52.3 (67297) - http://www.bohemiancoding.com/sketch -->
    <title>Artboard</title>
    <desc>Created with Sketch.</desc>
    <g id="Artboard" stroke="none" stroke-width="1" fill="none" fill-rule="evenodd">
        <g id="cars" transform="translate(0.000000, 23.000000)" fill="#000000" stroke="#000000">
            <path d="M72.1538462,8.70153846 L68.0723077,8.70153846 L65.0461538,4.39384615 C63.1150621,1.68661766 59.9930764,0.0814836103 56.6676923,0.0861538462 L37.2830769,0.0861538462 C33.9775725,0.102395042 30.8808931,1.70481645 28.9584615,4.39384615 L25.8461538,8.70153846 L18.48,8.70153846 C8.67473432,8.70747924 0.727479248,16.6547343 0.721538462,26.46 L0.721538462,29.82 C0.727446407,33.4652261 3.67786535,36.4204581 7.32307692,36.4323077 L10.7692308,36.4323077 C10.6011259,35.6609498 10.5144969,34.8740698 10.5107692,34.0846154 C10.5119056,33.5761984 10.5515058,33.0685959 10.6292308,32.5661538 L7.39846154,32.5661538 C5.88600998,32.5602226 4.66306529,31.3324632 4.66307692,29.82 L4.66307692,26.46 C4.6690158,18.7899516 10.8853362,12.5736312 18.5553846,12.5676923 L23.8538462,12.5676923 C23.405891,14.6693447 23.929793,16.8609328 25.2798081,18.5327781 C26.6298231,20.2046233 28.6619127,21.17835 30.8107692,21.1830769 L63.1615385,21.1830769 C65.3127725,21.1871939 67.3497619,20.2153195 68.7000022,18.5406028 C70.0502426,16.865886 70.5679763,14.6691118 70.1076923,12.5676923 L72.1538462,12.5676923 C76.1804269,12.5676923 79.4446154,15.8318808 79.4446154,19.8584615 L79.4446154,29.9061538 C79.4446273,31.3710359 78.2602547,32.5602231 76.7953846,32.5661538 L74.7492308,32.5661538 C74.8216386,33.0691995 74.8612094,33.5764267 74.8676923,34.0846154 C74.8639646,34.8740698 74.7773357,35.6609498 74.6092308,36.4323077 L76.7630769,36.4323077 C80.342113,36.3968699 83.2247908,33.4853653 83.2246154,29.9061538 L83.2246154,19.8584615 C83.2247981,13.730152 78.281973,8.74886132 72.1538462,8.70153846 Z M66.08,15.5723077 C65.524838,16.653846 64.4095394,17.3321806 63.1938462,17.3276923 L30.7461538,17.3276923 C29.5204536,17.3421085 28.392164,16.6616334 27.8330496,15.5707897 C27.2739351,14.4799461 27.3803084,13.1666416 28.1076923,12.18 L32.1353846,6.59076923 C33.3338167,4.92268042 35.2614237,3.93282819 37.3153846,3.93076923 L56.7,3.93076923 C58.7765615,3.93063228 60.723985,4.9384741 61.9230769,6.63384615 L65.8538462,12.2015385 C66.5471341,13.1992961 66.62203,14.5016516 66.0476923,15.5723077 L66.08,15.5723077 Z" id="Shape" fill-rule="nonzero"></path>
            <path d="M76.3215385,32.5661538 L10.92,32.5661538 C11.1532545,33.039357 11.2818128,33.557263 11.2969231,34.0846154 C11.2727701,34.9328642 10.9868898,35.7528889 10.4784615,36.4323077 L76.7630769,36.4323077 C76.2546486,35.7528889 75.9687684,34.9328642 75.9446154,34.0846154 C75.9597257,33.557263 76.0882839,33.039357 76.3215385,32.5661538 Z" id="Path"></path>
            <path d="M21.5384615,40.8584615 C18.7977207,40.8628189 16.3244273,39.2151897 15.2725707,36.6843249 C14.220714,34.1534601 14.7975942,31.2381435 16.7340507,29.2986034 C18.6705073,27.3590634 21.5849022,26.7775453 24.1174375,27.8253739 C26.6499727,28.8732024 28.301535,31.3438711 28.3015385,34.0846154 C28.3015432,37.8215057 25.2753471,40.8525206 21.5384615,40.8584615" id="Path"></path>
            <path d="M63.8076923,40.8584615 C61.0679273,40.8584615 58.5979371,39.2080669 57.5494744,36.6768541 C56.5010118,34.1456413 57.0805534,31.2320892 59.0178597,29.2947828 C60.9551661,27.3574765 63.8687182,26.7779348 66.399931,27.8263975 C68.9311438,28.8748602 70.5815385,31.3448504 70.5815385,34.0846154 C70.5815385,37.8257073 67.5487843,40.8584615 63.8076923,40.8584615" id="Path"></path>
        </g>
    </g>
</svg>