<?xml version="1.0" encoding="UTF-8"?>
<svg version="1.1" viewBox="0 0 90 90" xmlns="http://www.w3.org/2000/svg"><title>257-nft-token-accr</title><g transform="matrix(-.11828 0 0 .11828 83.625 18.561)"><path d="m357.2 275.2-9.731-73.657c-0.12-0.865-0.329-1.811-0.612-2.668l-0.428-1.293-25.261-76.324c-0.177-0.528-0.392-1.108-0.607-1.63-4.984-12-86.54-42.732-97.354-41.155l-133.04 19.398c-7.348 1.063-12.935 7.448-12.805 15.067 0.143 8.265 6.957 14.849 15.221 14.706l107.77-1.848-44.295 115.86-54.117 79.14c-4.766 6.958-4.115 16.542 2.019 22.786 6.97 7.094 18.372 7.195 25.466 0.225l64.957-63.814-13.498 46.399-54.54 80.312c-5.035 7.475-3.81 17.775 3.217 23.753 7.55 6.425 18.877 5.512 25.302-2.037l66.124-77.707c0.946-1.123 1.79-2.455 2.392-3.877l1.047-2.472 67.891-170.07 15.07 36.286 12.991 70.446c1.804 9.68 10.903 16.409 20.78 15.104 10.208-1.351 17.391-10.722 16.041-20.931z"/><circle cx="295.33" cy="44.742" r="44.742"/><path d="m295.32 344.73c-24.813 0-45 20.187-45 45s20.188 45 45 45c24.813 0 45-20.187 45-45s-20.186-45-45-45zm31.661 58.763-7.945-13.763 7.945-13.763h1.09c1.786 4.234 2.775 8.885 2.775 13.763s-0.989 9.528-2.775 13.763zm-19.026-46.959-4.688 8.119h-15.893l-4.688-8.119c3.928-1.501 8.185-2.33 12.634-2.33 4.45 0 8.706 0.829 12.635 2.33zm3.259 33.196-7.947 13.763h-15.893l-7.946-13.763 7.946-13.763h15.893zm-48.644-13.763h1.09l7.945 13.763-7.945 13.763h-1.09c-1.786-4.234-2.776-8.885-2.776-13.763s0.99-9.528 2.776-13.763zm20.116 46.959 4.688-8.119h15.893l4.688 8.119c-3.929 1.501-8.185 2.33-12.635 2.33-4.449 1e-3 -8.706-0.829-12.634-2.33z"/></g><g transform="translate(-.22113 9.8403)" stroke-width=".26775"><path d="m16.644 30.062h18.457c0.88734 0 1.6065 0.71945 1.6065 1.6065 0 0.88707-0.71919 1.6065-1.6065 1.6065h-18.457c-0.88734 0-1.6065-0.71946-1.6065-1.6065 0-0.88707 0.71918-1.6065 1.6065-1.6065z"/><path d="m16.644 51.82h18.457c0.88734 0 1.6065 0.71919 1.6065 1.6065 0 0.88707-0.71919 1.6065-1.6065 1.6065h-18.457c-0.88734 0-1.6065-0.71945-1.6065-1.6065 0-0.88734 0.71918-1.6065 1.6065-1.6065z"/><path d="m16.644 39.355h11.17c0.88707 0 1.6065 0.71945 1.6065 1.6065s-0.71945 1.6065-1.6065 1.6065h-11.17c-0.88734 0-1.6065-0.71945-1.6065-1.6065s0.71918-1.6065 1.6065-1.6065z"/><path d="m16.644 45.587h11.17c0.88707 0 1.6065 0.71945 1.6065 1.6065 0 0.88734-0.71945 1.6065-1.6065 1.6065h-11.17c-0.88734 0-1.6065-0.71919-1.6065-1.6065 0-0.88707 0.71918-1.6065 1.6065-1.6065z"/></g><g transform="matrix(.31985 0 0 .32038 14.983 11.135)"><g stroke-linecap="round"><path d="m21.891 74.585c-0.339 0-0.664-0.174-0.85-0.473l-13.757-22.165v21.638c0 0.553-0.448 1-1 1s-1-0.447-1-1v-25.146c0-0.447 0.296-0.839 0.726-0.962 0.429-0.123 0.888 0.055 1.124 0.435l13.758 22.165v-21.638c0-0.552 0.448-1 1-1s1 0.448 1 1v25.146c0 0.446-0.296 0.839-0.726 0.962-0.091 0.025-0.183 0.038-0.275 0.038z" display="none"/><path d="m31.642 74.585c-0.552 0-1-0.447-1-1v-25.146c0-0.552 0.448-1 1-1h11.148c0.553 0 1 0.448 1 1s-0.447 1-1 1h-10.148v24.146c0 0.552-0.448 1-1 1z" display="none"/><path d="m40.505 62.012h-8.863c-0.552 0-1-0.448-1-1s0.448-1 1-1h8.863c0.553 0 1 0.448 1 1s-0.447 1-1 1z" display="none"/><path d="m64.792 49.439h-14.29c-0.553 0-1-0.448-1-1s0.447-1 1-1h14.291c0.553 0 1 0.448 1 1-1e-3 0.552-0.448 1-1.001 1z" display="none"/><path d="m57.804 74.585c-0.63971 0-1.1568-0.447-1.1568-1v-25.146c0-0.552 0.51709-1 1.1568-1 0.63971 0 1.1568 0.448 1.1568 1v25.146c0 0.552-0.51709 1-1.1568 1z" display="none"/></g><text transform="scale(1.0008 .99917)" x="-2.9402137" y="74.706337" fill="#000000" font-family="'Segoe UI'" font-size="37.487px" font-weight="900" stroke-width="3.1239" xml:space="preserve"><tspan x="-2.9402137" y="74.706337" font-family="'Segoe UI'" font-weight="900" stroke-width="3.1239">NFT</tspan></text></g><g transform="matrix(.95823 0 0 .95983 1.9903 1.9184)"><path d="m45 90c-2.139 0-4.277-0.551-6.185-1.653l-28.262-16.317c-3.815-2.202-6.186-6.307-6.186-10.713v-32.634c0-4.405 2.37-8.51 6.186-10.714l28.262-16.317c3.815-2.203 8.557-2.203 12.371 0l28.262 16.317c3.815 2.203 6.185 6.308 6.185 10.714v32.635c0 4.406-2.37 8.511-6.185 10.713l-28.263 16.317c-1.907 1.101-4.046 1.652-6.185 1.652zm0-88c-1.793 0-3.586 0.462-5.185 1.385l-28.262 16.317c-3.199 1.846-5.186 5.288-5.186 8.981v32.635c0 3.694 1.987 7.135 5.186 8.98l28.262 16.317c3.199 1.848 7.173 1.848 10.37 0l28.262-16.317c3.199-1.846 5.185-5.287 5.185-8.98v-32.635c0-3.693-1.987-7.134-5.185-8.981l-28.262-16.317c-1.599-0.923-3.392-1.385-5.185-1.385z" stroke="#000" stroke-miterlimit="10" stroke-width="3.5px"/></g><path d="m44.855 5.4451c-1.8497-0.085384-3.5239 0.79514-5.0522 1.7319-9.008 5.1634-18.003 10.353-26.909 15.691-1.6197 1.2151-2.7505 3.11-3.0911 5.1046-0.20355 4.6076-0.075306 9.225-0.11751 13.836 0.031275 6.6675-0.071312 13.337 0.08296 20.003 0.18992 2.3849 1.6609 4.5894 3.6058 5.9318 9.3817 5.4662 18.777 10.912 28.197 16.313 1.6154 0.72282 3.4302 0.95966 5.1665 0.58544 1.8718-0.26928 3.357-1.5448 5.0004-2.3719 8.1446-4.6915 16.319-9.3347 24.397-14.139 2.2385-1.2388 4.0245-3.5095 4.3039-6.0925 0.16037-10.429 0.11289-20.86 0.04819-31.289-0.04013-1.5673 0.13417-3.2193-0.62326-4.6606-0.81939-1.8534-2.3516-3.2976-4.1235-4.2399-8.9115-5.2527-17.885-10.401-26.871-15.526-1.1984-0.7339-2.6335-0.91482-4.0142-0.87715zm3.8484 13.285c2.442-0.06728 4.7376 1.8423 5.0476 4.2764 0.30614 1.7192-0.30939 3.5464-1.6504 4.6805-1.7263 1.6167-4.5497 1.7682-6.4241 0.3247-1.9383-1.3789-2.7184-4.1397-1.6606-6.2927 0.79521-1.8243 2.7003-3.0188 4.6876-2.9889zm-32.627 8.0713c0.71755-0.07446 1.3917-0.06332 1.6777 0.71345 0.96455 1.2695 1.856 2.6252 2.866 3.8413 0.23616-0.58859 0.03173-1.4127 0.1002-2.0902v-2.4646h2.1219v8.0974c-0.70429-0.08024-1.5315 0.0746-2.1614-0.14795-1.1859-1.5701-2.3221-3.2058-3.4843-4.7748-0.2437 0.54512-0.03327 1.3401-0.10366 1.9796v2.9382h-2.1219v-8.0924h1.1054zm11.123 0h2.4983c-0.1654 0.50505 0.36321 1.7041-0.3317 1.6796-0.76106 0.06447-1.6294-0.13012-2.3219 0.09998 0.15806 0.50801-0.38893 1.7275 0.43168 1.6479h2.0008c-0.08435 0.54924 0.1587 1.4259-0.11056 1.7902-0.76069 0.06534-1.6294-0.13009-2.3219 0.09998v2.7747h-2.343v-8.0924h2.4983zm6.9103 0h3.5487c-0.1654 0.50505 0.36321 1.7041-0.3317 1.6796-0.68768 0.06366-1.4817-0.12935-2.1007 0.09998v6.3128h-2.343v-6.3128c-0.68979-0.23652-1.5631-0.03006-2.3219-0.09998 0.1654-0.50505-0.36321-1.7041 0.3317-1.6796h3.217zm22.672 1.2469c4.6545 0.42869 9.2821 1.1953 13.904 1.9049 0.97683 0.23537 2.0668 0.19879 2.968 0.66404 0.67633 0.48017 0.97228 1.4896 0.37877 2.1616-0.34532 0.67482-1.1367 0.78414-1.8189 0.72129-4.1072-0.02149-8.2136-0.12055-12.32-0.17495-0.16072 0.50867 0.42303 1.2101 0.53737 1.7878 1.5659 4.0394 3.062 8.1153 4.6648 12.135 2.156 3.2229 4.4441 6.3604 6.5102 9.641 0.47426 0.9801-0.0379 2.3544-1.1296 2.6635-0.77967 0.28873-1.6881 0.0636-2.1912-0.61869-2.5799-2.3771-5.0113-4.9103-7.5927-7.2843-0.34867 0.15871 0.12487 0.74457 0.11553 1.0608 0.55047 1.6738 0.82194 3.4699 1.6693 5.0295 2.1262 3.1852 4.3993 6.2834 6.3288 9.5943 0.45014 1.3102-0.86642 2.8445-2.2513 2.4512-0.9819-0.17583-1.4656-1.2185-2.1514-1.8428-2.3083-2.6641-4.6081-5.3484-6.8521-8.0651-2.926-6.8378-5.5165-13.837-8.4582-20.675-0.40142 0.03155-0.40646 0.7857-0.64061 1.0973-0.59492 1.53-1.4404 2.9869-1.5858 4.651-0.48929 2.4381-0.82623 4.9175-1.4419 7.3234-0.56951 1.3503-2.6139 1.5784-3.4638 0.40296-0.84412-0.96124-0.23449-2.3006-0.20472-3.4184 0.3295-2.3624 0.53456-4.7575 0.97896-7.0962 1.0638-3.118 1.9504-6.3059 3.1346-9.3765 0.44976-0.81812 1.4607-1.0906 2.2102-1.5598 2.6945-1.2739 5.4615-2.4677 8.377-3.1405 0.10777-0.01699 0.21616-0.03551 0.32543-0.03822zm-28.034 12.022c2.263 0.05622 4.5516-0.10296 6.798 0.13583 1.159 0.4711 0.94871 2.5704-0.33731 2.6691-4.5543 0.1736-9.1302 0.05287-13.693 0.08669-1.9013-0.05583-3.8432 0.10143-5.7183-0.14456-1.1564-0.43515-1.0613-2.5419 0.24057-2.6637 4.2264-0.16438 8.4759-0.04725 12.71-0.08336zm-4.7981 9.2873c1.4435 0.06667 2.9255-0.11988 4.3483 0.15311 1.1368 0.52504 0.90141 2.6544-0.44788 2.6648-3.7838 0.12578-7.5881 0.09546-11.378 0.02863-1.0182 0.14211-1.7773-0.99723-1.4015-1.9151 0.19706-0.71963 0.98066-0.98257 1.6576-0.90244 2.4067-0.05114 4.8146-0.02147 7.2217-0.02894zm-0.36841 6.1921c1.529 0.06171 3.0951-0.1036 4.599 0.16369 1.0263 0.41402 1.1337 1.9704 0.20515 2.548-0.64328 0.48939-1.5596 0.13245-2.3238 0.24711-3.286-0.03109-6.5932 0.12846-9.8667-0.04843-1.0801-0.11186-1.6209-1.5729-0.86616-2.3642 0.6904-0.792 1.8464-0.419 2.7632-0.53667 1.8297-0.01482 3.6595-0.01043 5.4892-0.0095zm25.148 3.951c2.1996-0.04011 4.2984 1.4944 4.9007 3.6165 0.76658 2.2231-0.29136 4.789-2.2929 5.9901-2.2628 1.4544-5.5442 0.64388-6.9753-1.6148-1.5942-2.2902-0.84597-5.7293 1.5477-7.1753 0.83703-0.53595 1.8322-0.82219 2.8198-0.8165zm-20.064 2.2951c2.2568 0.05202 4.5525-0.09415 6.7861 0.13194 1.1335 0.38956 1.1185 2.1504 0.0704 2.6451-1.4019 0.28443-2.9014 0.10076-4.3444 0.16804-4.9705-0.026-9.963 0.07714-14.92-0.06914-1.2483-0.0091-1.7311-1.8999-0.71198-2.5808 0.70527-0.43089 1.61-0.17465 2.3998-0.27555 3.5734-0.03196 7.147-0.01651 10.72-0.01965z" fill="#ff553f"/></svg>
