<svg xmlns="http://www.w3.org/2000/svg" xmlns:xlink="http://www.w3.org/1999/xlink" width="34" height="36" viewBox="0 0 34 36"><defs><path id="2jvma" d="M753.32 1617.33a5.11 5.11 0 0 1-4.26 5.03v-9.15h4.26zm-13.06 14.31c-.77.18-1.54.27-2.26.27a9.54 9.54 0 0 1-2.27-.31 9.4 9.4 0 0 1-7.11-9.1v-11.87h2.49a9.46 9.46 0 0 0 3.71 6.43 4.16 4.16 0 0 0 3.17 6.84 4.16 4.16 0 0 0 3.18-6.84c1.27-1 3.4-3.12 3.71-6.43h2.5v11.91c0 4.3-2.9 8.06-7.12 9.1zm-3.9 4.12v-2.26h.14c.19.04.37.04.5.04.1 0 .18 0 .23.05.27 0 .5.04.77.04.23 0 .5 0 .77-.04.1 0 .18 0 .23-.05.18 0 .36-.04.5-.04h.13v2.26zm-2.9 3.49v-1.86h9.03v1.86zm-3.12 4.12v-2.45h15.32v2.45zm-7.66-26.04v-4.12h4.26v9.15a5.11 5.11 0 0 1-4.26-5.03zm17.13-1.36a3.95 3.95 0 0 0-1.81-.4c-.64 0-1.27.13-1.82.4-.9-.63-3.03-2.44-3.4-5.34h10.42c-.36 2.94-2.53 4.71-3.4 5.34zm-1.81 1.27a2.51 2.51 0 0 1 2.48 2.5c0 1.35-1.13 2.48-2.48 2.48a2.51 2.51 0 0 1-2.5-2.49c0-1.4 1.14-2.49 2.5-2.49zm16.18-5.66h-5.12v-1.76a.81.81 0 0 0-.81-.82h-20.5a.81.81 0 0 0-.81.82v1.76h-5.12a.81.81 0 0 0-.82.82v4.93a6.82 6.82 0 0 0 6.07 6.75c.6 4.21 3.54 7.7 7.62 8.97v2.67h-2.08a.81.81 0 0 0-.82.81v2.72h-2.31a.81.81 0 0 0-.82.81v4.12c0 .46.36.82.82.82h16.95c.46 0 .82-.36.82-.82v-4.12a.81.81 0 0 0-.82-.81h-2.31v-2.67a.81.81 0 0 0-.82-.82h-2v-2.67a11.02 11.02 0 0 0 7.63-8.97 6.82 6.82 0 0 0 6.07-6.74v-4.98a.81.81 0 0 0-.82-.82z"/></defs><g><g transform="translate(-721 -1609)"><use xlink:href="#2jvma"/></g></g></svg>