<svg id="Layer_1" data-name="Layer 1" xmlns="http://www.w3.org/2000/svg" viewBox="0 0 68 84"><defs><style>.cls-1{fill:#ff553f;}.cls-2{fill:none;stroke-linecap:round;stroke-width:4px;}.cls-2,.cls-3{stroke:#000;stroke-linejoin:round;}.cls-3{stroke-width:1.07px;}</style></defs><title>4-47-departure_1</title><polygon id="Fill-1" class="cls-1" points="9 67.1 59 67.1 59 18 9 18 9 67.1"/><polygon id="Stroke-2" class="cls-2" points="2 82 66 82 66 2 2 2 2 82"/><path id="Stroke-3" class="cls-2" d="M11,8a2,2,0,1,1-2,2A2,2,0,0,1,11,8Z"/><polygon id="Stroke-5" class="cls-2" points="9 67.1 59 67.1 59 18 9 18 9 67.1"/><path id="Stroke-6" class="cls-2" d="M9,74H34"/><path id="Stroke-9" class="cls-2" d="M19,10H34"/><path class="cls-3" d="M41.78,26.41h-2a.58.58,0,0,0-.26.06l-3.72,1.6a.65.65,0,0,0-.35.85l.78,1.94a.66.66,0,0,0,.69.41l2-.23a.66.66,0,0,1,.73.66v7.2a.66.66,0,0,0,.66.65h6.31a.66.66,0,0,0,.66-.65V31.7A.66.66,0,0,1,48,31l2,.23a.66.66,0,0,0,.69-.41l.78-1.94a.65.65,0,0,0-.35-.85l-3.72-1.6a.58.58,0,0,0-.26-.06H41.78Z"/><circle class="cls-1" cx="43.48" cy="25.31" r="1.61"/><path d="M23.89,35.31h6a2.33,2.33,0,1,0,0-4.65h-6a2.33,2.33,0,0,0,0,4.65Z"/><path d="M24,37.29,17.3,33.44a.53.53,0,0,1,0-.92L24,28.68a.52.52,0,0,1,.79.45v7.7A.53.53,0,0,1,24,37.29Z"/><path d="M18.88,52.11v0a5.12,5.12,0,1,1,10.21,0v0a5.12,5.12,0,1,1-10.21,0Zm7.53,0v0A2.62,2.62,0,0,0,24,49.25a2.57,2.57,0,0,0-2.39,2.8v0A2.61,2.61,0,0,0,24,54.91,2.57,2.57,0,0,0,26.41,52.11Z"/><path d="M30.61,52.73V46.84h2.66v5.83c0,1.51.69,2.23,1.75,2.23s1.75-.69,1.75-2.16v-5.9h2.66v5.81c0,3.39-1.74,4.87-4.44,4.87S30.61,56,30.61,52.73Z"/><path d="M43.58,49.39H40.74V46.84h8.31v2.55H46.2v7.94H43.58Z"/></svg>