<?xml version="1.0" encoding="UTF-8"?>
<svg width="80px" height="80px" viewBox="0 0 80 80" version="1.1" xmlns="http://www.w3.org/2000/svg" xmlns:xlink="http://www.w3.org/1999/xlink">
    <!-- Generator: Sketch 52.3 (67297) - http://www.bohemiancoding.com/sketch -->
    <title>Artboard</title>
    <desc>Created with Sketch.</desc>
    <g id="Artboard" stroke="none" stroke-width="1" fill="none" fill-rule="evenodd">
        <g id="Group-2" transform="translate(2.000000, 2.000000)">
            <g id="_x31_kwfa-link" transform="translate(16.000000, 5.500000)">
                <g id="Group">
                    <path d="M2,2.9 L9.2,2.9" id="_x31_kwfa_1_" fill-opacity="0" fill="#FFFFFF"></path>
                    <path d="M9.2,4.9 L2,4.9 C0.9,4.9 0,4 0,2.9 C0,1.8 0.9,0.9 2,0.9 L9.2,0.9 C10.3,0.9 11.2,1.8 11.2,2.9 C11.2,4 10.3,4.9 9.2,4.9 Z" id="Path" fill="#000000"></path>
                </g>
            </g>
            <g id="_x31_kwfb-link" transform="translate(12.600000, 32.500000)">
                <g id="Group">
                    <path d="M2,2.9 L17.1,2.9" id="_x31_kwfb_1_" fill-opacity="0" fill="#FFFFFF"></path>
                    <path d="M17.1,4.9 L2,4.9 C0.9,4.9 0,4 0,2.9 C0,1.8 0.9,0.9 2,0.9 L17.1,0.9 C18.2,0.9 19.1,1.8 19.1,2.9 C19.1,4 18.2,4.9 17.1,4.9 Z" id="Path" fill="#000000"></path>
                </g>
            </g>
            <g id="_x31_kwfc-link" transform="translate(10.600000, 56.700000)">
                <g id="Group">
                    <path d="M2,2 L20,2" id="_x31_kwfc_1_" fill-opacity="0" fill="#FFFFFF"></path>
                    <path d="M20,4 L2,4 C0.9,4 0,3.1 0,2 C0,0.9 0.9,0 2,0 L20,0 C21.1,0 22,0.9 22,2 C22,3.1 21.1,4 20,4 Z" id="Path" fill="#000000"></path>
                </g>
            </g>
            <g id="_x31_kwfd-link" transform="translate(10.600000, 0.000000)">
                <g id="Group">
                    <path d="M11,3 L7.9,3 L5.9,24.1 C5.8,25.6 5.3,27 4.4,28.2 L3.6,29.5 C2.6,31 2.1,32.7 2.1,34.5 L2.1,65.1 C2.1,66.6 3.3,67.8 4.8,67.8 L11,67.8" id="_x31_kwfd_1_" fill-opacity="0" fill="#FFFFFF"></path>
                    <path d="M11,69.8 L4.7,69.8 C2.1,69.8 0,67.7 0,65.1 L0,34.5 C0,32.3 0.6,30.2 1.8,28.4 L2.6,27.1 C3.2,26.1 3.6,25 3.7,23.9 L5.7,2.7 C5.8,1.7 6.7,0.9 7.7,0.9 L11,0.9 C12.1,0.9 13,1.8 13,2.9 C13,4 12.1,4.9 11,4.9 L9.7,4.9 L7.8,24.3 C7.6,26.1 7,27.8 6,29.3 L5.2,30.6 C4.4,31.8 4,33.1 4,34.5 L4,65.1 C4,65.5 4.3,65.8 4.7,65.8 L11,65.8 C12.1,65.8 13,66.7 13,67.8 C13,68.9 12.1,69.8 11,69.8 Z" id="Path" fill="#000000"></path>
                </g>
            </g>
            <g id="_x31_kwfe-link" transform="translate(19.600000, 1.000000)">
                <g id="Group">
                    <path d="M2,2 L5.2,2 L7.2,23.1 C7.3,24.6 7.8,26 8.7,27.2 L9.5,28.5 C10.5,30 11,31.7 11,33.5 L11,64.1 C11,65.6 9.8,66.8 8.3,66.8 L2,66.8" id="_x31_kwfe_1_" fill-opacity="0" fill="#FFFFFF"></path>
                    <path d="M8.3,68.8 L2,68.8 C0.9,68.8 0,67.9 0,66.8 C0,65.7 0.9,64.8 2,64.8 L8.3,64.8 C8.7,64.8 9,64.5 9,64.1 L9,33.5 C9,32.1 8.6,30.8 7.8,29.6 L7,28.4 C6,26.9 5.4,25.1 5.2,23.4 L3.3,4 L2,4 C0.9,4 0,3.1 0,2 C0,0.9 0.9,0 2,0 L5.1,0 C6.1,0 7,0.8 7.1,1.8 L9.1,22.9 C9.2,24 9.6,25.2 10.2,26.1 L11,27.4 C12.2,29.2 12.8,31.3 12.8,33.5 L12.8,64.1 C13,66.7 10.9,68.8 8.3,68.8 Z" id="Path" fill="#000000"></path>
                </g>
            </g>
            <g id="Group" transform="translate(26.200000, 36.100000)">
                <g id="_x31_kwfi-link" transform="translate(1.000000, 0.000000)">
                    <g id="Group">
                        <path d="M20,2 C29.9,2 38,4.8 38,8.3 C38,11.8 29.9,14.6 20,14.6 C10.1,14.6 2,11.8 2,8.3 C2,4.8 10.1,2 20,2 Z" id="_x31_kwfi_1_" fill-opacity="0" fill="#FFFFFF"></path>
                        <path d="M20,16.6 C10.1,16.6 0,13.7 0,8.3 C0,2.9 10.1,0 20,0 C29.9,0 40,2.9 40,8.3 C40,13.7 29.9,16.6 20,16.6 Z M20,4 C9.6,4 4,7.1 4,8.3 C4,9.5 9.6,12.6 20,12.6 C30.4,12.6 36,9.5 36,8.3 C36,7.1 30.4,4 20,4 Z" id="Shape" fill="#000000" fill-rule="nonzero"></path>
                    </g>
                </g>
                <g id="_x31_kwfj-link" transform="translate(1.000000, 6.300000)">
                    <g id="Group">
                        <path d="M2,2 L2,7.4 C2,17.3 10.1,25.4 20,25.4" id="_x31_kwfj_1_" fill-opacity="0" fill="#FFFFFF"></path>
                        <path d="M20,27.4 C9,27.4 0,18.4 0,7.4 L0,2 C0,0.9 0.9,0 2,0 C3.1,0 4,0.9 4,2 L4,7.4 C4,16.2 11.2,23.4 20,23.4 C21.1,23.4 22,24.3 22,25.4 C22,26.5 21.1,27.4 20,27.4 Z" id="Path" fill="#000000"></path>
                    </g>
                </g>
                <g id="_x31_kwfk-link" transform="translate(19.000000, 6.300000)">
                    <g id="Group">
                        <path d="M20,2 L20,7.4 C20,17.3 11.9,25.4 2,25.4" id="_x31_kwfk_1_" fill-opacity="0" fill="#FFFFFF"></path>
                        <path d="M2,27.4 C0.9,27.4 0,26.5 0,25.4 C0,24.3 0.9,23.4 2,23.4 C10.8,23.4 18,16.2 18,7.4 L18,2 C18,0.9 18.9,0 20,0 C21.1,0 22,0.9 22,2 L22,7.4 C22,18.4 13,27.4 2,27.4 Z" id="Path" fill="#000000"></path>
                    </g>
                </g>
                <g id="_x31_kwfl-link" transform="translate(0.900000, 15.300000)">
                    <g id="Group">
                        <path d="M3,2.1 C3,2.1 18.1,10.8 37.2,2" id="_x31_kwfl_1_" fill-opacity="0" fill="#FFFFFF"></path>
                        <path d="M19.7,7.9 C9.4,7.9 2.4,4 2,3.8 C1,3.2 0.7,2 1.3,1.1 C1.8,0.1 3,-0.2 4,0.3 C4.2,0.4 18.5,8.3 36.4,0.2 C37.4,-0.3 38.6,0.2 39.1,1.2 C39.6,2.2 39.1,3.4 38.1,3.9 C31.3,6.9 25.1,7.9 19.7,7.9 Z" id="Path" fill="#000000"></path>
                    </g>
                </g>
            </g>
            <g id="_x31_kwfm-link" transform="translate(0.000000, 56.800000)">
                <g id="Group">
                    <polyline id="_x31_kwfm_1_" fill-opacity="0" fill="#FFFFFF" points="14.6 2 11 2 2 18.2 74 18.2 65 2 63.4 2"></polyline>
                    <path d="M74,20.2 L2,20.2 C1.3,20.2 0.6,19.8 0.3,19.2 C-0.1,18.6 -0.1,17.8 0.3,17.2 L9.3,1 C9.7,0.4 10.3,0 11,0 L14.6,0 C15.7,0 16.6,0.9 16.6,2 C16.6,3.1 15.7,4 14.6,4 L12.2,4 L5.4,16.2 L70.6,16.2 L63.8,4 L63.4,4 C62.3,4 61.4,3.1 61.4,2 C61.4,0.9 62.3,0 63.4,0 L65,0 C65.7,0 66.4,0.4 66.7,1 L75.7,17.2 C76,17.8 76,18.6 75.7,19.2 C75.4,19.8 74.7,20.2 74,20.2 Z" id="Path" fill="#000000"></path>
                </g>
            </g>
            <g id="_x31_kwfn-link" transform="translate(37.800000, 22.600000)">
                <g id="Group">
                    <path d="M11,2 C16,2 20,3.2 20,4.7 C20,6.2 16,7.4 11,7.4 C6,7.4 2,6.2 2,4.7 C2,3.2 6,2 11,2 Z" id="_x31_kwfn_1_" fill-opacity="0" fill="#FFFFFF"></path>
                    <path d="M11,9.4 C9.2,9.4 0,9.2 0,4.7 C0,0.2 9.2,0 11,0 C12.8,0 22,0.2 22,4.7 C22,9.2 12.8,9.4 11,9.4 Z M5.2,4.7 C6.4,5.1 8.4,5.4 11,5.4 C13.6,5.4 15.5,5.1 16.8,4.7 C15.5,4.3 13.6,4 11,4 C8.4,4 6.5,4.3 5.2,4.7 Z" id="Shape" fill="#000000" fill-rule="nonzero"></path>
                </g>
            </g>
            <g id="_x31_kwfo-link" transform="translate(36.900000, 25.300000)">
                <g id="Group">
                    <path d="M2.9,2 L2.9,12.8" id="_x31_kwfo_1_" fill-opacity="0" fill="#FFFFFF"></path>
                    <path d="M2.9,14.8 C1.8,14.8 0.9,13.9 0.9,12.8 L0.9,2 C0.9,0.9 1.8,0 2.9,0 C4,0 4.9,0.9 4.9,2 L4.9,12.8 C4.9,13.9 4,14.8 2.9,14.8 Z" id="Path" fill="#000000"></path>
                </g>
            </g>
            <g id="_x31_kwfp-link" transform="translate(54.900000, 25.300000)">
                <g id="Group">
                    <path d="M2.9,2 L2.9,12.6" id="_x31_kwfp_1_" fill-opacity="0" fill="#FFFFFF"></path>
                    <path d="M2.9,14.6 C1.8,14.6 0.9,13.7 0.9,12.6 L0.9,2 C0.9,0.9 1.8,0 2.9,0 C4,0 4.9,0.9 4.9,2 L4.9,12.6 C4.9,13.7 4,14.6 2.9,14.6 Z" id="Path" fill="#000000"></path>
                </g>
            </g>
            <g id="_x31_kwfq-link" transform="translate(46.800000, 13.600000)">
                <g id="Group">
                    <path d="M2,11 C2,6 6,2 11,2 C16,2 20,6 20,11 C20,16 16,20 11,20" id="_x31_kwfq_1_" fill-opacity="0" fill="#FFFFFF"></path>
                    <path d="M11,22 C9.9,22 9,21.1 9,20 C9,18.9 9.9,18 11,18 C14.9,18 18,14.9 18,11 C18,7.1 14.9,4 11,4 C7.1,4 4,7.1 4,11 C4,12.1 3.1,13 2,13 C0.9,13 0,12.1 0,11 C0,4.9 4.9,0 11,0 C17.1,0 22,4.9 22,11 C22,17.1 17.1,22 11,22 Z" id="Path" fill="#000000"></path>
                </g>
            </g>
            <g id="_x31_kwfr-link" transform="translate(30.500000, 11.800000)">
                <g id="Group">
                    <path d="M12.9,16.4 L10.3,4.6 C10.1,3.7 9.4,2.9 8.5,2.6 C7.6,2.3 6.6,2.5 5.9,3.1 L3,5.6" id="_x31_kwfr_1_" fill-opacity="0" fill="#FFFFFF"></path>
                    <path d="M12.9,18.4 C12,18.4 11.2,17.8 10.9,16.8 L8.3,5 C8.2,4.8 8.1,4.6 7.8,4.5 C7.6,4.4 7.3,4.5 7.1,4.6 L4.2,7.1 C3.4,7.8 2.1,7.7 1.4,6.9 C0.7,6.1 0.8,4.8 1.6,4.1 L4.5,1.6 C5.7,0.5 7.5,0.2 9,0.7 C10.6,1.2 11.7,2.5 12.1,4.1 L14.9,16 C15.1,17.1 14.5,18.1 13.4,18.4 C13.2,18.4 13,18.4 12.9,18.4 Z" id="Path" fill="#000000"></path>
                </g>
            </g>
            <g id="Group" transform="translate(10.000000, 33.000000)">
                <rect id="Rectangle" fill="#FFFFFF" x="2.6" y="2.4" width="17.5" height="23.3"></rect>
                <path d="M20.1,27.7 L2.6,27.7 C1.5,27.7 0.6,26.8 0.6,25.7 L0.6,2.4 C0.6,1.3 1.5,0.4 2.6,0.4 L20.1,0.4 C21.2,0.4 22.1,1.3 22.1,2.4 L22.1,25.7 C22.1,26.8 21.2,27.7 20.1,27.7 Z M4.6,23.7 L18.1,23.7 L18.1,4.4 L4.6,4.4 L4.6,23.7 Z" id="Shape" fill="#000000" fill-rule="nonzero"></path>
            </g>
        </g>
    </g>
</svg>