<svg id="Layer_1" data-name="Layer 1" xmlns="http://www.w3.org/2000/svg" viewBox="0 0 68 84"><defs><style>.cls-1{fill:#ff553f;}.cls-2{fill:none;stroke:#000;stroke-linecap:round;stroke-linejoin:round;stroke-width:4px;}</style></defs><title>4-38-Halftime-score</title><polygon id="Fill-1" class="cls-1" points="9 67.1 59 67.1 59 18 9 18 9 67.1"/><polygon id="Stroke-2" class="cls-2" points="2 82 66 82 66 2 2 2 2 82"/><path id="Stroke-3" class="cls-2" d="M11,8a2,2,0,1,1-2,2A2,2,0,0,1,11,8Z"/><polygon id="Stroke-5" class="cls-2" points="9 67.1 59 67.1 59 18 9 18 9 67.1"/><path id="Stroke-6" class="cls-2" d="M9,74H34"/><path id="Stroke-9" class="cls-2" d="M19,10H34"/><path class="cls-2" d="M21.79,41.4h0A6.39,6.39,0,0,1,15.4,35V24.33H28.18V35A6.39,6.39,0,0,1,21.79,41.4Z"/><path class="cls-2" d="M39.4,24.33H52.18a0,0,0,0,1,0,0V35a6.39,6.39,0,0,1-6.39,6.39h0A6.39,6.39,0,0,1,39.4,35V24.33a0,0,0,0,1,0,0Z"/><circle cx="34" cy="28.91" r="1.15"/><circle cx="34" cy="32.76" r="1.15"/><path d="M15,49.62h2.62v3.92H21V49.62h2.63V60.1H21v-4H17.65v4H15Z"/><path d="M28.88,49.54h2.53l4,10.56H32.63l-.7-1.87H28.28L27.6,60.1H24.84ZM31.18,56l-1.06-3-1.07,3Z"/><path d="M36.64,49.62h2.62v7.94h4.59V60.1H36.64Z"/><path d="M45.25,49.62h7.58v2.54h-5V54h4.48v2.41H47.87V60.1H45.25Z"/></svg>