<?xml version="1.0" encoding="UTF-8"?>
<svg width="84px" height="84px" viewBox="0 0 84 84" version="1.1" xmlns="http://www.w3.org/2000/svg" xmlns:xlink="http://www.w3.org/1999/xlink">
    <!-- Generator: Sketch 52.3 (67297) - http://www.bohemiancoding.com/sketch -->
    <title>Artboard</title>
    <desc>Created with Sketch.</desc>
    <g id="Artboard" stroke="none" stroke-width="1" fill="none" fill-rule="evenodd">
        <g id="hospitality-branding" transform="translate(2.000000, 2.000000)">
            <polygon id="Path" fill="#FF553F" points="7.95 0 1.26 3.67 1.26 12 21.25 18.13 38.25 20.37 53.8 19.18 78.78 10.8 77.82 4.25 72.14 1.16 9.2 1.04"></polygon>
            <polygon id="Path" fill="#FF553F" points="70.06 78.87 6.65 78.87 1.74 75.46 0.92 69.73 0.92 64.82 37.74 64.82 37.88 34.96 22.47 34.96 24.88 29.8 55.17 30.2 57.51 34.89 42.44 35.22 43.98 64.71 79.63 65.38 78.28 75.76 75.34 78.87"></polygon>
            <g id="Page-1">
                <g id="Icons:-Main">
                    <g id="seats-hip">
                        <path d="M80,12 L66.31,16.79 C49.2763493,22.7503245 30.7236507,22.7503245 13.69,16.79 L0,12" id="Stroke-3" stroke="#000000" stroke-width="4" stroke-linecap="round" stroke-linejoin="round"></path>
                        <path d="M80,8 C79.9725073,3.6012607 76.3988252,0.0499140846 72,0.05 L8,0.05 C3.60117479,0.0499140846 0.0274926567,3.6012607 8.8817842e-16,8 L8.8817842e-16,72.1 C4.4408921e-16,76.518278 3.581722,80.1 8,80.1 L72.1,80.1 C76.518278,80.1 80.1,76.518278 80.1,72.1 L80,8 Z" id="Stroke-1" stroke="#000000" stroke-width="4" stroke-linecap="round"></path>
                        <path d="M40,8 C42.76,8 45,9.34 45,11 C45,12.66 42.76,14 40,14 C37.24,14 35,12.66 35,11 C35,9.34 37.24,8 40,8 Z" id="Stroke-4" fill="#FFFFFF"></path>
                        <path d="M40,8 C42.76,8 45,9.34 45,11 C45,12.66 42.76,14 40,14 C37.24,14 35,12.66 35,11 C35,9.34 37.24,8 40,8 Z" id="Stroke-4-2" stroke="#000000" stroke-width="4" stroke-linecap="round"></path>
                        <path d="M9.64,40.4 C9.84616793,42.4516052 11.5780877,44.010333 13.64,44 L23,44 C25.7614237,44 28,46.2385763 28,49 L28,52 L0,52 L0,26 L3.51,25.12 C4.64380752,24.821349 5.85155709,25.0351892 6.81389599,25.704977 C7.77623488,26.3747649 8.39625104,27.4330497 8.51,28.6 L9.64,40.4 Z" id="Stroke-6" stroke="#000000" stroke-width="4" stroke-linecap="round" stroke-linejoin="round"></path>
                        <polygon id="Stroke-8" stroke="#000000" stroke-width="4" stroke-linecap="round" stroke-linejoin="round" points="0 52 0 66 18 66 22 52"></polygon>
                        <path d="M70.36,40.4 C70.1538321,42.4516052 68.4219123,44.010333 66.36,44 L57,44 C54.2385763,44 52,46.2385763 52,49 L52,52 L80,52 L80,26 L76.49,25.12 C75.3631842,24.8383066 74.1695691,25.0603128 73.2193919,25.7283161 C72.2692148,26.3963194 71.6563172,27.4443463 71.54,28.6 L70.36,40.4 Z" id="Stroke-10" stroke="#000000" stroke-width="4" stroke-linecap="round" stroke-linejoin="round"></path>
                        <polygon id="Stroke-12" stroke="#000000" stroke-width="4" stroke-linecap="round" stroke-linejoin="round" points="80 52 80 66 62 66 58 52"></polygon>
                        <polygon id="Stroke-13" stroke="#000000" stroke-width="4" stroke-linecap="round" stroke-linejoin="round" points="56 29 24 29 20 36 60 36"></polygon>
                        <polygon id="Stroke-14" stroke="#000000" stroke-width="4" stroke-linecap="round" stroke-linejoin="round" points="37 66 43 66 43 36 37 36"></polygon>
                        <path d="M0,66 L79.32,66" id="Stroke-15" stroke="#000000" stroke-width="4" stroke-linecap="round"></path>
                    </g>
                </g>
            </g>
        </g>
    </g>
</svg>