<?xml version="1.0" encoding="UTF-8"?>
<svg width="80px" height="80px" viewBox="0 0 80 80" version="1.1" xmlns="http://www.w3.org/2000/svg" xmlns:xlink="http://www.w3.org/1999/xlink">
    <!-- Generator: Sketch 52.3 (67297) - http://www.bohemiancoding.com/sketch -->
    <title>hotels</title>
    <desc>Created with Sketch.</desc>
    <g id="hotels" stroke="none" stroke-width="1" fill="none" fill-rule="evenodd">
        <g transform="translate(4.000000, 9.000000)" fill="#FFFFFF" stroke="#000000" stroke-width="4">
            <g id="pid3a-link" transform="translate(18.200000, 11.500000)">
                <polygon id="pid3a" points="0 49.5 35.6 49.5 35.6 0 0 0"></polygon>
            </g>
            <g id="pid3c-link" transform="translate(22.500000, 47.500000)">
                <path d="M0,0.9 L27,0.9" id="pid3c"></path>
            </g>
            <g id="pid3d-link" transform="translate(55.800000, 14.200000)">
                <path d="M0,46.8 L16.2,46.8 L16.2,14.4 C16.2,6.4470996 9.7529004,0 1.8,0 L0,0" id="pid3d"></path>
            </g>
            <g id="pid3e-link" transform="translate(55.800000, 27.700000)">
                <path d="M0,0.9 L16.2,0.9" id="pid3e"></path>
            </g>
            <g id="pid3f-link" transform="translate(63.000000, 28.600000)">
                <path d="M0.9,0 L0.9,32.4" id="pid3f"></path>
            </g>
            <g id="pid3g-link" transform="translate(55.800000, 35.800000)">
                <path d="M16.2,0.9 L0,0.9" id="pid3g"></path>
            </g>
            <g id="pid3h-link" transform="translate(55.800000, 43.900000)">
                <path d="M16.2,0.9 L0,0.9" id="pid3h"></path>
            </g>
            <g id="pid3i-link" transform="translate(55.800000, 52.000000)">
                <path d="M16.2,0.9 L0,0.9" id="pid3i"></path>
            </g>
            <g id="pid3j-link" transform="translate(0.000000, 14.200000)">
                <path d="M16.2,46.8 L0,46.8 L0,14.4 C-9.99200722e-16,6.4470996 6.4470996,0 14.4,0 L16.2,0" id="pid3j"></path>
            </g>
            <g id="pid3k-link" transform="translate(0.000000, 27.700000)">
                <path d="M16.2,0.9 L0,0.9" id="pid3k"></path>
            </g>
            <g id="pid3l-link" transform="translate(7.200000, 28.600000)">
                <path d="M0.9,0 L0.9,32.4" id="pid3l"></path>
            </g>
            <g id="pid3m-link" transform="translate(0.000000, 35.800000)">
                <path d="M0,0.9 L16.2,0.9" id="pid3m"></path>
            </g>
            <g id="pid3n-link" transform="translate(0.000000, 43.900000)">
                <path d="M0,0.9 L16.2,0.9" id="pid3n"></path>
            </g>
            <g id="pid3o-link" transform="translate(0.000000, 52.000000)">
                <path d="M0,0.9 L16.2,0.9" id="pid3o"></path>
            </g>
            <g id="pid3p-link" transform="translate(16.000000, 0.800000)">
                <path d="M39.6,5.4 C39.6,2.41766235 37.1823376,-4.4408921e-17 34.2,-4.4408921e-16 L5.4,-4.4408921e-16 C2.41766238,4.44402922e-08 8.04662704e-08,2.41766238 8.04662704e-08,5.4 C8.04662704e-08,8.38233762 2.41766238,10.8 5.4,10.8 L34.2,10.8 C37.1823376,10.8 39.6,8.38233765 39.6,5.4 Z" id="pid3p"></path>
            </g>
            <g id="pid3q-link" transform="translate(27.000000, 48.400000)">
                <polygon id="pid3q" points="0 12.546 18 12.546 18 0 0 0"></polygon>
            </g>
            <g id="pid3s-link" transform="translate(35.100000, 48.400000)">
                <path d="M0.9,0 L0.9,12.6" id="pid3s"></path>
            </g>
            <g id="pid3t-link" transform="translate(16.000000, 27.700000)">
                <path d="M0,0.9 L39.6,0.9" id="pid3t"></path>
            </g>
        </g>
    </g>
</svg>