<?xml version="1.0" encoding="UTF-8"?>
<svg width="84px" height="84px" viewBox="0 0 84 84" version="1.1" xmlns="http://www.w3.org/2000/svg" xmlns:xlink="http://www.w3.org/1999/xlink">
    <!-- Generator: Sketch 52.3 (67297) - http://www.bohemiancoding.com/sketch -->
    <title>Artboard Copy</title>
    <desc>Created with Sketch.</desc>
    <g id="Artboard-Copy" stroke="none" stroke-width="1" fill="none" fill-rule="evenodd">
        <g id="inventory" transform="translate(15.000000, 5.000000)">
            <path d="M0.6,70.65 C0.6,72.5277681 2.12223185,74.05 4,74.05 L51.7,74.05 C53.2165137,74.0171891 54.4223385,72.7667041 54.4,71.25 L54.4,8.75 C54.4,6.87223185 52.8777681,5.35 51,5.35 L39.4,5.35 C38.2954305,5.35 37.4,6.2454305 37.4,7.35 C37.4,8.4545695 38.2954305,9.35 39.4,9.35 L50.4,9.35 L50.4,70.05 L4.6,70.05 L4.6,9.35 L15.6,9.35 C16.7045695,9.35 17.6,8.4545695 17.6,7.35 C17.6,6.2454305 16.7045695,5.35 15.6,5.35 L4,5.35 C2.12223185,5.35 0.6,6.87223185 0.6,8.75 L0.6,70.65 Z" id="Path" fill="#000000"></path>
            <path d="M37.8,0 L17.1,0 C15.9954305,0 15.1,0.8954305 15.1,2 L15.1,13 C15.1,14.1045695 15.9954305,15 17.1,15 L37.9,15 C38.4398262,15.0099595 38.9588982,14.792167 39.33,14.4 C39.6819947,14.0234041 39.8534429,13.5127071 39.8,13 L39.8,2 C39.8,0.8954305 38.9045695,0 37.8,0 Z M35.8,11 L19.1,11 L19.1,4 L35.8,4 L35.8,11 Z" id="Shape" fill="#000000" fill-rule="nonzero"></path>
            <circle id="Oval" fill="#FF553F" cx="14.08" cy="28.15" r="3.85"></circle>
            <circle id="Oval" fill="#FF553F" cx="14.08" cy="57.25" r="3.85"></circle>
            <path d="M22.88,30.15 L41.74,30.15 C42.7640437,30.0552163 43.536184,29.1777841 43.5,28.15 C43.5356066,27.650502 43.3693871,27.157592 43.0385675,26.7816606 C42.7077478,26.4057292 42.2399714,26.1781893 41.74,26.15 L22.88,26.15 C21.7754305,26.15 20.88,27.0454305 20.88,28.15 C20.88,29.2545695 21.7754305,30.15 22.88,30.15 Z" id="Path" fill="#000000"></path>
            <path d="M41.74,40.75 L22.88,40.75 C21.7754305,40.75 20.88,41.6454305 20.88,42.75 C20.88,43.8545695 21.7754305,44.75 22.88,44.75 L41.74,44.75 C42.7640437,44.6552163 43.536184,43.7777841 43.5,42.75 C43.5356066,42.250502 43.3693871,41.757592 43.0385675,41.3816606 C42.7077478,41.0057292 42.2399714,40.7781893 41.74,40.75 Z" id="Path" fill="#000000"></path>
            <path d="M36.75,55.25 L22.88,55.25 C21.7754305,55.25 20.88,56.1454305 20.88,57.25 C20.88,58.3545695 21.7754305,59.25 22.88,59.25 L36.75,59.25 C37.7740437,59.1552163 38.546184,58.2777841 38.51,57.25 C38.5428622,56.751147 38.3756779,56.2597489 38.0454074,55.8844415 C37.7151369,55.5091341 37.2489828,55.2808295 36.75,55.25 Z" id="Path" fill="#000000"></path>
            <circle id="Oval" fill="#FF553F" cx="14.08" cy="42.75" r="3.85"></circle>
        </g>
    </g>
</svg>