<?xml version="1.0" encoding="UTF-8"?>
<svg width="84px" height="84px" viewBox="0 0 84 84" version="1.1" xmlns="http://www.w3.org/2000/svg" xmlns:xlink="http://www.w3.org/1999/xlink">
    <!-- Generator: Sketch 52.3 (67297) - http://www.bohemiancoding.com/sketch -->
    <title>Artboard</title>
    <desc>Created with Sketch.</desc>
    <g id="Artboard" stroke="none" stroke-width="1" fill="none" fill-rule="evenodd">
        <g id="jacket-back" transform="translate(6.000000, 3.000000)">
            <path d="M50.8578571,9.28571429 C54.0335714,11.2635714 59.215,15.3492857 60.8214286,19.7135714 L72.4285714,56.3921429 L65.3157143,58.89 L52,30.8564286 C52,30.8564286 53.1142857,59.085 53.6157143,70.7014286 C53.7091401,72.9162654 52.3450061,74.9323198 50.2542857,75.6692857 C41.1595097,78.7632833 31.2969189,78.7632833 22.2021429,75.6692857 C20.094235,74.9516647 18.7157533,72.9255996 18.8221429,70.7014286 C19.3235714,59.0664286 20.4285714,30.8564286 20.4285714,30.8564286 L7.11285714,58.89 L0,56.3921429 L11.6071429,19.7135714 C13.2042857,15.3492857 18.4042857,11.2635714 21.58,9.28571429" id="Stroke-1" stroke="#000000" stroke-width="4" stroke-linecap="round" stroke-linejoin="round"></path>
            <path d="M1.95,50.2171429 L9.92642857,52.975" id="Path" stroke="#000000" stroke-width="4" stroke-linecap="round" stroke-linejoin="round"></path>
            <path d="M70.5435714,50.2171429 L62.5764286,52.975" id="Path" stroke="#000000" stroke-width="4" stroke-linecap="round" stroke-linejoin="round"></path>
            <path d="M22.3878571,8.255 C22.3878571,0.622142857 28.5814286,0 36.2142857,0 C43.8471429,0 50.0407143,0.622142857 50.0407143,8.255 C50.0407143,15.8911256 43.8504114,22.0814286 36.2142857,22.0814286 C28.5781601,22.0814286 22.3878571,15.8911256 22.3878571,8.255 Z" id="Path" stroke="#000000" stroke-width="4" stroke-linecap="round" stroke-linejoin="round"></path>
            <path d="M36.2142857,27.9407143 C39.9408054,27.9407162 43.3002125,30.1860147 44.7254208,33.6292298 C46.1506291,37.0724449 45.360835,41.0351721 42.7244592,43.6688903 C40.0880833,46.3026085 36.1245616,47.0884055 32.6827857,45.6597252 C29.2410098,44.2310448 26.9991006,40.8693749 27.0028571,37.1428571 C27.0130894,32.0612739 31.1326948,27.9458214 36.2142857,27.9407143 Z" id="Fill-11" fill="#FF553F"></path>
            <path d="M18.9707143,67.0428571 C30.0627736,71.3511295 42.3657979,71.3511295 53.4578571,67.0428571" id="Path" stroke="#000000" stroke-width="4" stroke-linecap="round" stroke-linejoin="round"></path>
        </g>
    </g>
</svg>