<svg width="84" height="84" viewBox="0 0 84 84" fill="none" xmlns="http://www.w3.org/2000/svg"><g clip-path="url(#clip0_101_13)"><path d="M42.2469 6.69997C41.3592 6.69997 40.6396 7.42244 40.6396 8.31363C40.6396 9.20484 41.3592 9.92727 42.2469 9.92727C43.1346 9.92727 43.8543 9.20484 43.8543 8.31363C43.8543 7.42244 43.1346 6.69997 42.2469 6.69997Z" fill="black"/><path d="M62.4426 20.0455H22.5082V71.5909H62.4426V20.0455Z" fill="#FF553F" stroke="black" stroke-width="4" stroke-linecap="round" stroke-linejoin="round"/><path d="M14.9691 74.1278C14.978 76.2443 15.5492 78.2697 16.558 79.7616C17.5668 81.2536 18.9313 82.0909 20.3535 82.0909H63.4289C64.8511 82.0909 66.2156 81.2536 67.2244 79.7616C68.2332 78.2697 68.8044 76.2443 68.8133 74.1278V9.92231C68.8133 7.79704 68.246 5.75886 67.2363 4.2561C66.2265 2.75334 64.8569 1.90909 63.4289 1.90909H20.2862C18.8582 1.90909 17.4887 2.75333 16.4789 4.2561C15.4691 5.75886 14.9018 7.79703 14.9018 9.92231L14.9691 74.1278Z" stroke="black" stroke-width="4" stroke-linecap="round"/><path d="M52.6494 55.9999V60.6666C52.6494 61.2854 52.4045 61.879 51.9686 62.3165C51.5327 62.7541 50.9416 63 50.3251 63H34.0555C33.4391 63 32.848 62.7541 32.4121 62.3165C31.9762 61.879 31.7313 61.2854 31.7313 60.6666V55.9999" stroke="black" stroke-width="3" stroke-linecap="round" stroke-linejoin="round"/><path d="M36.3796 50.1666L42.1902 56L48.0007 50.1666" stroke="black" stroke-width="3" stroke-linecap="round" stroke-linejoin="round"/><path d="M42.1904 56V42" stroke="black" stroke-width="3" stroke-linecap="round" stroke-linejoin="round"/><path d="M28.2131 34.9043L31.8845 26.7273H34.3693L38.0407 34.9043H35.2496L33.255 29.9545C33.1993 29.809 33.1511 29.6711 33.1102 29.5406C33.073 29.4063 33.0397 29.2889 33.0099 29.1882H32.9765C32.9468 29.2889 32.9134 29.4063 32.8762 29.5406C32.8428 29.6711 32.7964 29.809 32.7369 29.9545L30.7313 34.9043H28.2131ZM30.2188 33.4501L30.8372 31.7666H35.3053L35.9237 33.4501H30.2188Z" fill="black"/><path d="M38.6758 34.9043V26.7609H43.4003C44.4811 26.7609 45.3019 27.0125 45.8627 27.5159C46.4272 28.0155 46.7095 28.7538 46.7095 29.7307C46.7095 30.6741 46.431 31.4086 45.8738 31.9344C45.3205 32.4565 44.4866 32.7081 43.3724 32.6895H41.1717V34.9043H38.6758ZM41.1717 30.9891H42.8766C43.3631 30.9891 43.7085 30.8885 43.9128 30.6871C44.1171 30.4858 44.2192 30.1763 44.2192 29.7587C44.2192 29.3374 44.1171 29.0316 43.9128 28.8414C43.7085 28.6475 43.3631 28.5506 42.8766 28.5506H41.1717V30.9891Z" fill="black"/><path d="M47.7569 34.9043V26.7609H52.4813C53.5622 26.7609 54.3829 27.0125 54.9438 27.5159C55.5083 28.0155 55.7906 28.7538 55.7906 29.7307C55.7906 30.6741 55.512 31.4086 54.9549 31.9344C54.4015 32.4565 53.5677 32.7081 52.4534 32.6895H50.2528V34.9043H47.7569ZM50.2528 30.9891H51.9576C52.4442 30.9891 52.7896 30.8885 52.9939 30.6871C53.1981 30.4858 53.3003 30.1763 53.3003 29.7587C53.3003 29.3374 53.1981 29.0316 52.9939 28.8414C52.7896 28.6475 52.4442 28.5506 51.9576 28.5506H50.2528V30.9891Z" fill="black"/></g><defs><clipPath id="clip0_101_13"><rect width="58" height="84" fill="white" transform="translate(13)"/></clipPath></defs></svg>