<svg id="Layer_1" data-name="Layer 1" xmlns="http://www.w3.org/2000/svg" viewBox="0 0 68 84"><defs><style>.cls-1{fill:#ff553f;}.cls-2,.cls-3{fill:none;stroke:#000;stroke-linecap:round;stroke-linejoin:round;}.cls-2{stroke-width:4px;}.cls-3{stroke-width:4.65px;}</style></defs><title>4-37-kick-off</title><polygon id="Fill-1" class="cls-1" points="9 67.1 59 67.1 59 18 9 18 9 67.1"/><polygon id="Stroke-2" class="cls-2" points="2 82 66 82 66 2 2 2 2 82"/><path id="Stroke-3" class="cls-2" d="M11,8a2,2,0,1,1-2,2A2,2,0,0,1,11,8Z"/><polygon id="Stroke-5" class="cls-2" points="9 67.1 59 67.1 59 18 9 18 9 67.1"/><path id="Stroke-6" class="cls-2" d="M9,74H34"/><path id="Stroke-9" class="cls-2" d="M19,10H34"/><path class="cls-3" d="M37.16,46.32a7.79,7.79,0,0,1-3.71,8.76A8.35,8.35,0,1,1,24.51,41"/><polyline class="cls-3" points="24.5 40.98 43.72 28.79 48.19 35.84 37.16 46.31"/><line class="cls-3" x1="21.15" y1="50.95" x2="18.1" y2="52.88"/><line class="cls-3" x1="36.72" y1="33.24" x2="42.14" y2="41.41"/></svg>