<?xml version="1.0" encoding="UTF-8"?>
<svg width="84px" height="84px" viewBox="0 0 84 84" version="1.1" xmlns="http://www.w3.org/2000/svg" xmlns:xlink="http://www.w3.org/1999/xlink">
    <!-- Generator: Sketch 52.3 (67297) - http://www.bohemiancoding.com/sketch -->
    <title>Artboard</title>
    <desc>Created with Sketch.</desc>
    <g id="Artboard" stroke="none" stroke-width="1" fill="none" fill-rule="evenodd">
        <g id="leaflet" transform="translate(2.000000, 15.000000)">
            <polygon id="Path" fill="#FF553F" points="27.45 32.59 27.76 49.18 52.65 53.71 52.26 36.43"></polygon>
            <circle id="Oval" fill="#FF553F" cx="13.33" cy="16.83" r="5.58"></circle>
            <polygon id="Path" stroke="#000000" stroke-width="4" stroke-linecap="round" stroke-linejoin="round" points="26.67 50 0 55 0 5 26.67 0"></polygon>
            <polygon id="Path" stroke="#000000" stroke-width="4" stroke-linecap="round" stroke-linejoin="round" points="53.33 55 26.67 50 26.67 0 53.33 5"></polygon>
            <polygon id="Path" stroke="#000000" stroke-width="4" stroke-linecap="round" stroke-linejoin="round" points="80 51 53.33 55 53.33 5 80 1"></polygon>
            <circle id="Oval" stroke="#000000" stroke-width="4" stroke-linecap="round" stroke-linejoin="round" cx="13.33" cy="16.83" r="5.58"></circle>
            <path d="M53.33,35.84 L26.67,31.32" id="Path" stroke="#000000" stroke-width="4" stroke-linecap="round" stroke-linejoin="round"></path>
            <path d="M7.57,31.89 L19.1,29.73" id="Path" stroke="#000000" stroke-width="4" stroke-linecap="round" stroke-linejoin="round"></path>
            <path d="M7.57,37.89 L19.1,35.73" id="Path" stroke="#000000" stroke-width="4" stroke-linecap="round" stroke-linejoin="round"></path>
            <path d="M7.57,43.89 L19.1,41.73" id="Path" stroke="#000000" stroke-width="4" stroke-linecap="round" stroke-linejoin="round"></path>
            <path d="M60.9,23.89 L69.73,22.23" id="Path" stroke="#000000" stroke-width="4" stroke-linecap="round" stroke-linejoin="round"></path>
            <path d="M60.9,29.89 L72.43,27.73" id="Path" stroke="#000000" stroke-width="4" stroke-linecap="round" stroke-linejoin="round"></path>
            <path d="M60.9,35.89 L69.73,34.23" id="Path" stroke="#000000" stroke-width="4" stroke-linecap="round" stroke-linejoin="round"></path>
        </g>
    </g>
</svg>