<svg id="Layer_1" data-name="Layer 1" xmlns="http://www.w3.org/2000/svg" viewBox="0 0 68 84"><defs><style>.cls-1{fill:#ff553f;}.cls-2{fill:none;stroke-linecap:round;stroke-width:4px;}.cls-2,.cls-3{stroke:#000;stroke-linejoin:round;}.cls-3{stroke-width:0.55px;}</style></defs><title>4-51-Live-Action-Widget</title><polygon id="Fill-1" class="cls-1" points="9 67.1 59 67.1 59 18 9 18 9 67.1"/><polygon id="Stroke-2" class="cls-2" points="2 82 66 82 66 2 2 2 2 82"/><path id="Stroke-3" class="cls-2" d="M11,8a2,2,0,1,1-2,2A2,2,0,0,1,11,8Z"/><polygon id="Stroke-5" class="cls-2" points="9 67.1 59 67.1 59 18 9 18 9 67.1"/><path id="Stroke-6" class="cls-2" d="M9,74H34"/><path id="Stroke-9" class="cls-2" d="M19,10H34"/><line class="cls-2" x1="17.89" y1="56.21" x2="49.11" y2="56.21"/><line class="cls-2" x1="39.89" y1="50.21" x2="49.11" y2="50.21"/><path d="M21,27l1,2a.47.47,0,0,0,.34.24l2.23.33a.44.44,0,0,1,.25.76l-1.61,1.57a.44.44,0,0,0-.13.4l.38,2.22a.45.45,0,0,1-.65.48l-2-1a.43.43,0,0,0-.41,0l-2,1a.45.45,0,0,1-.65-.48l.38-2.22a.44.44,0,0,0-.13-.4l-1.61-1.57a.44.44,0,0,1,.25-.76l2.23-.33a.47.47,0,0,0,.34-.24l1-2A.46.46,0,0,1,21,27Z"/><path class="cls-3" d="M21.45,45.13h1a.31.31,0,0,1,.13,0l1.91.83a.34.34,0,0,1,.18.44l-.4,1a.33.33,0,0,1-.35.21l-1-.11a.33.33,0,0,0-.38.33v3.71a.34.34,0,0,1-.34.33H19a.34.34,0,0,1-.34-.33V47.85a.33.33,0,0,0-.38-.33l-1,.11a.33.33,0,0,1-.35-.21l-.4-1a.34.34,0,0,1,.18-.44l1.91-.83a.31.31,0,0,1,.13,0h2.77Z"/><circle class="cls-1" cx="20.57" cy="44.57" r="0.83"/><line class="cls-2" x1="17.89" y1="39.21" x2="49.11" y2="39.21"/><line class="cls-2" x1="39.89" y1="33.21" x2="49.11" y2="33.21"/></svg>