<?xml version="1.0" encoding="UTF-8"?>
<svg width="68px" height="84px" viewBox="0 0 68 84" version="1.1" xmlns="http://www.w3.org/2000/svg" xmlns:xlink="http://www.w3.org/1999/xlink">
    <!-- Generator: Sketch 52.3 (67297) - http://www.bohemiancoding.com/sketch -->
    <title>Artboard</title>
    <desc>Created with Sketch.</desc>
    <g id="Artboard" stroke="none" stroke-width="1" fill="none" fill-rule="evenodd">
        <g id="media-goals" transform="translate(2.000000, 2.000000)">
            <polygon id="Fill-1" fill="#FF553F" points="7 65.1 57 65.1 57 16 7 16"></polygon>
            <polygon id="Stroke-2" stroke="#000000" stroke-width="4" stroke-linecap="round" stroke-linejoin="round" points="0 80 64 80 64 0 0 0"></polygon>
            <path d="M9,6 C10.1045695,6 11,6.8954305 11,8 C11,9.1045695 10.1045695,10 9,10 C7.8954305,10 7,9.1045695 7,8 C7,6.8954305 7.8954305,6 9,6 Z" id="Stroke-3" stroke="#000000" stroke-width="4" stroke-linecap="round" stroke-linejoin="round"></path>
            <polygon id="Stroke-5" stroke="#000000" stroke-width="4" stroke-linecap="round" stroke-linejoin="round" points="7 65.1 57 65.1 57 16 7 16"></polygon>
            <path d="M7,72 L32,72" id="Stroke-6" stroke="#000000" stroke-width="4" stroke-linecap="round" stroke-linejoin="round"></path>
            <path d="M17,8 L32,8" id="Stroke-9" stroke="#000000" stroke-width="4" stroke-linecap="round" stroke-linejoin="round"></path>
            <path d="M30,42.68 L49,42.68" id="Stroke-6-2" stroke="#000000" stroke-width="4" stroke-linecap="round" stroke-linejoin="round"></path>
            <path d="M35,48.68 L49,48.68" id="Stroke-6-3" stroke="#000000" stroke-width="4" stroke-linecap="round" stroke-linejoin="round"></path>
            <path d="M21.65,35.51 C20.5049558,35.8764191 19.3121065,36.0718577 18.11,36.09 C16.5541182,36.2124569 15.012685,35.7166113 13.82,34.71 C12.8400054,33.7292438 12.311241,32.3856026 12.36,31 C12.36,27.43 15.03,25.62 18.36,25.62 C19.3839591,25.5750908 20.4059552,25.7454235 21.36,26.12 L20.82,28.32 C20.0512458,27.999684 19.2222619,27.8495799 18.39,27.88 C17.5607618,27.7838333 16.7322029,28.0653999 16.133255,28.6469027 C15.5343071,29.2284055 15.2283794,30.0482822 15.3,30.88 C15.239262,31.6751341 15.5216723,32.4582549 16.0759181,33.0316125 C16.6301638,33.6049702 17.4032643,33.9137571 18.2,33.88 C18.4690798,33.8903484 18.7382977,33.8634266 19,33.8 L19,32 L17.64,32 L17.64,29.91 L21.64,29.91 L21.65,35.51 Z" id="Path" stroke="#000000" stroke-width="0.27" fill="#000000" stroke-linejoin="round"></path>
            <path d="M27.87,36.15 C24.7,36.15 22.95,33.77 22.95,30.93 C22.95,28.09 24.89,25.58 28.04,25.58 C31.34,25.58 33.04,28.03 33.04,30.76 C33.04,34.05 31.04,36.15 27.92,36.15 L27.87,36.15 Z M28,34 C29.32,34 30.1,32.72 30.1,30.87 C30.1,29.02 29.31,27.77 27.97,27.77 C26.63,27.77 25.84,29.11 25.84,30.88 C25.84,32.65 26.66,34 28,34 Z" id="Shape" stroke="#000000" stroke-width="0.27" fill="#000000" fill-rule="nonzero" stroke-linejoin="round"></path>
            <path d="M36.92,33.61 L36.34,36 L33.5,36 L36.5,25.77 L40.14,25.77 L43.17,36 L40.17,36 L39.52,33.63 L36.92,33.61 Z M39.18,31.61 L38.71,29.78 C38.56,29.2 38.36,28.36 38.21,27.78 C38.06,28.38 37.9,29.22 37.75,29.78 L37.31,31.61 L39.18,31.61 Z" id="Shape" stroke="#000000" stroke-width="0.27" fill="#000000" fill-rule="nonzero" stroke-linejoin="round"></path>
            <polygon id="Path" stroke="#000000" stroke-width="0.27" fill="#000000" stroke-linejoin="round" points="44.49 25.75 47.24 25.75 47.24 33.69 51.17 33.69 51.17 36 44.49 36"></polygon>
            <path d="M18.5,54.4 C17.3339649,54.400003 16.2158331,53.936114 15.3922603,53.1106653 C14.5686876,52.2852165 14.1073439,51.166032 14.11,50 L14.1099886,42.68 L22.8900458,42.68 L22.89,50 C22.8953312,51.1668447 22.4348481,52.2875832 21.6106949,53.1136138 C20.7865417,53.9396443 19.6668538,54.4026762 18.5,54.4 Z" id="Path" stroke="#000000" stroke-width="4" stroke-linecap="round" stroke-linejoin="round"></path>
        </g>
    </g>
</svg>