<?xml version="1.0" encoding="UTF-8"?>
<svg width="68px" height="84px" viewBox="0 0 68 84" version="1.1" xmlns="http://www.w3.org/2000/svg" xmlns:xlink="http://www.w3.org/1999/xlink">
    <!-- Generator: Sketch 52.3 (67297) - http://www.bohemiancoding.com/sketch -->
    <title>Artboard</title>
    <desc>Created with Sketch.</desc>
    <g id="Artboard" stroke="none" stroke-width="1" fill="none" fill-rule="evenodd">
        <g id="media-line-ups" transform="translate(2.000000, 2.000000)">
            <polygon id="Fill-1" fill="#FF553F" points="7 65.1 57 65.1 57 16 7 16"></polygon>
            <polygon id="Stroke-2" stroke="#000000" stroke-width="4" stroke-linecap="round" stroke-linejoin="round" points="0 80 64 80 64 0 0 0"></polygon>
            <path d="M9,6 C10.1045695,6 11,6.8954305 11,8 C11,9.1045695 10.1045695,10 9,10 C7.8954305,10 7,9.1045695 7,8 C7,6.8954305 7.8954305,6 9,6 Z" id="Stroke-3" stroke="#000000" stroke-width="4" stroke-linecap="round" stroke-linejoin="round"></path>
            <polygon id="Stroke-5" stroke="#000000" stroke-width="4" stroke-linecap="round" stroke-linejoin="round" points="7 65.1 57 65.1 57 16 7 16"></polygon>
            <path d="M7,72 L32,72" id="Stroke-6" stroke="#000000" stroke-width="4" stroke-linecap="round" stroke-linejoin="round"></path>
            <path d="M17,8 L32,8" id="Stroke-9" stroke="#000000" stroke-width="4" stroke-linecap="round" stroke-linejoin="round"></path>
            <circle id="Oval" fill="#000000" cx="32" cy="54.48" r="2.77"></circle>
            <circle id="Oval" fill="#000000" cx="17.55" cy="42.53" r="2.77"></circle>
            <circle id="Oval" fill="#000000" cx="27.18" cy="45.53" r="2.77"></circle>
            <circle id="Oval" fill="#000000" cx="36.82" cy="45.53" r="2.77"></circle>
            <circle id="Oval" fill="#000000" cx="46.45" cy="42.53" r="2.77"></circle>
            <circle id="Oval" fill="#000000" cx="17.55" cy="32.58" r="2.77"></circle>
            <circle id="Oval" fill="#000000" cx="27.18" cy="34.58" r="2.77"></circle>
            <circle id="Oval" fill="#000000" cx="36.82" cy="34.58" r="2.77"></circle>
            <circle id="Oval" fill="#000000" cx="46.45" cy="32.58" r="2.77"></circle>
            <circle id="Oval" fill="#000000" cx="27.18" cy="24.63" r="2.77"></circle>
            <circle id="Oval" fill="#000000" cx="36.82" cy="24.63" r="2.77"></circle>
            <rect id="Rectangle" stroke="#000000" stroke-width="4.65" stroke-linecap="round" stroke-linejoin="round" x="20.91" y="56" width="22.19" height="8.68"></rect>
        </g>
    </g>
</svg>