<svg xmlns="http://www.w3.org/2000/svg" xmlns:xlink="http://www.w3.org/1999/xlink" width="68" height="84" viewBox="0 0 68 84"><defs><path id="nx9pb" d="M21 55h42V22H21z"/><path id="nx9pc" d="M10 82h64V2H10z"/><path id="nx9pd" d="M19 8a2 2 0 1 1 0 4 2 2 0 0 1 0-4z"/><path id="nx9pa" d="M17 23h22v31H17z"/><path id="nx9pf" d="M20 26a12.5 12.5 0 1 1-.01 25.01A12.5 12.5 0 0 1 20 26z"/><path id="nx9pg" d="M17 59h50V18H17z"/><path id="nx9ph" d="M17 72h25"/><path id="nx9pi" d="M37 30h3"/><path id="nx9pj" d="M46 46h4"/><path id="nx9pk" d="M46 30h2"/><path id="nx9pl" d="M38 46h2"/><path id="nx9pm" d="M40 38h4"/><path id="nx9pn" d="M50 38h8"/><path id="nx9po" d="M17 66h13"/><path id="nx9pp" d="M36 66h13"/><path id="nx9pq" d="M27 10h15"/><path id="nx9pr" d="M56 76V66h10v10l-5-4z"/><clipPath id="nx9pe"><use xlink:href="#nx9pa"/></clipPath></defs><g><g transform="translate(-8)"><g><use fill="#ff553f" xlink:href="#nx9pb"/></g><g><use fill="#fff" fill-opacity="0" stroke="#000" stroke-linecap="round" stroke-linejoin="round" stroke-miterlimit="50" stroke-width="4" xlink:href="#nx9pc"/></g><g><use fill="#fff" fill-opacity="0" stroke="#000" stroke-linecap="round" stroke-linejoin="round" stroke-miterlimit="50" stroke-width="4" xlink:href="#nx9pd"/></g><g><g/><g clip-path="url(#nx9pe)"><use fill="#fff" fill-opacity="0" stroke="#000" stroke-linecap="round" stroke-linejoin="round" stroke-miterlimit="50" stroke-width="4" xlink:href="#nx9pf"/></g></g><g><use fill="#fff" fill-opacity="0" stroke="#000" stroke-linecap="round" stroke-linejoin="round" stroke-miterlimit="50" stroke-width="4" xlink:href="#nx9pg"/></g><g><use fill="#fff" fill-opacity="0" stroke="#000" stroke-linecap="round" stroke-linejoin="round" stroke-miterlimit="50" stroke-width="4" xlink:href="#nx9ph"/></g><g><use fill="#fff" fill-opacity="0" stroke="#000" stroke-linecap="round" stroke-linejoin="round" stroke-miterlimit="50" stroke-width="4" xlink:href="#nx9pi"/></g><g><use fill="#fff" fill-opacity="0" stroke="#000" stroke-linecap="round" stroke-linejoin="round" stroke-miterlimit="50" stroke-width="4" xlink:href="#nx9pj"/></g><g><use fill="#fff" fill-opacity="0" stroke="#000" stroke-linecap="round" stroke-linejoin="round" stroke-miterlimit="50" stroke-width="4" xlink:href="#nx9pk"/></g><g><use fill="#fff" fill-opacity="0" stroke="#000" stroke-linecap="round" stroke-linejoin="round" stroke-miterlimit="50" stroke-width="4" xlink:href="#nx9pl"/></g><g><use fill="#fff" fill-opacity="0" stroke="#000" stroke-linecap="round" stroke-linejoin="round" stroke-miterlimit="50" stroke-width="4" xlink:href="#nx9pm"/></g><g><use fill="#fff" fill-opacity="0" stroke="#000" stroke-linecap="round" stroke-linejoin="round" stroke-miterlimit="50" stroke-width="4" xlink:href="#nx9pn"/></g><g><use fill="#fff" fill-opacity="0" stroke="#000" stroke-linecap="round" stroke-linejoin="round" stroke-miterlimit="50" stroke-width="4" xlink:href="#nx9po"/></g><g><use fill="#fff" fill-opacity="0" stroke="#000" stroke-linecap="round" stroke-linejoin="round" stroke-miterlimit="50" stroke-width="4" xlink:href="#nx9pp"/></g><g><use fill="#fff" fill-opacity="0" stroke="#000" stroke-linecap="round" stroke-linejoin="round" stroke-miterlimit="50" stroke-width="4" xlink:href="#nx9pq"/></g><g><use fill="#fff" fill-opacity="0" stroke="#000" stroke-linecap="round" stroke-linejoin="round" stroke-miterlimit="50" stroke-width="4" xlink:href="#nx9pr"/></g></g></g></svg>