<?xml version="1.0" encoding="UTF-8"?>
<svg width="84px" height="84px" viewBox="0 0 84 84" version="1.1" xmlns="http://www.w3.org/2000/svg" xmlns:xlink="http://www.w3.org/1999/xlink">
    <!-- Generator: Sketch 52.3 (67297) - http://www.bohemiancoding.com/sketch -->
    <title>Artboard Copy</title>
    <desc>Created with Sketch.</desc>
    <g id="Artboard-Copy" stroke="none" stroke-width="1" fill="none" fill-rule="evenodd">
        <g id="media" transform="translate(6.000000, 8.000000)">
            <path d="M46.47,52.07 C46.2729872,52.1904135 46.0502241,52.2623831 45.82,52.28 C45.634885,52.2861284 45.450645,52.2520098 45.28,52.18 C44.8578565,51.9936852 44.6007128,51.5597552 44.64,51.1 L44.64,39.9 C44.698339,39.4896716 44.9318325,39.1248381 45.28,38.9 C45.6464497,38.6810381 46.1035503,38.6810381 46.47,38.9 L55.84,44.49 C56.1874699,44.7024294 56.3966702,45.0827935 56.39,45.49 C56.3736383,45.891142 56.1700145,46.261367 55.84,46.49 L46.47,52.07 Z" id="Path" fill="#FF553F"></path>
            <path d="M71.39,27.67 L71.39,61.92 C71.39,62.4722847 70.9422847,62.92 70.39,62.92 L35.73,62.92 L35.73,66.11 C35.73,66.6622847 35.2822847,67.11 34.73,67.11 L1.58,67.11 C1.02771525,67.11 0.58,66.6622847 0.58,66.11 L0.58,39 C0.58,38.4477153 1.02771525,38 1.58,38 L16.45,38 L16.45,1.92 C16.45,1.36771525 16.8977153,0.92 17.45,0.92 L41.66,0.92 C41.9229673,0.91311138 42.1780582,1.0101178 42.37,1.19 L53.37,11.89 C53.5498822,12.0819418 53.6468886,12.3370327 53.64,12.6 L53.64,26.7 L70.54,26.7 C70.7825418,26.7127311 71.0096423,26.8229488 71.1697103,27.0056147 C71.3297783,27.1882805 71.4092242,27.4278864 71.39,27.67 Z M69.54,61 L69.54,28.84 L26.27,28.84 L26.27,37.68 C26.27,37.76 26.18,37.94 26.18,38.03 L34.76,38.03 C35.3122847,38.03 35.76,38.4777153 35.76,39.03 L35.76,61 L69.54,61 Z M51.66,26.7 L51.66,13.78 L41.4,13.78 C40.8477153,13.78 40.4,13.3322847 40.4,12.78 L40.4,2.89 L18.4,2.89 L18.4,38 L24.4,38 C24.3299229,37.8974798 24.2980701,37.7736077 24.31,37.65 L24.31,27.65 C24.31,27.0977153 24.7577153,26.65 25.31,26.65 L51.66,26.7 Z M42.37,11.92 L50.51,11.92 L42.37,3.92 L42.37,11.92 Z M33.87,65.19 L33.87,58.29 L25,49.44 L14,60.44 C13.6340034,60.800896 13.0459966,60.800896 12.68,60.44 L9.28,57 L2.55,63.68 L2.55,65.19 L33.87,65.19 Z M33.87,55.54 L33.87,40 L2.64,40 L2.64,61 L8.64,55 C9.01750626,54.6683541 9.58249374,54.6683541 9.96,55 L13.41,58.45 L24.41,47.45 C24.7759966,47.089104 25.3640034,47.089104 25.73,47.45 L33.87,55.54 Z" id="Shape" fill="#000000" fill-rule="nonzero"></path>
            <path d="M70.51,26.7 L53.61,26.7 L53.61,12.63 C53.6168886,12.3670327 53.5198822,12.1119418 53.34,11.92 L42.34,1.22 C42.1481727,1.06540528 41.9060283,0.987064424 41.66,1 L17.42,1 C16.8677153,1 16.42,1.44771525 16.42,2 L16.42,38 L1.58,38 C1.02771525,38 0.58,38.4477153 0.58,39 L0.58,66.08 C0.58,66.6322847 1.02771525,67.08 1.58,67.08 L34.76,67.08 C35.3122847,67.08 35.76,66.6322847 35.76,66.08 L35.76,62.89 L70.42,62.89 C70.9722847,62.89 71.42,62.4422847 71.42,61.89 L71.42,27.67 C71.4397102,27.4176778 71.3522684,27.1687177 71.1791058,26.9841378 C71.0059432,26.799558 70.7630656,26.6964192 70.51,26.7 Z" id="Path" stroke="#000000" stroke-width="2"></path>
            <polygon id="Path" stroke="#000000" stroke-width="2" points="42.37 3.96 50.51 11.92 42.37 11.92"></polygon>
            <path d="M18.39,2.89 L40.39,2.89 L40.39,12.81 C40.39,13.3622847 40.8377153,13.81 41.39,13.81 L51.66,13.81 L51.66,26.7 L25.29,26.7 C24.7377153,26.7 24.29,27.1477153 24.29,27.7 L24.29,37.7 C24.2780701,37.8236077 24.3099229,37.9474798 24.38,38.05 L18.38,38.05 L18.39,2.89 Z" id="Path" stroke="#000000" stroke-width="2"></path>
            <path d="M33.87,65.19 L2.55,65.19 L2.55,63.68 L9.28,57 L12.73,60.45 C13.0959966,60.810896 13.6840034,60.810896 14.05,60.45 L25.05,49.45 L33.89,58.3 L33.87,65.19 Z" id="Path" stroke="#000000" stroke-width="2"></path>
            <path d="M33.87,55.54 L25.73,47.41 C25.3640034,47.049104 24.7759966,47.049104 24.41,47.41 L13.41,58.41 L10,54.92 C9.62249374,54.5883541 9.05750626,54.5883541 8.68,54.92 L2.68,60.92 L2.68,40 L33.87,40 L33.87,55.54 Z" id="Path" stroke="#000000" stroke-width="2"></path>
            <path d="M69.54,61 L35.73,61 L35.73,39 C35.73,38.4477153 35.2822847,38 34.73,38 L26.18,38 C26.18,37.91 26.27,37.73 26.27,37.65 L26.27,28.84 L69.54,28.84 L69.54,61 Z" id="Path" stroke="#000000" stroke-width="2"></path>
        </g>
    </g>
</svg>