<?xml version="1.0" encoding="UTF-8"?>
<svg width="68px" height="84px" viewBox="0 0 68 84" version="1.1" xmlns="http://www.w3.org/2000/svg" xmlns:xlink="http://www.w3.org/1999/xlink">
    <!-- Generator: Sketch 52.3 (67297) - http://www.bohemiancoding.com/sketch -->
    <title>Artboard</title>
    <desc>Created with Sketch.</desc>
    <g id="Artboard" stroke="none" stroke-width="1" fill="none" fill-rule="evenodd">
        <g id="media-substit" transform="translate(2.000000, 2.000000)">
            <polygon id="Fill-1" fill="#FF553F" points="7 65.1 57 65.1 57 16 7 16"></polygon>
            <polygon id="Stroke-2" stroke="#000000" stroke-width="4" stroke-linecap="round" stroke-linejoin="round" points="0 80 64 80 64 0 0 0"></polygon>
            <path d="M9,6 C10.1045695,6 11,6.8954305 11,8 C11,9.1045695 10.1045695,10 9,10 C7.8954305,10 7,9.1045695 7,8 C7,6.8954305 7.8954305,6 9,6 Z" id="Stroke-3" stroke="#000000" stroke-width="4" stroke-linecap="round" stroke-linejoin="round"></path>
            <polygon id="Stroke-5" stroke="#000000" stroke-width="4" stroke-linecap="round" stroke-linejoin="round" points="7 65.1 57 65.1 57 16 7 16"></polygon>
            <path d="M7,72 L32,72" id="Stroke-6" stroke="#000000" stroke-width="4" stroke-linecap="round" stroke-linejoin="round"></path>
            <path d="M17,8 L32,8" id="Stroke-9" stroke="#000000" stroke-width="4" stroke-linecap="round" stroke-linejoin="round"></path>
            <path d="M23.69,33.44 L25.69,33.44 C25.778946,33.4411163 25.8669842,33.4580467 25.95,33.49 L29.68,35.1 C29.8428097,35.1757845 29.9683809,35.3137561 30.0285432,35.4829624 C30.0887054,35.6521688 30.0784221,35.8384442 30,36 L29.21,37.94 C29.0974557,38.2107287 28.8219589,38.376837 28.53,38.35 L26.53,38.12 C26.3449114,38.1002495 26.1600883,38.1595743 26.0210711,38.2833568 C25.8820539,38.4071392 25.8017695,38.583869 25.8,38.77 L25.8,45.97 C25.8027271,46.1458647 25.7340676,46.3153275 25.6096975,46.4396975 C25.4853275,46.5640676 25.3158647,46.6327271 25.14,46.63 L18.83,46.63 C18.6558626,46.6300206 18.4889988,46.5601677 18.3668086,46.4360976 C18.2446184,46.3120275 18.177321,46.1441168 18.18,45.97 L18.18,38.77 C18.1754454,38.5829828 18.09291,38.4063866 17.9523591,38.2829297 C17.8118081,38.1594728 17.626043,38.1003996 17.44,38.12 L15.44,38.35 C15.1480411,38.376837 14.8725443,38.2107287 14.76,37.94 L14,36 C13.8677454,35.6686388 14.022766,35.29216 14.35,35.15 L18.07,33.54 C18.1530158,33.5080467 18.241054,33.4911163 18.33,33.49 L23.71,33.49 L23.69,33.44 Z" id="Path" stroke="#000000" stroke-width="1.07" fill="#000000" stroke-linejoin="round"></path>
            <circle id="Oval" fill="#FF553F" cx="21.99" cy="32.33" r="1.61"></circle>
            <path d="M43.71,33.44 L45.71,33.44 C45.798946,33.4411163 45.8869842,33.4580467 45.97,33.49 L49.69,35.1 C49.8530031,35.1754772 49.9782002,35.3141331 50.0366996,35.4839701 C50.0951991,35.6538072 50.0819464,35.8401514 50,36 L49.21,37.94 C49.0974557,38.2107287 48.8219589,38.376837 48.53,38.35 L46.53,38.12 C46.343957,38.1003996 46.1581919,38.1594728 46.0176409,38.2829297 C45.87709,38.4063866 45.7945546,38.5829828 45.79,38.77 L45.79,45.97 C45.792679,46.1441168 45.7253816,46.3120275 45.6031914,46.4360976 C45.4810012,46.5601677 45.3141374,46.6300206 45.14,46.63 L38.86,46.63 C38.6841353,46.6327271 38.5146725,46.5640676 38.3903025,46.4396975 C38.2659324,46.3153275 38.1972729,46.1458647 38.2,45.97 L38.2,38.77 C38.1982305,38.583869 38.1179461,38.4071392 37.9789289,38.2833568 C37.8399117,38.1595743 37.6550886,38.1002495 37.47,38.12 L35.47,38.35 C35.1780411,38.376837 34.9025443,38.2107287 34.79,37.94 L34,36 C33.8732585,35.6686885 34.0267157,35.2960067 34.35,35.15 L38.08,33.54 C38.1630158,33.5080467 38.251054,33.4911163 38.34,33.49 L43.71,33.49 L43.71,33.44 Z" id="Path" stroke="#000000" stroke-width="1.07" fill="#000000" stroke-linejoin="round"></path>
            <circle id="Oval" fill="#FF553F" cx="42.01" cy="32.33" r="1.61"></circle>
            <path d="M24.53,28.07 C23.9434961,28.0754743 23.3841512,27.8232207 23,27.38 C22.2770454,26.5458705 22.3665577,25.2837467 23.2,24.56 C27.5879451,20.7677743 34.0695344,20.6875461 38.55,24.37 C39.4032799,25.0741631 39.5241631,26.3367201 38.82,27.19 C38.1158369,28.0432799 36.8532799,28.1641631 36,27.46 C33.0298443,25.0166825 28.7317356,25.0673479 25.82,27.58 C25.4617484,27.8912008 25.0045144,28.0648788 24.53,28.07 Z" id="Path" fill="#000000"></path>
            <path d="M34.67,28.39 L40.91,29.39 C41.0765066,29.4167294 41.2448262,29.3541198 41.3533891,29.2250734 C41.461952,29.0960269 41.4948313,28.9194755 41.44,28.76 L39.22,22.83 C39.1614975,22.6701755 39.0211627,22.5544654 38.853118,22.5274953 C38.6850734,22.5005252 38.5155777,22.5665094 38.41,22.7 L34.41,27.57 C34.2786356,27.6966159 34.2304122,27.8867598 34.2855568,28.0606771 C34.3407013,28.2345945 34.4896782,28.3622115 34.67,28.39 Z" id="Path" fill="#000000"></path>
            <path d="M39.47,53 C40.3043019,53.0006044 41.0505816,53.5190405 41.342304,54.3006786 C41.6340265,55.0823166 41.4098983,55.9629277 40.78,56.51 C36.3920549,60.3022257 29.9104656,60.3824539 25.43,56.7 C24.6419398,55.9761292 24.5632545,54.7602083 25.2514456,53.9408056 C25.9396368,53.1214029 27.1508689,52.988844 28,53.64 C30.9701557,56.0833175 35.2682644,56.0326521 38.18,53.52 C38.5339402,53.1979159 38.9916363,53.0134182 39.47,53 Z" id="Path" fill="#000000"></path>
            <path d="M29.33,52.72 L23.09,51.72 C22.9210517,51.6914889 22.7497161,51.7551948 22.6404349,51.887157 C22.5311536,52.0191193 22.5004988,52.1993263 22.56,52.36 L24.78,58.28 C24.8362002,58.441289 24.9754761,58.5593941 25.1437806,58.5884838 C25.3120851,58.6175734 25.4829232,58.5530683 25.59,58.42 L29.59,53.54 C29.7213644,53.4133841 29.7695878,53.2232402 29.7144432,53.0493229 C29.6592987,52.8754055 29.5103218,52.7477885 29.33,52.72 Z" id="Path" fill="#000000"></path>
        </g>
    </g>
</svg>