<?xml version="1.0" encoding="UTF-8"?>
<svg width="68px" height="84px" viewBox="0 0 68 84" version="1.1" xmlns="http://www.w3.org/2000/svg" xmlns:xlink="http://www.w3.org/1999/xlink">
    <!-- Generator: Sketch 52.3 (67297) - http://www.bohemiancoding.com/sketch -->
    <title>Artboard</title>
    <desc>Created with Sketch.</desc>
    <g id="Artboard" stroke="none" stroke-width="1" fill="none" fill-rule="evenodd">
        <g id="media-bday" transform="translate(2.000000, 2.000000)">
            <polygon id="Fill-1" fill="#FF553F" points="7 65.1 57 65.1 57 16 7 16"></polygon>
            <polygon id="Stroke-2" stroke="#000000" stroke-width="4" stroke-linecap="round" stroke-linejoin="round" points="0 80 64 80 64 0 0 0"></polygon>
            <path d="M9,6 C10.1045695,6 11,6.8954305 11,8 C11,9.1045695 10.1045695,10 9,10 C7.8954305,10 7,9.1045695 7,8 C7,6.8954305 7.8954305,6 9,6 Z" id="Stroke-3" stroke="#000000" stroke-width="4" stroke-linecap="round" stroke-linejoin="round"></path>
            <polygon id="Stroke-5" stroke="#000000" stroke-width="4" stroke-linecap="round" stroke-linejoin="round" points="7 65.1 57 65.1 57 16 7 16"></polygon>
            <path d="M7,72 L32,72" id="Stroke-6" stroke="#000000" stroke-width="4" stroke-linecap="round" stroke-linejoin="round"></path>
            <path d="M17,8 L32,8" id="Stroke-9" stroke="#000000" stroke-width="4" stroke-linecap="round" stroke-linejoin="round"></path>
            <polyline id="Path" stroke="#000000" stroke-width="4.36" stroke-linecap="round" stroke-linejoin="round" points="17.57 63.1 17.57 52.55 46.51 52.55 46.51 63.1"></polyline>
            <rect id="Rectangle" stroke="#000000" stroke-width="4.36" stroke-linecap="round" stroke-linejoin="round" x="22.55" y="41.32" width="18.99" height="11.23"></rect>
            <path d="M32,24.2 L29.07,30.93 C28.6328581,31.9186412 28.7261283,33.0613999 29.3177993,33.966071 C29.9094704,34.870742 30.9190345,35.4142282 32,35.41 C33.0809655,35.4142282 34.0905296,34.870742 34.6822007,33.966071 C35.2738717,33.0613999 35.3671419,31.9186412 34.93,30.93 L32,24.2 Z" id="Path" stroke="#000000" stroke-width="4" stroke-linecap="round" stroke-linejoin="round"></path>
            <path d="M32,39.32 L32,35.41" id="Path" stroke="#000000" stroke-width="4" stroke-linecap="round" stroke-linejoin="round"></path>
        </g>
    </g>
</svg>