<svg xmlns="http://www.w3.org/2000/svg" xmlns:xlink="http://www.w3.org/1999/xlink" width="84" height="80" viewBox="0 0 84 80"><defs><path id="sexwa" d="M2 66h80V18H2z"/><path id="sexwb" d="M42 18v48"/><path id="sexwc" d="M42 34a8 8 0 1 1 0 16 8 8 0 0 1 0-16z"/><path id="sexwd" d="M16 34a8 8 0 0 1 0 16"/><path id="sexwe" d="M68 34a8 8 0 0 0 0 16"/><path id="sexwf" d="M68 54h14V30H68z"/><path id="sexwg" d="M74 48h8V36h-8z"/><path id="sexwh" d="M2 12h22V4H2z"/><path id="sexwi" d="M31 12h22V4H31z"/><path id="sexwj" d="M60 12h22V4H60z"/><path id="sexwk" d="M2 80h22v-8H2z"/><path id="sexwl" d="M31 80h22v-8H31z"/><path id="sexwm" d="M60 80h22v-8H60z"/><path id="sexwn" d="M2 54h14V30H2z"/><path id="sexwo" d="M2 48h8V36H2z"/></defs><g><g transform="translate(0 -2)"><g><use fill="#fff" fill-opacity="0" stroke="#000" stroke-linecap="round" stroke-linejoin="round" stroke-miterlimit="50" stroke-width="4" xlink:href="#sexwa"/></g><g><use fill="#fff" fill-opacity="0" stroke="#000" stroke-linecap="round" stroke-linejoin="round" stroke-miterlimit="50" stroke-width="4" xlink:href="#sexwb"/></g><g><use fill="#fff" fill-opacity="0" stroke="#000" stroke-linecap="round" stroke-linejoin="round" stroke-miterlimit="50" stroke-width="4" xlink:href="#sexwc"/></g><g><use fill="#fff" fill-opacity="0" stroke="#000" stroke-linecap="round" stroke-linejoin="round" stroke-miterlimit="50" stroke-width="4" xlink:href="#sexwd"/></g><g><use fill="#fff" fill-opacity="0" stroke="#000" stroke-linecap="round" stroke-linejoin="round" stroke-miterlimit="50" stroke-width="4" xlink:href="#sexwe"/></g><g><use fill="#fff" fill-opacity="0" stroke="#000" stroke-linecap="round" stroke-linejoin="round" stroke-miterlimit="50" stroke-width="4" xlink:href="#sexwf"/></g><g><use fill="#fff" fill-opacity="0" stroke="#000" stroke-linecap="round" stroke-linejoin="round" stroke-miterlimit="50" stroke-width="4" xlink:href="#sexwg"/></g><g><use fill="#ff553f" xlink:href="#sexwh"/></g><g><use fill="#fff" fill-opacity="0" stroke="#000" stroke-linecap="round" stroke-linejoin="round" stroke-miterlimit="50" stroke-width="4" xlink:href="#sexwh"/></g><g><use fill="#ff553f" xlink:href="#sexwi"/></g><g><use fill="#fff" fill-opacity="0" stroke="#000" stroke-linecap="round" stroke-linejoin="round" stroke-miterlimit="50" stroke-width="4" xlink:href="#sexwi"/></g><g><use fill="#ff553f" xlink:href="#sexwj"/></g><g><use fill="#fff" fill-opacity="0" stroke="#000" stroke-linecap="round" stroke-linejoin="round" stroke-miterlimit="50" stroke-width="4" xlink:href="#sexwj"/></g><g><use fill="#ff553f" xlink:href="#sexwk"/></g><g><use fill="#fff" fill-opacity="0" stroke="#000" stroke-linecap="round" stroke-linejoin="round" stroke-miterlimit="50" stroke-width="4" xlink:href="#sexwk"/></g><g><use fill="#ff553f" xlink:href="#sexwl"/></g><g><use fill="#fff" fill-opacity="0" stroke="#000" stroke-linecap="round" stroke-linejoin="round" stroke-miterlimit="50" stroke-width="4" xlink:href="#sexwl"/></g><g><use fill="#ff553f" xlink:href="#sexwm"/></g><g><use fill="#fff" fill-opacity="0" stroke="#000" stroke-linecap="round" stroke-linejoin="round" stroke-miterlimit="50" stroke-width="4" xlink:href="#sexwm"/></g><g><use fill="#fff" fill-opacity="0" stroke="#000" stroke-linecap="round" stroke-linejoin="round" stroke-miterlimit="50" stroke-width="4" xlink:href="#sexwn"/></g><g><use fill="#fff" fill-opacity="0" stroke="#000" stroke-linecap="round" stroke-linejoin="round" stroke-miterlimit="50" stroke-width="4" xlink:href="#sexwo"/></g></g></g></svg>