<svg xmlns="http://www.w3.org/2000/svg" xmlns:xlink="http://www.w3.org/1999/xlink" width="84" height="64" viewBox="0 0 84 64"><defs><path id="8heoa" d="M82 60H2v5a7 7 0 0 0 7 7h66a7 7 0 0 0 7-7v-5z"/><path id="8heob" d="M52 60H32a6 6 0 0 0 6 6h8a6 6 0 0 0 6-6z"/><path id="8heoc" d="M74 17a5 5 0 0 0-5-5H15a5 5 0 0 0-5 5v43h64V17z"/><path id="8heod" d="M16 60V20h52v40"/><path id="8heoe" d="M42 17v2"/><path id="8heof" d="M64 28.5a3.5 3.5 0 0 0-3.5-3.5h-37a3.5 3.5 0 0 0 0 7h37a3.5 3.5 0 0 0 3.5-3.5z"/><path id="8heog" d="M30.5 30l4 20 4-6 8 10 6.5-6-9-8.5 6.5-3.5z"/><path id="8heoh" d="M22 36h8"/><path id="8heoi" d="M22 42h10"/><path id="8heoj" d="M22 48h12"/></defs><g><g transform="translate(0 -10)"><g><use fill="#fff" fill-opacity="0" stroke="#000" stroke-linecap="round" stroke-linejoin="round" stroke-miterlimit="50" stroke-width="4" xlink:href="#8heoa"/></g><g><use fill="#fff" fill-opacity="0" stroke="#000" stroke-linecap="round" stroke-linejoin="round" stroke-miterlimit="50" stroke-width="4" xlink:href="#8heob"/></g><g><use fill="#fff" fill-opacity="0" stroke="#000" stroke-linecap="round" stroke-linejoin="round" stroke-miterlimit="50" stroke-width="4" xlink:href="#8heoc"/></g><g><use fill="#fff" fill-opacity="0" stroke="#000" stroke-linecap="round" stroke-linejoin="round" stroke-miterlimit="50" stroke-width="4" xlink:href="#8heod"/></g><g><use fill="#fff" fill-opacity="0" stroke="#000" stroke-linecap="round" stroke-linejoin="round" stroke-miterlimit="50" stroke-width="4" xlink:href="#8heoe"/></g><g><use fill="#ff553f" xlink:href="#8heof"/></g><g><use fill="#fff" fill-opacity="0" stroke="#000" stroke-linecap="round" stroke-linejoin="round" stroke-miterlimit="50" stroke-width="4" xlink:href="#8heog"/></g><g><use fill="#fff" fill-opacity="0" stroke="#000" stroke-linecap="round" stroke-linejoin="round" stroke-miterlimit="50" stroke-width="4" xlink:href="#8heoh"/></g><g><use fill="#fff" fill-opacity="0" stroke="#000" stroke-linecap="round" stroke-linejoin="round" stroke-miterlimit="50" stroke-width="4" xlink:href="#8heoi"/></g><g><use fill="#fff" fill-opacity="0" stroke="#000" stroke-linecap="round" stroke-linejoin="round" stroke-miterlimit="50" stroke-width="4" xlink:href="#8heoj"/></g></g></g></svg>