<svg id="Layer_1" data-name="Layer 1" xmlns="http://www.w3.org/2000/svg" viewBox="0 0 68 84"><defs><style>.cls-1,.cls-4{fill:#ff553f;}.cls-2{fill:none;stroke-linecap:round;stroke-width:4px;}.cls-2,.cls-3{stroke:#000;}.cls-2,.cls-3,.cls-4{stroke-linejoin:round;}.cls-3{stroke-width:2.08px;}.cls-4{stroke:#ff553f;stroke-width:1.45px;}</style></defs><title>4-43-POTM</title><polygon id="Fill-1" class="cls-1" points="9 67.1 59 67.1 59 18 9 18 9 67.1"/><polygon id="Stroke-2" class="cls-2" points="2 82 66 82 66 2 2 2 2 82"/><path id="Stroke-3" class="cls-2" d="M11,8a2,2,0,1,1-2,2A2,2,0,0,1,11,8Z"/><polygon id="Stroke-5" class="cls-2" points="9 67.1 59 67.1 59 18 9 18 9 67.1"/><path id="Stroke-6" class="cls-2" d="M9,74H34"/><path id="Stroke-9" class="cls-2" d="M19,10H34"/><path class="cls-3" d="M37.3,30h3.83a1.26,1.26,0,0,1,.51.11l7.22,3.11a1.28,1.28,0,0,1,.68,1.66L48,38.67a1.25,1.25,0,0,1-1.32.79L42.84,39a1.28,1.28,0,0,0-1.42,1.27l0,14a1.28,1.28,0,0,1-1.28,1.28H27.88a1.28,1.28,0,0,1-1.28-1.28l0-14A1.28,1.28,0,0,0,25.16,39l-3.85.44A1.25,1.25,0,0,1,20,38.67l-1.53-3.76a1.28,1.28,0,0,1,.68-1.66l7.22-3.11a1.26,1.26,0,0,1,.51-.11H37.3Z"/><circle class="cls-1" cx="34" cy="27.89" r="3.13"/><path class="cls-4" d="M36.8,36.57v1.86l-3,8.92H31.51l3.06-8.29v0H31.2V36.57Z"/></svg>