<?xml version="1.0" encoding="UTF-8"?>
<svg width="84px" height="84px" viewBox="0 0 84 84" version="1.1" xmlns="http://www.w3.org/2000/svg" xmlns:xlink="http://www.w3.org/1999/xlink">
    <!-- Generator: Sketch 52.3 (67297) - http://www.bohemiancoding.com/sketch -->
    <title>Artboard</title>
    <desc>Created with Sketch.</desc>
    <g id="Artboard" stroke="none" stroke-width="1" fill="none" fill-rule="evenodd">
        <g id="rights-stadium" transform="translate(2.000000, 11.000000)">
            <g id="Page-1">
                <g id="Icons:-Main">
                    <g id="stadium-front">
                        <rect id="Rectangle" fill="#FF553F" x="25" y="35.61" width="30" height="10"></rect>
                        <polyline id="Stroke-1" stroke="#000000" stroke-width="4" stroke-linecap="round" stroke-linejoin="round" points="47.32 63 47.32 54.18 33.32 54.18 33.32 63"></polyline>
                        <path d="M0,25.53 C0,18.75 17.92,13.25 40,13.25 C62.08,13.25 80,18.75 80,25.53" id="Stroke-3" stroke="#000000" stroke-width="4" stroke-linecap="round" stroke-linejoin="round"></path>
                        <path d="M7,0 L14.83,63" id="Stroke-16" stroke="#000000" stroke-width="4" stroke-linecap="round" stroke-linejoin="round"></path>
                        <path d="M73,0 L65.15,63" id="Stroke-17" stroke="#000000" stroke-width="4" stroke-linecap="round" stroke-linejoin="round"></path>
                        <rect id="Rectangle" stroke="#000000" stroke-width="4" stroke-linecap="round" stroke-linejoin="round" x="0" y="25.53" width="80" height="37.47"></rect>
                        <rect id="Rectangle" stroke="#000000" stroke-width="4.11" stroke-linecap="round" stroke-linejoin="round" x="25" y="35.61" width="30" height="10"></rect>
                    </g>
                </g>
            </g>
            <polyline id="Path" stroke="#000000" stroke-width="4" stroke-linecap="round" stroke-linejoin="round" points="7.72 0 18.46 0 18.46 6 7.72 6"></polyline>
            <polyline id="Path" stroke="#000000" stroke-width="4" stroke-linecap="round" stroke-linejoin="round" points="72.28 6 61.54 6 61.54 0 72.28 0"></polyline>
        </g>
    </g>
</svg>