<?xml version="1.0" encoding="UTF-8"?>
<svg width="84px" height="84px" viewBox="0 0 84 84" version="1.1" xmlns="http://www.w3.org/2000/svg" xmlns:xlink="http://www.w3.org/1999/xlink">
    <!-- Generator: Sketch 52.3 (67297) - http://www.bohemiancoding.com/sketch -->
    <title>Artboard</title>
    <desc>Created with Sketch.</desc>
    <g id="Artboard" stroke="none" stroke-width="1" fill="none" fill-rule="evenodd">
        <g id="shirt-training" transform="translate(7.000000, 2.000000)">
            <path d="M54.76,26.6666667 C54.76,26.6666667 56.26,63.7925926 56.66,72.8691358 C56.7356459,74.1864311 55.9202591,75.3944116 54.66,75.8320988 C48.2492818,77.967417 41.5254042,79.0419693 34.76,79.0123457" id="Stroke-1" stroke="#000000" stroke-width="4" stroke-linecap="round" stroke-linejoin="round"></path>
            <path d="M24.76,0 L27.13,0.987654321 C32.0279253,2.92311842 37.4920747,2.92311842 42.39,0.987654321 L44.76,0 C48.8352723,1.60889487 52.7858291,3.51027206 56.58,5.68888889 C54.1655881,12.4124139 53.5389266,19.6354723 54.76,26.6666667 L65.33,26.5876543 L69.26,13.3333333 L56.58,5.68888889" id="Path" stroke="#000000" stroke-width="4" stroke-linecap="round" stroke-linejoin="round"></path>
            <path d="M34.76,15.8024691 C28.7226099,13.4138362 24.7634167,7.63830212 24.76,1.21481481 L24.76,0" id="Stroke-3" stroke="#000000" stroke-width="4" stroke-linecap="round" stroke-linejoin="round"></path>
            <path d="M34.76,15.8024691 C40.7992047,13.4160605 44.7593481,7.63914006 44.76,1.21481481 L44.76,0" id="Stroke-4" stroke="#000000" stroke-width="4" stroke-linecap="round" stroke-linejoin="round"></path>
            <path d="M55.76,66.6666667 C49.1547798,69.5915351 41.9987134,71.1060465 34.76,71.1111111" id="Stroke-8" stroke="#000000" stroke-width="4" stroke-linecap="round" stroke-linejoin="round"></path>
            <path d="M34.5,79.0125383 C27.7429858,79.0291626 21.02947,77.9446353 14.63,75.8024691 C13.3697409,75.364782 12.5543541,74.1568015 12.63,72.8395062 C13,63.7925926 14.5,26.6666667 14.5,26.6666667" id="Stroke-1-2" stroke="#000000" stroke-width="4" stroke-linecap="round" stroke-linejoin="round"></path>
            <path d="M24.5,0 C20.4247277,1.60889487 16.4741709,3.51027206 12.68,5.68888889 C15.0944119,12.4124139 15.7210734,19.6354723 14.5,26.6666667 L3.93,26.5876543 L0,13.3333333 L12.68,5.68888889" id="Path" stroke="#000000" stroke-width="4" stroke-linecap="round" stroke-linejoin="round"></path>
            <path d="M34.5,71.1111111 C27.2612866,71.1060465 20.1052202,69.5915351 13.5,66.6666667" id="Stroke-8-2" stroke="#000000" stroke-width="4" stroke-linecap="round" stroke-linejoin="round"></path>
            <path d="M34.76,23.7037037 C41.387417,23.7037037 46.76,29.0099585 46.76,35.5555556 C46.76,42.1011526 41.387417,47.4074074 34.76,47.4074074 C28.132583,47.4074074 22.76,42.1011526 22.76,35.5555556 C22.76,29.0099585 28.132583,23.7037037 34.76,23.7037037 Z" id="Fill-11" fill="#FF553F"></path>
        </g>
    </g>
</svg>