<?xml version="1.0" encoding="UTF-8"?>
<svg width="84px" height="84px" viewBox="0 0 84 84" version="1.1" xmlns="http://www.w3.org/2000/svg" xmlns:xlink="http://www.w3.org/1999/xlink">
    <!-- Generator: Sketch 52.3 (67297) - http://www.bohemiancoding.com/sketch -->
    <title>Artboard</title>
    <desc>Created with Sketch.</desc>
    <g id="Artboard" stroke="none" stroke-width="1" fill="none" fill-rule="evenodd">
        <g id="shorts-front" transform="translate(10.000000, 10.000000)">
            <g id="u0e5a-link" transform="translate(53.600000, 32.800000)" fill="#FF553F">
                <path d="M9.6,19.2 C4.2980664,19.2 0,14.9019336 0,9.6 C0,4.2980664 4.2980664,0 9.6,0" id="u0e5a"></path>
            </g>
            <g id="u0e5b-link" transform="translate(0.800000, 32.800000)" fill="#FF553F">
                <path d="M0,0 C5.3019336,0 9.6,4.2980664 9.6,9.6 C9.6,14.9019336 5.3019336,19.2 0,19.2" id="u0e5b"></path>
            </g>
            <g id="u0e5c-link" stroke-linecap="round" stroke-linejoin="round" fill="#FFFFFF" fill-opacity="0" stroke="#000000" stroke-width="4">
                <path d="M32,0 L6.4,0 L6.4,1.472 C6.39834647,4.7435687 5.9953362,8.00257837 5.2,11.176 L1.92,24.36 C0.647981455,29.4353973 0.00316897098,34.6476316 -1.27897693e-14,39.88 L-1.27897693e-14,58.832 C-0.000570985766,60.3765938 0.895225682,61.7811531 2.296,62.432 C4.216,63.2 7.608,64 13.6,64 C25.6,64 27.2,60.8 27.2,60.8 L27.2,54.4 L32,32" id="u0e5c"></path>
            </g>
            <g id="u0e5d-link" stroke-linecap="round" stroke-linejoin="round" transform="translate(32.000000, 0.000000)" fill="#FFFFFF" fill-opacity="0" stroke="#000000" stroke-width="4">
                <path d="M0,0 L25.6,0 L25.6,1.472 C25.6016535,4.7435687 26.0046638,8.00257837 26.8,11.176 L30.088,24.36 C31.3573221,29.4357318 31.9994473,34.6479611 32,39.88 L32,58.8 C32.0038659,60.362284 31.0978169,61.7838435 29.68,62.44 C27.76,63.2 24.352,64 18.4,64 C6.4,64 4.8,60.8 4.8,60.8 L4.8,54.4 L0,32" id="u0e5d"></path>
            </g>
            <g id="u0e5e-link" stroke-linecap="round" stroke-linejoin="round" transform="translate(0.000000, 54.400000)" fill="#FFFFFF" fill-opacity="0" stroke="#000000" stroke-width="4">
                <path d="M0,0 C4.704,2.168 9.552,3.304 14.4,3.2 C18.8459297,3.05750292 23.2100634,1.96646949 27.2,0" id="u0e5e"></path>
            </g>
            <g id="u0e5f-link" stroke-linecap="round" stroke-linejoin="round" transform="translate(36.800000, 54.400000)" fill="#FFFFFF" fill-opacity="0" stroke="#000000" stroke-width="4">
                <path d="M27.2,0 C22.496,2.168 17.648,3.304 12.8,3.2 C8.35407031,3.05750292 3.98993659,1.96646949 0,0" id="u0e5f"></path>
            </g>
            <g id="u0e5g-link" stroke-linecap="round" stroke-linejoin="round" transform="translate(6.400000, 5.600000)" fill="#FFFFFF" fill-opacity="0" stroke="#000000" stroke-width="4">
                <path d="M51.2,0.8 L0,0.8" id="u0e5g"></path>
            </g>
            <g id="u0e5h-link" stroke-linecap="round" stroke-linejoin="round" transform="translate(27.200000, 6.400000)" fill="#FFFFFF" fill-opacity="0" stroke="#000000" stroke-width="4">
                <path d="M4.8,0 C1.68426892,4.1543081 -7.10542736e-15,9.20711487 -7.10542736e-15,14.4" id="u0e5h"></path>
            </g>
            <g id="u0e5i-link" stroke-linecap="round" stroke-linejoin="round" transform="translate(32.000000, 6.400000)" fill="#FFFFFF" fill-opacity="0" stroke="#000000" stroke-width="4">
                <path d="M0,0 C3.11573108,4.1543081 4.8,9.20711487 4.8,14.4" id="u0e5i"></path>
            </g>
            <g id="u0e5j-link" stroke-linecap="round" stroke-linejoin="round" transform="translate(3.200000, 12.800000)" fill="#FFFFFF" fill-opacity="0" stroke="#000000" stroke-width="4">
                <path d="M0,9.6 C3.82213598,9.59985285 7.21537862,7.15401129 8.424,3.528 L9.6,0" id="u0e5j"></path>
            </g>
            <g id="u0e5k-link" stroke-linecap="round" stroke-linejoin="round" transform="translate(51.200000, 12.800000)" fill="#FFFFFF" fill-opacity="0" stroke="#000000" stroke-width="4">
                <path d="M9.6,9.6 C5.77786402,9.59985285 2.38462138,7.15401129 1.176,3.528 L0,0" id="u0e5k"></path>
            </g>
            <g id="u0e5l-link" stroke-linecap="round" stroke-linejoin="round" transform="translate(36.800000, 48.800000)" fill="#FFFFFF" fill-opacity="0" stroke="#000000" stroke-width="4">
                <path d="M6.4,0.8 L0,0.8" id="u0e5l"></path>
            </g>
            <g id="u0e5m-link" stroke-linecap="round" stroke-linejoin="round" transform="translate(35.200000, 42.400000)" fill="#FFFFFF" fill-opacity="0" stroke="#000000" stroke-width="4">
                <path d="M4.8,0.8 L0,0.8" id="u0e5m"></path>
            </g>
        </g>
    </g>
</svg>