<svg xmlns="http://www.w3.org/2000/svg" xmlns:xlink="http://www.w3.org/1999/xlink" width="84" height="84" viewBox="0 0 84 84"><defs><path id="atezb" d="M34 22a4 4 0 0 1 0-8h16a4 4 0 0 1 0 8l2.96 10.37A5 5 0 0 0 57.77 36H61a5 5 0 0 1 5 5v1h-4v4a10 10 0 0 1-10 10h-2v12H34V56h-2a10 10 0 0 1-10-10v-4h-4v-1a5 5 0 0 1 5-5h3.23a5 5 0 0 0 4.8-3.63z"/><path id="atezc" d="M28 41a5 5 0 0 0-5-5 5 5 0 0 0-5 5v1h10v-1z"/><path id="atezd" d="M56 41a5 5 0 0 1 5-5 5 5 0 0 1 5 5v1H56v-1z"/><path id="ateze" d="M23 36h3.23a5 5 0 0 0 4.8-3.63C32.24 28.23 34 22 34 22"/><path id="atezf" d="M61 36h-3.23a5 5 0 0 1-4.8-3.63C51.76 28.23 50 22 50 22"/><path id="atezg" d="M22 41.99v4a10 10 0 0 0 10 10h10"/><path id="atezh" d="M62 41.99v4a10 10 0 0 1-10 10H42"/><path id="atezi" d="M28 42a6 6 0 0 0 6 6h8"/><path id="atezj" d="M56 42a6 6 0 0 1-6 6h-8"/><path id="atezk" d="M54 18a4 4 0 0 0-4-4H34a4 4 0 0 0 0 8h16a4 4 0 0 0 4-4z"/><path id="atezl" d="M34 68h16V56H34z"/><path id="atezm" d="M2.32 68H81"/><path id="atezn" d="M2 29h80"/><path id="atezo" d="M2 60h18"/><path id="atezp" d="M2 52h14"/><path id="atezq" d="M2 44h10"/><path id="atezr" d="M82 60H64"/><path id="atezs" d="M82 52H68"/><path id="atezt" d="M82 44H72"/><path id="atezu" d="M2 36h6"/><path id="atezv" d="M76 36h6"/><path id="ateza" d="M82 9.95v64.1A7.96 7.96 0 0 1 74.05 82H9.95A7.96 7.96 0 0 1 2 74.05V9.95A7.96 7.96 0 0 1 9.95 2h64.1A7.96 7.96 0 0 1 82 9.95z"/><path id="atezx" d="M8-8a12 12 0 1 1-.01 24.01A12 12 0 0 1 8-8z"/><path id="atezy" d="M82 9.95A7.96 7.96 0 0 0 74.05 2H9.95A7.96 7.96 0 0 0 2 9.95v64.1A7.96 7.96 0 0 0 9.95 82h64.1A7.96 7.96 0 0 0 82 74.05z"/><clipPath id="atezw"><use xlink:href="#ateza"/></clipPath></defs><g><g><g><use fill="#ff553f" xlink:href="#atezb"/></g><g><use fill="#fff" fill-opacity="0" stroke="#000" stroke-linecap="round" stroke-linejoin="round" stroke-miterlimit="50" stroke-width="4" xlink:href="#atezc"/></g><g><use fill="#fff" fill-opacity="0" stroke="#000" stroke-linecap="round" stroke-linejoin="round" stroke-miterlimit="50" stroke-width="4" xlink:href="#atezd"/></g><g><use fill="#fff" fill-opacity="0" stroke="#000" stroke-linecap="round" stroke-linejoin="round" stroke-miterlimit="50" stroke-width="4" xlink:href="#ateze"/></g><g><use fill="#fff" fill-opacity="0" stroke="#000" stroke-linecap="round" stroke-linejoin="round" stroke-miterlimit="50" stroke-width="4" xlink:href="#atezf"/></g><g><use fill="#fff" fill-opacity="0" stroke="#000" stroke-linecap="round" stroke-linejoin="round" stroke-miterlimit="50" stroke-width="4" xlink:href="#atezg"/></g><g><use fill="#fff" fill-opacity="0" stroke="#000" stroke-linecap="round" stroke-linejoin="round" stroke-miterlimit="50" stroke-width="4" xlink:href="#atezh"/></g><g><use fill="#fff" fill-opacity="0" stroke="#000" stroke-linecap="round" stroke-linejoin="round" stroke-miterlimit="50" stroke-width="4" xlink:href="#atezi"/></g><g><use fill="#fff" fill-opacity="0" stroke="#000" stroke-linecap="round" stroke-linejoin="round" stroke-miterlimit="50" stroke-width="4" xlink:href="#atezj"/></g><g><use fill="#fff" fill-opacity="0" stroke="#000" stroke-linecap="round" stroke-linejoin="round" stroke-miterlimit="50" stroke-width="4" xlink:href="#atezk"/></g><g><use fill="#fff" fill-opacity="0" stroke="#000" stroke-linecap="round" stroke-linejoin="round" stroke-miterlimit="50" stroke-width="4" xlink:href="#atezl"/></g><g><use fill="#fff" fill-opacity="0" stroke="#000" stroke-linecap="round" stroke-miterlimit="50" stroke-width="4" xlink:href="#atezm"/></g><g><use fill="#fff" fill-opacity="0" stroke="#000" stroke-linecap="round" stroke-miterlimit="50" stroke-width="4" xlink:href="#atezn"/></g><g><use fill="#fff" fill-opacity="0" stroke="#000" stroke-linecap="round" stroke-linejoin="round" stroke-miterlimit="50" stroke-width="4" xlink:href="#atezo"/></g><g><use fill="#fff" fill-opacity="0" stroke="#000" stroke-linecap="round" stroke-linejoin="round" stroke-miterlimit="50" stroke-width="4" xlink:href="#atezp"/></g><g><use fill="#fff" fill-opacity="0" stroke="#000" stroke-linecap="round" stroke-linejoin="round" stroke-miterlimit="50" stroke-width="4" xlink:href="#atezq"/></g><g><use fill="#fff" fill-opacity="0" stroke="#000" stroke-linecap="round" stroke-linejoin="round" stroke-miterlimit="50" stroke-width="4" xlink:href="#atezr"/></g><g><use fill="#fff" fill-opacity="0" stroke="#000" stroke-linecap="round" stroke-linejoin="round" stroke-miterlimit="50" stroke-width="4" xlink:href="#atezs"/></g><g><use fill="#fff" fill-opacity="0" stroke="#000" stroke-linecap="round" stroke-linejoin="round" stroke-miterlimit="50" stroke-width="4" xlink:href="#atezt"/></g><g><use fill="#fff" fill-opacity="0" stroke="#000" stroke-linecap="round" stroke-linejoin="round" stroke-miterlimit="50" stroke-width="4" xlink:href="#atezu"/></g><g><use fill="#fff" fill-opacity="0" stroke="#000" stroke-linecap="round" stroke-linejoin="round" stroke-miterlimit="50" stroke-width="4" xlink:href="#atezv"/></g><g><g/><g clip-path="url(#atezw)"><use fill="#fff" fill-opacity="0" stroke="#000" stroke-linecap="round" stroke-linejoin="round" stroke-miterlimit="50" stroke-width="4" xlink:href="#atezx"/></g></g><g><use fill="#fff" fill-opacity="0" stroke="#000" stroke-linecap="round" stroke-miterlimit="50" stroke-width="4" xlink:href="#atezy"/></g></g></g></svg>