<svg xmlns="http://www.w3.org/2000/svg" xmlns:xlink="http://www.w3.org/1999/xlink" width="84" height="76" viewBox="0 0 84 76"><defs><path id="t3zba" d="M10 70h64V42H10z"/><path id="t3zbb" d="M42 28H10L2 42h40"/><path id="t3zbc" d="M42 28h32l8 14H42"/><path id="t3zbd" d="M20 58h44V42H20z"/><path id="t3zbe" d="M52.85 17.41a50 50 0 0 0-21.7 0L6 23V13l25.15-5.59a50 50 0 0 1 21.7 0L78 13v10l-25.15-5.59z"/><path id="t3zbf" d="M20 28h6v-8h-6z"/><path id="t3zbg" d="M58 28h6v-8h-6z"/><path id="t3zbh" d="M2 78h80v-8H2z"/><path id="t3zbi" d="M42 28v14"/><path id="t3zbj" d="M26 28l-4 14"/><path id="t3zbk" d="M58 28l4 14"/><path id="t3zbl" d="M10 64h10"/><path id="t3zbm" d="M10 58h4"/></defs><g><g transform="translate(0 -4)"><g><use fill="#fff" fill-opacity="0" stroke="#000" stroke-linecap="round" stroke-linejoin="round" stroke-miterlimit="50" stroke-width="4" xlink:href="#t3zba"/></g><g><use fill="#fff" fill-opacity="0" stroke="#000" stroke-linecap="round" stroke-linejoin="round" stroke-miterlimit="50" stroke-width="4" xlink:href="#t3zbb"/></g><g><use fill="#fff" fill-opacity="0" stroke="#000" stroke-linecap="round" stroke-linejoin="round" stroke-miterlimit="50" stroke-width="4" xlink:href="#t3zbc"/></g><g><use fill="#fff" fill-opacity="0" stroke="#000" stroke-linecap="round" stroke-linejoin="round" stroke-miterlimit="50" stroke-width="4" xlink:href="#t3zbd"/></g><g><use fill="#ff553f" xlink:href="#t3zbe"/></g><g><use fill="#fff" fill-opacity="0" stroke="#000" stroke-linecap="round" stroke-linejoin="round" stroke-miterlimit="50" stroke-width="4" xlink:href="#t3zbe"/></g><g><use fill="#fff" fill-opacity="0" stroke="#000" stroke-linecap="round" stroke-linejoin="round" stroke-miterlimit="50" stroke-width="4" xlink:href="#t3zbf"/></g><g><use fill="#fff" fill-opacity="0" stroke="#000" stroke-linecap="round" stroke-linejoin="round" stroke-miterlimit="50" stroke-width="4" xlink:href="#t3zbg"/></g><g><use fill="#fff" fill-opacity="0" stroke="#000" stroke-linecap="round" stroke-linejoin="round" stroke-miterlimit="50" stroke-width="4" xlink:href="#t3zbh"/></g><g><use fill="#fff" fill-opacity="0" stroke="#000" stroke-linecap="round" stroke-linejoin="round" stroke-miterlimit="50" stroke-width="4" xlink:href="#t3zbi"/></g><g><use fill="#fff" fill-opacity="0" stroke="#000" stroke-linecap="round" stroke-linejoin="round" stroke-miterlimit="50" stroke-width="4" xlink:href="#t3zbj"/></g><g><use fill="#fff" fill-opacity="0" stroke="#000" stroke-linecap="round" stroke-linejoin="round" stroke-miterlimit="50" stroke-width="4" xlink:href="#t3zbk"/></g><g><use fill="#fff" fill-opacity="0" stroke="#000" stroke-linecap="round" stroke-linejoin="round" stroke-miterlimit="50" stroke-width="4" xlink:href="#t3zbl"/></g><g><use fill="#fff" fill-opacity="0" stroke="#000" stroke-linecap="round" stroke-linejoin="round" stroke-miterlimit="50" stroke-width="4" xlink:href="#t3zbm"/></g></g></g></svg>