<?xml version="1.0" encoding="UTF-8"?>
<svg width="84px" height="84px" viewBox="0 0 84 84" version="1.1" xmlns="http://www.w3.org/2000/svg" xmlns:xlink="http://www.w3.org/1999/xlink">
    <!-- Generator: Sketch 52.3 (67297) - http://www.bohemiancoding.com/sketch -->
    <title>Artboard</title>
    <desc>Created with Sketch.</desc>
    <g id="Artboard" stroke="none" stroke-width="1" fill="none" fill-rule="evenodd">
        <g id="socks-back" transform="translate(2.000000, 5.000000)">
            <path d="M50.69,19.57 C54.8602307,21.0082274 57.6588021,24.9337279 57.6588021,29.345 C57.6588021,33.7562721 54.8602307,37.6817726 50.69,39.12" id="Path" fill="#FF553F"></path>
            <path d="M29.64,19.57 C25.4697693,21.0082274 22.6711979,24.9337279 22.6711979,29.345 C22.6711979,33.7562721 25.4697693,37.6817726 29.64,39.12" id="Path" fill="#FF553F"></path>
            <g id="Page-1" stroke="#000000" stroke-linecap="round" stroke-linejoin="round" stroke-width="4">
                <g id="Icons:-Main">
                    <g id="socks-empty">
                        <path d="M30.34,4.06 C30.3439748,3.21145866 29.9884162,2.40092325 29.3614027,1.82917837 C28.7343891,1.25743349 27.8945758,0.977964128 27.05,1.06 L13.59,2.36 C12.766203,2.4429401 12.0133102,2.86265314 11.509592,3.51975927 C11.0058737,4.17686541 10.7961213,5.01293388 10.93,5.83 L17.55,46.33 C18.3813896,51.4493856 16.2721838,56.6026467 12.09,59.67 L2.64,66.58 C1.60931803,67.3139484 0.986670111,68.4922776 0.961054011,69.7573189 C0.93543791,71.0223601 1.5098745,72.2249293 2.51,73 C3.30156753,73.6452162 4.27172242,74.0325802 5.29,74.11 C9.08,74.18 14.76,72.11 21.75,68.48 C24.5598084,67.0310506 27.74668,66.4795438 30.88,66.9 C32.6703613,67.1361301 34.4341847,66.3074648 35.3953471,64.7786359 C36.3565095,63.2498071 36.3387957,61.3011036 35.35,59.79 C33.72,57.3 32.06,54.79 30.91,53.04 C29.9269728,51.5383713 29.421477,49.7743654 29.46,47.98 C29.64,39.39 30.16,13.39 30.34,4.06 Z" id="Stroke-1"></path>
                        <path d="M13.44,16.38 L29.91,14.73" id="Stroke-2"></path>
                        <path d="M50,4.06 C49.9931475,3.19798104 50.3574443,2.37467023 51,1.8 C51.6142638,1.22552983 52.4414608,0.935285298 53.28,1 L66.73,2.36 C67.5572805,2.44044228 68.31411,2.8605007 68.82,3.52 C69.3237967,4.17698199 69.5336947,5.01295524 69.4,5.83 L67.08,20 C65.63,28.87 63.93,39.25 62.78,46.32 C61.9392589,51.4382183 64.0459006,56.5946588 68.23,59.66 L77.68,66.57 C78.7158299,67.301907 79.3431684,68.4816931 79.3707769,69.7497109 C79.3983853,71.0177288 78.8229919,72.2237018 77.82,73 C77.0078806,73.6286931 76.0251631,73.9980834 75,74.06 C71.21,74.13 65.54,72.06 58.55,68.43 C55.7366558,66.980865 52.5465581,66.4294039 49.41,66.85 C47.6267483,67.0621816 45.8821119,66.2217723 44.9364991,64.6950687 C43.9908863,63.168365 44.0156513,61.2320204 45,59.73 L49.4,53 C50.3803024,51.4966354 50.8887413,49.7345116 50.86,47.94 C50.69,39.39 50.17,13.39 50,4.06 Z" id="Stroke-3"></path>
                        <path d="M66.88,16.38 L50.41,14.73" id="Stroke-4"></path>
                    </g>
                </g>
            </g>
        </g>
    </g>
</svg>