<?xml version="1.0" encoding="UTF-8"?>
<svg width="84px" height="84px" viewBox="0 0 84 84" version="1.1" xmlns="http://www.w3.org/2000/svg" xmlns:xlink="http://www.w3.org/1999/xlink">
    <!-- Generator: Sketch 52.3 (67297) - http://www.bohemiancoding.com/sketch -->
    <title>Artboard Copy</title>
    <desc>Created with Sketch.</desc>
    <g id="Artboard-Copy" stroke="none" stroke-width="1" fill="none" fill-rule="evenodd">
        <g id="socks-front" transform="translate(2.000000, 5.000000)">
            <path d="M18,41.2 C20.8,39.7 22.7,36.9 23.2,33.8 C24.1,28.2 20.3,22.9 14.6,21.9" id="Path" fill="#FF553F"></path>
            <g id="socks-empty" stroke="#000000" stroke-linecap="round" stroke-linejoin="round" stroke-width="4">
                <path d="M30.3,3.1 C30.3,1.4 29,0.1 27.3,0.1 C27.2,0.1 27.1,0.1 27,0.1 L13.6,1.4 C12,1.6 10.7,3 10.9,4.7 C10.9,4.8 10.9,4.8 10.9,4.9 L17.5,45.4 C18.3,50.5 16.2,55.7 12,58.7 L2.6,65.6 C0.8,66.9 0.4,69.4 1.7,71.2 C1.9,71.5 2.2,71.8 2.5,72 C3.3,72.6 4.3,73 5.3,73.1 C9.1,73.2 14.8,71.1 21.8,67.5 C24.6,66.1 27.8,65.5 30.9,65.9 C33.4,66.2 35.8,64.5 36.1,61.9 C36.2,60.8 36,59.7 35.4,58.8 C33.8,56.3 32.1,53.8 31,52 C30,50.5 29.5,48.7 29.5,46.9 C29.6,38.4 30.2,12.4 30.3,3.1 Z" id="Stroke-1"></path>
                <path d="M13.4,15.4 L29.9,13.8" id="Stroke-2"></path>
            </g>
            <g id="Group" transform="translate(44.000000, 0.000000)">
                <path d="M21.6,22 C16,22.9 12.1,28.2 13,33.9 C13.5,37 15.4,39.8 18.2,41.3" id="Path" fill="#FF553F"></path>
                <path d="M6.9,47 C6.9,48.8 6.4,50.6 5.4,52.1 C4.3,53.9 2.6,56.4 1,58.9 C0.4,59.8 0.1,60.9 0.3,62 C0.6,64.5 3,66.3 5.5,66 C8.6,65.6 11.8,66.1 14.6,67.6 C21.6,71.2 27.3,73.3 31.1,73.2 C32.1,73.1 33.1,72.7 33.9,72.1 C34.2,71.9 34.5,71.6 34.7,71.3 C36,69.5 35.6,67 33.8,65.7 L24.4,58.8 C20.2,55.7 18.1,50.6 18.9,45.5 L25.5,5 C25.5,4.9 25.5,4.9 25.5,4.8 C25.7,3.2 24.5,1.7 22.8,1.5 L9.3,0.1 C9.2,0.1 9.1,0.1 9,0.1 C7.3,0.1 6,1.5 6,3.1 C6.2,12.4 6.7,38.4 6.9,47 Z" id="Stroke-1_1_" stroke="#000000" stroke-width="4" stroke-linecap="round" stroke-linejoin="round"></path>
                <path d="M6.4,13.7 L22.9,15.3" id="Stroke-2_1_" stroke="#000000" stroke-width="4" stroke-linecap="round" stroke-linejoin="round"></path>
            </g>
        </g>
    </g>
</svg>