<?xml version="1.0" encoding="UTF-8"?>
<svg width="84px" height="84px" viewBox="0 0 84 84" version="1.1" xmlns="http://www.w3.org/2000/svg" xmlns:xlink="http://www.w3.org/1999/xlink">
    <!-- Generator: Sketch 52.3 (67297) - http://www.bohemiancoding.com/sketch -->
    <title>Artboard</title>
    <desc>Created with Sketch.</desc>
    <g id="Artboard" stroke="none" stroke-width="1" fill="none" fill-rule="evenodd">
        <g id="suit-back" transform="translate(12.000000, 2.000000)">
            <path d="M30,8.09 C32.5903739,8.08595569 34.9277452,9.64378138 35.9209075,12.0362032 C36.9140698,14.428625 36.3671488,17.1838024 34.5354756,19.0154756 C32.7038024,20.8471488 29.948625,21.3940698 27.5562032,20.4009075 C25.1637814,19.4077452 23.6059557,17.0703739 23.61,14.48 C23.61,12.7852666 24.2832302,11.1599451 25.4815877,9.96158767 C26.6799451,8.76323021 28.3052666,8.09 30,8.09 Z" id="Fill-11" fill="#FF553F"></path>
            <path d="M37.27,66.09 C38.5975387,66.0859526 39.7966114,66.8825277 40.3074454,68.1078538 C40.8182793,69.3331798 40.5401302,70.7456033 39.6028485,71.6857514 C38.6655668,72.6258994 37.2539991,72.90836 36.027119,72.4012698 C34.8002388,71.8941797 34.0000062,70.6975448 34,69.37 C33.9999916,67.5624041 35.4624125,66.095511 37.27,66.09 Z" id="Fill-11-2" fill="#FF553F"></path>
            <path d="M22.26,66.09 C23.5884262,66.0818997 24.7905577,66.8758898 25.304547,68.1008782 C25.8185363,69.3258666 25.5428716,70.7399209 24.6063921,71.6821458 C23.6699125,72.6243706 22.2575707,72.9086787 21.0294615,72.4021912 C19.8013523,71.8957037 19.0000247,70.6984509 19,69.37 C18.9999665,67.5662878 20.4563214,66.1009982 22.26,66.09 Z" id="Fill-11-3" fill="#FF553F"></path>
            <g id="Page-1" stroke="#000000" stroke-linecap="round" stroke-linejoin="round" stroke-width="4">
                <g id="Icons:-Main">
                    <g id="dress-front">
                        <path d="M41.87,35.14 C41.9000834,35.8540262 41.4500816,36.5003924 40.77,36.72 C37.2959455,37.8691474 33.6591659,38.4499515 30,38.44 C26.3539065,38.3913807 22.7349371,37.8050672 19.26,36.7 C18.5701475,36.488394 18.1072951,35.8412199 18.13,35.12 C18.35,30.2 19.13,15.91 19.13,15.91 L6.85,27.91 C6.11360173,28.6262133 4.97835497,28.734332 4.12,28.17 L1,26.12 C0.509245988,25.8122929 0.168203504,25.3147171 0.0582524164,24.7460045 C-0.0516986712,24.177292 0.079303836,23.5884542 0.42,23.12 C1.6,21.45 12.63,9.89 14,8 C15.2571123,6.2423186 16.8556102,4.75605569 18.7,3.63 L24.58,0 L25.86,0.5 C28.5220859,1.53969812 31.4779141,1.53969812 34.14,0.5 L35.42,0 L41.29,3.59 C43.1418317,4.72667523 44.7440827,6.226872 46,8 C47.38,9.93 58.41,21.49 59.62,23.18 C59.9606962,23.6484542 60.0916987,24.237292 59.9817476,24.8060045 C59.8717965,25.3747171 59.530754,25.8722929 59.04,26.18 L55.86,28.25 C55.001645,28.814332 53.8663983,28.7062133 53.13,27.99 L40.85,15.99 C40.85,15.99 41.66,30.27 41.87,35.14 Z" id="Stroke-1"></path>
                    </g>
                </g>
            </g>
            <path d="M29.77,44.06 C25.9795116,44.0835372 22.2060509,43.5512098 18.57,42.48 L17.57,79.08 L23.84,80 L29.55,54.66 L29.79,54.43 L30.02,54.66 L35.71,80 L42,79.08 L41,42.48 C37.3544071,43.5545442 33.5705616,44.0869107 29.77,44.06 Z" id="Path" stroke="#000000" stroke-width="4" stroke-linecap="round" stroke-linejoin="round"></path>
        </g>
    </g>
</svg>