<?xml version="1.0" encoding="UTF-8"?>
<svg width="84px" height="84px" viewBox="0 0 84 84" version="1.1" xmlns="http://www.w3.org/2000/svg" xmlns:xlink="http://www.w3.org/1999/xlink">
    <!-- Generator: Sketch 52.3 (67297) - http://www.bohemiancoding.com/sketch -->
    <title>Artboard</title>
    <desc>Created with Sketch.</desc>
    <g id="Artboard" stroke="none" stroke-width="1" fill="none" fill-rule="evenodd" fill-opacity="0" stroke-linecap="round" stroke-linejoin="round">
        <g id="supplier-other" transform="translate(10.000000, 4.000000)" fill="#FFFFFF" stroke="#000000" stroke-width="4">
            <g id="Group" transform="translate(26.271605, 0.000000)">
                <g id="87pba-link">
                    <path d="M5.62962963,0 C8.73530864,0 11.2592593,1.68888889 11.2592593,3.75308642 C11.2592593,5.81728395 8.73530864,7.50617284 5.62962963,7.50617284 C2.52395062,7.50617284 0,5.81728395 0,3.75308642 C0,1.68888889 2.52395062,0 5.62962963,0 Z" id="87pba"></path>
                </g>
            </g>
            <g id="Group" transform="translate(13.135802, 3.753086)">
                <g id="87pbb-link">
                    <path d="M24.3950617,0 L37.5308642,35.6355556 C37.5308642,39.782716 29.1239506,43.1417284 18.7654321,43.1417284 C8.40691358,43.1417284 0,39.782716 0,35.6355556 L13.1358025,0" id="87pbb"></path>
                </g>
            </g>
            <g id="Group" transform="translate(15.950617, 31.901235)">
                <g id="87pbc-link">
                    <path d="M31.7604938,0.290864198 C28.4296296,2.37382716 22.5841975,3.76246914 15.9506173,3.76246914 C9.50469136,3.76246914 3.80938272,2.44888889 0.431604938,0.478518519" id="87pbc"></path>
                </g>
            </g>
            <g id="Group" transform="translate(19.703704, 22.518519)">
                <g id="87pbd-link">
                    <path d="M24.4888889,0.0938271605 C21.542716,1.7545679 17.1234568,2.81481481 12.1975309,2.81481481 C7.44049383,2.81481481 3.16197531,1.82962963 0.234567901,0.272098765" id="87pbd"></path>
                </g>
            </g>
            <g id="Group" transform="translate(22.518519, 12.197531)">
                <g id="87pbe-link">
                    <path d="M18.1274074,0.544197531 C15.9130864,1.95160494 12.8074074,2.81481481 9.38271605,2.81481481 C5.91111111,2.81481481 2.77728395,1.92345679 0.553580247,0.487901235" id="87pbe"></path>
                </g>
            </g>
            <g id="Group" transform="translate(1.876543, 35.654321)">
                <g id="87pbf-link">
                    <path d="M12.0474074,0.863209877 L1.58567901,7.26222222 C0.85506274,7.70539828 0.413561239,8.50215145 0.425133818,9.35659351 C0.436706396,10.2110356 0.899624469,10.9955393 1.64197531,11.4187654 L20.8577778,22.5185185" id="87pbf"></path>
                </g>
            </g>
            <g id="Group" transform="translate(41.283951, 35.654321)">
                <g id="87pbg-link">
                    <path d="M0,22.6874074 L20.5669136,11.465679 C21.3385332,11.0464947 21.8212775,10.240986 21.8271316,9.36287553 C21.8329857,8.48476501 21.3610239,7.67289169 20.5950617,7.24345679 L8.28493827,0.328395062" id="87pbg"></path>
                </g>
            </g>
            <g id="Group" transform="translate(21.580247, 55.358025)">
                <g id="87pbh-link">
                    <path d="M10.3209877,0 C13.8423914,0.00167606079 17.0954084,1.88187133 18.8546588,4.93233444 C20.6139091,7.98279755 20.6121208,11.7400906 18.8499674,14.7888777 C17.0878141,17.8376647 13.8330087,19.7147625 10.3116049,19.7130864 C4.86798644,19.7104955 0.457162121,15.2954704 0.459753086,9.85185185 C0.462344052,4.40823335 4.87736915,-0.00259096549 10.3209877,6.66682078e-15 Z" id="87pbh"></path>
                </g>
            </g>
            <g id="Group" transform="translate(48.790123, 57.234568)">
                <g id="87pbi-link">
                    <path d="M7.50617284,0.469135802 C11.6517176,0.469135802 15.0123457,3.82976385 15.0123457,7.97530864 C15.0123457,12.1208534 11.6517176,15.4814815 7.50617284,15.4814815 C3.36062805,15.4814815 0,12.1208534 0,7.97530864 C0,3.82976385 3.36062805,0.469135802 7.50617284,0.469135802 Z" id="87pbi"></path>
                </g>
            </g>
            <g id="Group" transform="translate(0.000000, 57.234568)">
                <g id="87pbj-link">
                    <path d="M7.50617284,0.469135802 C11.6517176,0.469135802 15.0123457,3.82976385 15.0123457,7.97530864 C15.0123457,12.1208534 11.6517176,15.4814815 7.50617284,15.4814815 C3.36062805,15.4814815 0,12.1208534 0,7.97530864 C-8.33352591e-16,3.82976385 3.36062805,0.469135802 7.50617284,0.469135802 Z" id="87pbj"></path>
                </g>
            </g>
            <g id="Group" transform="translate(7.506173, 64.740741)">
                <g id="87pbk-link">
                    <path d="M14.0740741,0.527777778 L0,0.527777778" id="87pbk"></path>
                </g>
            </g>
            <g id="Group" transform="translate(41.283951, 64.740741)">
                <g id="87pbl-link">
                    <path d="M15.0123457,0.527777778 L0.469135802,0.527777778" id="87pbl"></path>
                </g>
            </g>
        </g>
    </g>
</svg>