<?xml version="1.0" encoding="utf-8"?>
<!-- Generator: Adobe Illustrator 16.0.0, SVG Export Plug-In . SVG Version: 6.00 Build 0)  -->
<!DOCTYPE svg PUBLIC "-//W3C//DTD SVG 1.1//EN" "http://www.w3.org/Graphics/SVG/1.1/DTD/svg11.dtd">
<svg version="1.1" id="Layer_2" xmlns="http://www.w3.org/2000/svg" xmlns:xlink="http://www.w3.org/1999/xlink" x="0px" y="0px"
	 width="84px" height="84px" viewBox="0 0 84 84" enable-background="new 0 0 84 84" xml:space="preserve">
<path fill-rule="evenodd" clip-rule="evenodd" d="M65,12.85L64.15,39.5c0.033,1.8,0.216,2.934,0.55,3.4
	c0.633-0.2,1.684-1.083,3.149-2.65V40.2c0.2-0.233,0.417-0.4,0.65-0.5c0.033-0.034,0.083-0.05,0.15-0.05
	c5.1-1.8,8.483-1.9,10.149-0.3c2.134,1.5,2.15,4.716,0.05,9.65c-0.033,0.033-0.066,0.083-0.1,0.15c-0.167,0.233-0.366,0.433-0.6,0.6
	C71.783,54.483,67.417,58.5,65.05,61.8c-1.467,2-2.033,3.601-1.7,4.8c2.733,0,4.184,1.417,4.351,4.25l0.25,6.051
	c0.033,1.399-0.267,2.449-0.9,3.149c-0.733,0.934-1.833,1.417-3.3,1.45l-29.4,1.55c-1.633,0.101-2.833-0.283-3.6-1.149l-3.6,1.6
	v0.05c-2.7,1.101-4.65,0.367-5.85-2.2c0-0.033,0-0.066,0-0.1l-0.05-0.05L19,75.9c-0.067-0.034-0.1-0.084-0.1-0.15
	c-0.6-1.3-0.7-2.434-0.3-3.4c0.3-0.966,1.033-1.733,2.2-2.3c-4.733-5.1-8.783-10.883-12.15-17.35c-0.033-0.066-0.066-0.117-0.1-0.15
	c-3.566-6.733-6.383-14.2-8.45-22.4C0.033,29.983,0,29.783,0,29.55c0-0.4,0.033-0.683,0.1-0.85H0.05c0.633-4.167,1.967-6.567,4-7.2
	c0.767-0.467,1.684-0.583,2.75-0.35L4.5,14.8c-0.067-0.2-0.1-0.383-0.1-0.55V14.2c-0.066-3.6,0.917-5.684,2.95-6.25H7.4
	c0-0.034,0.017-0.05,0.05-0.05c0.867-0.433,1.9-0.5,3.1-0.2c-0.133-0.333-0.167-0.617-0.1-0.85V6.8
	c0.433-3.767,1.633-5.917,3.6-6.45c1.767-0.833,4.067-0.067,6.9,2.3L20.9,2.6c0.267,0.2,0.467,0.517,0.6,0.95l0.55,1.5
	c0.467-0.466,0.983-0.783,1.55-0.95c1.667-0.767,3.717-0.083,6.15,2.05c0.267,0.167,0.483,0.434,0.65,0.8V7L34,17.15
	c1.067-0.433,2.133-0.367,3.2,0.2h-0.05c0.2,0.066,0.417,0.167,0.65,0.3l0.1-6.8c0-0.233,0.067-0.434,0.2-0.6V10.2l0.05-0.05
	c1.233-3.3,2.917-4.867,5.05-4.7c0.934-0.1,1.934,0.2,3,0.9c0-0.233,0.1-0.467,0.3-0.7c0-0.033,0.017-0.066,0.05-0.1V5.5
	c1.7-3.2,3.5-4.733,5.4-4.6c0.033,0,0.066,0,0.1,0c1.967-0.267,3.851,1.267,5.65,4.6c0.133,0.267,0.2,0.567,0.2,0.9L57.85,8.2
	c0.601-0.267,1.184-0.383,1.75-0.35c0.034,0,0.067,0,0.101,0h0.05C61.583,7.717,63.267,9.1,64.8,12
	C64.934,12.233,65,12.517,65,12.85z M52.1,4.75c-0.6,0.2-1.283,0.983-2.05,2.35l-0.6,19.65c1.633-0.533,2.983-0.45,4.05,0.25
	l0.55-20.15C53.35,5.65,52.7,4.95,52.1,4.75z M41.75,11.2l-0.2,11.7c0,0.067,0,0.15,0,0.25l-0.35,13c0,0.4-0.15,0.783-0.45,1.15
	c-0.1,0.1-0.217,0.184-0.35,0.25c-0.367,0.233-0.75,0.35-1.15,0.35h-0.1c-0.533-0.066-0.95-0.267-1.25-0.6l-0.1-0.1
	c-0.633-0.733-1.316-1.917-2.05-3.55c-0.067-0.066-0.117-0.133-0.15-0.2L31.15,20.7c-0.033-0.1-0.05-0.167-0.05-0.2L26.95,8.75
	c-0.867-0.633-1.55-0.933-2.05-0.9c-0.467,0.267-0.85,0.95-1.15,2.05l6.95,19.4v-0.05c0.2,0.567,0.167,1.083-0.1,1.55
	c-0.267,0.434-0.617,0.75-1.05,0.95H29.5c-0.533,0.2-1.017,0.167-1.45-0.1c-0.5-0.233-0.816-0.55-0.95-0.95l-0.05-0.05l-7.1-19.9
	c-0.034-0.033-0.05-0.067-0.05-0.1c-0.033-0.133-0.05-0.233-0.05-0.3l-1.8-5.05c-1.1-0.867-1.983-1.283-2.65-1.25
	c-0.467,0.367-0.8,1.3-1,2.8l1.1,3.45c0.033,0.067,0.067,0.133,0.1,0.2l7.95,22.3v-0.05c0.2,0.5,0.167,1.017-0.1,1.55v0.05
	c-0.233,0.433-0.583,0.717-1.05,0.85h-0.05c-0.567,0.2-1.067,0.167-1.5-0.1c-0.434-0.167-0.733-0.5-0.9-1H19.9l-7.7-21.65
	c-1.5-0.767-2.617-1.083-3.35-0.95c-0.367,0.333-0.567,1.083-0.6,2.25l4,11.05v0.05c0.033,0.033,0.05,0.066,0.05,0.1l5,14.25
	c0,0.033,0,0.066,0,0.1c0.2,0.5,0.167,1-0.1,1.5c-0.233,0.4-0.567,0.7-1,0.9h-0.05c-0.6,0.2-1.117,0.15-1.55-0.15
	c-0.444-0.26-0.745-0.576-0.9-0.95l-0.05-0.05L8.8,26.65c-1.4-1.2-2.483-1.733-3.25-1.6C4.817,25.583,4.267,27,3.9,29.3
	c0,0.034,0,0.083,0,0.15C5.7,36.483,8.067,42.967,11,48.9c4.433-2.567,8.6-2.483,12.5,0.25h-0.05
	c3.733,2.433,7.117,7.483,10.15,15.149l11-4.899c-1.033-1.801-1.1-4.417-0.199-7.851c1-4.066,3.683-9.583,8.05-16.55
	c0.1-2.333-0.15-3.85-0.75-4.55c-0.634-0.233-1.65,0.1-3.05,1c-0.067,0.033-0.134,0.066-0.2,0.1c-0.101,0.034-0.2,0.05-0.3,0.05
	c-0.067,0-0.134,0-0.2,0c-0.267-0.067-0.467-0.184-0.601-0.35c-0.133-0.2-0.199-0.417-0.199-0.65c0-0.161,0.033-0.312,0.1-0.45
	c-0.033,0.033-0.05,0.067-0.05,0.1c-0.134,0.1-0.283,0.167-0.45,0.2c-0.2,0.033-0.4,0.017-0.6-0.05c-0.2-0.1-0.351-0.233-0.45-0.4
	c-0.101-0.167-0.15-0.35-0.15-0.55l0.45-18c-1.066-1.267-1.983-1.967-2.75-2.1C42.717,9.517,42.217,10.133,41.75,11.2z M57.7,13.3
	l-0.5,20.55c0,0.566-0.217,1.017-0.65,1.35c-0.033,0-0.066,0.017-0.1,0.05c-0.033,0-0.066,0.017-0.101,0.05
	c-0.033,0.167-0.05,0.317-0.05,0.45c0,0.3-0.1,0.617-0.3,0.95c-4.233,6.666-6.866,11.967-7.9,15.899
	c-0.633,2.334-0.583,4.017,0.15,5.051c2.533-0.967,4.384-0.184,5.55,2.35l2.5,5.55c0,0.033,0.017,0.05,0.05,0.05
	c0.167,0.467,0.301,0.917,0.4,1.351l2.55-0.15c-0.267-2.033,0.617-4.45,2.65-7.25V59.5c2.434-3.434,6.934-7.566,13.5-12.4
	c1-2.433,1.283-3.983,0.85-4.649c-0.967-0.567-2.95-0.334-5.95,0.7c-2.866,3.033-5.149,4.183-6.85,3.449
	c-2.033-0.366-3.1-2.699-3.2-7l0.851-26.3c-0.534-0.9-1.067-1.417-1.601-1.55C59.017,11.883,58.4,12.4,57.7,13.3z M35.3,20.85
	l2.3,6.45l0.1-3.85c-0.7-1.367-1.383-2.217-2.05-2.55h0.05C35.567,20.833,35.433,20.817,35.3,20.85z M22.2,73.75
	c0,0.033,0.017,0.083,0.05,0.15c0.067,0.066,0.133,0.149,0.2,0.25l2.45,5.55c0,0.033,0.017,0.083,0.05,0.149
	c0.133,0.167,0.333,0.2,0.6,0.101L30.9,77.6h-0.05c0.133-0.066,0.267-0.116,0.4-0.149L52.15,68c0.066-0.066,0.133-0.116,0.199-0.15
	c0.167-0.1,0.334-0.166,0.5-0.199c0.034-0.134,0-0.301-0.1-0.5V67.1l-2.45-5.55c-0.066-0.133-0.149-0.233-0.25-0.3
	c-0.166-0.033-0.333,0-0.5,0.1l-0.8,0.351c-0.1,0.033-0.184,0.066-0.25,0.1l-15,6.75c-0.033,0-0.067,0.017-0.1,0.05L25,72.45
	l-0.05,0.05c-0.034-0.033-0.05-0.033-0.05,0c-0.033,0-0.066,0.017-0.1,0.05c-0.033,0-0.05,0.017-0.05,0.05L22.7,73.45
	C22.467,73.517,22.3,73.616,22.2,73.75z M30.1,65.85c-2.733-6.8-5.667-11.3-8.8-13.5c-2.667-1.8-5.5-1.816-8.5-0.05
	c3.233,6,7.133,11.351,11.7,16.05L30.1,65.85z M63.25,70.45l-8.45,0.5c-0.233,0.133-0.483,0.267-0.75,0.399H54l-17.1,7.7
	l26.65-1.399c0.2,0,0.367-0.034,0.5-0.101c0.033-0.133,0.05-0.316,0.05-0.55l-0.25-5.95C63.816,70.65,63.616,70.45,63.25,70.45z"/>
</svg>
