<?xml version="1.0" encoding="UTF-8"?>
<svg width="84px" height="84px" viewBox="0 0 84 84" version="1.1" xmlns="http://www.w3.org/2000/svg" xmlns:xlink="http://www.w3.org/1999/xlink">
    <!-- Generator: Sketch 52.3 (67297) - http://www.bohemiancoding.com/sketch -->
    <title>Artboard Copy</title>
    <desc>Created with Sketch.</desc>
    <g id="Artboard-Copy" stroke="none" stroke-width="1" fill="none" fill-rule="evenodd">
        <g id="supplier" transform="translate(12.000000, 6.000000)">
            <polygon id="_9jjia" stroke="#000000" stroke-width="4" fill-opacity="0" fill="#FFFFFF" stroke-linecap="round" stroke-linejoin="round" points="1 63 59 63 59 0 1 0"></polygon>
            <polygon id="_9jjib" stroke="#000000" stroke-width="4" fill-opacity="0" fill="#FFFFFF" stroke-linecap="round" stroke-linejoin="round" points="7 57 23 57 23 7 7 7"></polygon>
            <path d="M13,12.5 L18,12.5" id="_9jjic" stroke="#000000" stroke-width="4" fill-opacity="0" fill="#FFFFFF" stroke-linecap="round" stroke-linejoin="round"></path>
            <path d="M13,18.5 L18,18.5" id="_9jjid" stroke="#000000" stroke-width="4" fill-opacity="0" fill="#FFFFFF" stroke-linecap="round" stroke-linejoin="round"></path>
            <path d="M13,23.5 L18,23.5" id="_9jjie" stroke="#000000" stroke-width="4" fill-opacity="0" fill="#FFFFFF" stroke-linecap="round" stroke-linejoin="round"></path>
            <path d="M13,50.5 L18,50.5" id="_9jjif" stroke="#000000" stroke-width="4" fill-opacity="0" fill="#FFFFFF" stroke-linecap="round" stroke-linejoin="round"></path>
            <polygon id="_9jjig" stroke="#000000" stroke-width="4" fill-opacity="0" fill="#FFFFFF" stroke-linecap="round" stroke-linejoin="round" points="37 57 53 57 53 7 37 7"></polygon>
            <path d="M42,12.5 L47,12.5" id="_9jjih" stroke="#000000" stroke-width="4" fill-opacity="0" fill="#FFFFFF" stroke-linecap="round" stroke-linejoin="round"></path>
            <path d="M42,18.5 L47,18.5" id="_9jjii" stroke="#000000" stroke-width="4" fill-opacity="0" fill="#FFFFFF" stroke-linecap="round" stroke-linejoin="round"></path>
            <path d="M42,23.5 L47,23.5" id="_9jjij" stroke="#000000" stroke-width="4" fill-opacity="0" fill="#FFFFFF" stroke-linecap="round" stroke-linejoin="round"></path>
            <path d="M42,50.5 L47,50.5" id="_9jjik" stroke="#000000" stroke-width="4" fill-opacity="0" fill="#FFFFFF" stroke-linecap="round" stroke-linejoin="round"></path>
            <path d="M0.5,63 L0.5,72" id="_9jjil" stroke="#000000" stroke-width="4" fill-opacity="0" fill="#FFFFFF" stroke-linecap="round" stroke-linejoin="round"></path>
            <path d="M59.5,63 L59.5,72" id="_9jjim" stroke="#000000" stroke-width="4" fill-opacity="0" fill="#FFFFFF" stroke-linecap="round" stroke-linejoin="round"></path>
            <path d="M30.5,63 L30.5,0" id="_9jjin" stroke="#000000" stroke-width="4" fill-opacity="0" fill="#FFFFFF" stroke-linecap="round" stroke-linejoin="round"></path>
            <path d="M22,40 C19.2385763,40 17,37.5375661 17,34.5 C17,31.4624339 19.2385763,29 22,29" id="Path" fill="#FF553F"></path>
            <path d="M51,40 C48.2385763,40 46,37.5375661 46,34.5 C46,31.4624339 48.2385763,29 51,29" id="Path" fill="#FF553F"></path>
        </g>
    </g>
</svg>