<?xml version="1.0" encoding="UTF-8"?>
<svg width="84px" height="84px" viewBox="0 0 84 84" version="1.1" xmlns="http://www.w3.org/2000/svg" xmlns:xlink="http://www.w3.org/1999/xlink">
    <!-- Generator: Sketch 52.3 (67297) - http://www.bohemiancoding.com/sketch -->
    <title>Artboard</title>
    <desc>Created with Sketch.</desc>
    <g id="Artboard" stroke="none" stroke-width="1" fill="none" fill-rule="evenodd">
        <g id="supplier-balls" transform="translate(8.000000, 8.000000)" fill="#000000" fill-rule="nonzero">
            <path d="M67.797619,38.0071429 C67.3119048,42.3510476 66.0700952,46.3857143 64.0738095,50.1095238 C64.0462857,50.1095238 64.0325238,50.1232857 64.0325238,50.15 L64.0325238,50.2309524 C64.0058095,50.2309524 63.9920476,50.2447143 63.9920476,50.2714286 C63.9920476,50.2989524 63.9653333,50.3394286 63.9110952,50.3928571 C62.373,53.1177143 60.402619,55.6685238 58.0015714,58.0428571 C57.9198095,58.1238095 57.852619,58.1772381 57.7991905,58.2047619 C56.8415238,59.1624286 55.8700952,60.0658571 54.8840952,60.9166667 L54.843619,60.9571429 C54.8298571,60.9709048 54.8169048,60.9838571 54.8031429,60.997619 C50.2422857,64.5060952 45.1827619,66.7055714 39.6245714,67.5952381 C37.7918095,67.8648095 35.9153333,68 34,68 C31.4904762,68 29.102381,67.7709048 26.8357143,67.3119048 C26.6470952,67.3119048 26.4851905,67.270619 26.35,67.1904762 C21.520381,66.1380952 17.1076667,64.0195714 13.1142857,60.8357143 C12.0076667,59.9719524 10.9552857,59.0280476 9.95714286,58.002381 C7.6637619,55.7349048 5.77433333,53.3063333 4.29047619,50.7166667 L4.20952381,50.6761905 L4.20952381,50.6357143 C4.15528571,50.5547619 4.12857143,50.4867619 4.12857143,50.4333333 C2.1047619,46.7904762 0.80952381,42.8642857 0.242857143,38.6547619 C0.242857143,38.6013333 0.242857143,38.5462857 0.242857143,38.4928571 C0.080952381,37.0624286 0,35.565619 0,34 C0,29.9256667 0.633857143,26.093381 1.90238095,22.5047619 C3.4137619,18.2142857 5.84233333,14.3148095 9.18809524,10.8071429 L9.22857143,10.7666667 L9.18809524,10.7666667 C9.20428571,10.7334762 9.23180952,10.7067619 9.26904762,10.6857143 C9.48519048,10.4161429 9.71428571,10.1732857 9.95714286,9.95714286 C13.2494762,6.66561905 16.9052857,4.1957619 20.9261905,2.55 L21.0071429,2.55 C21.0071429,2.52328571 21.0209048,2.50952381 21.047619,2.50952381 C21.1285714,2.45528571 21.1957619,2.42857143 21.25,2.42857143 C25.109,0.863761905 29.3047619,0.0542380952 33.8380952,0 C33.9190476,0 33.9732857,0 34,0 C38.5333333,0 42.7695714,0.795761905 46.7095238,2.38809524 C46.7362381,2.38809524 46.7629524,2.40185714 46.7904762,2.42857143 C50.8915238,4.04761905 54.6299048,6.55714286 58.0031905,9.95714286 C58.2727619,10.2542381 58.5560952,10.5505238 58.8531905,10.847619 C58.9608571,10.9285714 59.0822857,11.0362381 59.2174762,11.1714286 C62.0508095,14.247619 64.1822857,17.6338571 65.6119048,21.3309524 C67.2042381,25.243381 68,29.4666667 68,34 C68,35.3494762 67.9328095,36.684381 67.797619,38.0071429 Z M55.0880952,12.8714286 C52.3365238,10.1190476 49.3137619,8.01428571 46.0214286,6.55714286 L35.902381,11.6166667 L35.902381,15.8666667 L36.0238095,15.947619 C36.0772381,16.0010476 36.159,16.0690476 36.2666667,16.15 L48.8547619,26.2285714 L52.5389048,24.6095238 L55.4127143,13.1547619 C55.3034286,13.0738095 55.1965714,12.9790952 55.0880952,12.8714286 Z M53.4285714,28.7380952 L50.3928571,30.1142857 L45.9809524,46.1428571 L47.6,48.247619 L60.8761905,47.397619 C62.2248571,44.6460476 63.1161429,41.7042381 63.547619,38.574619 L53.4285714,28.7380952 Z M21.7761905,6.67857143 C18.5648095,8.08147619 15.6375714,10.0923333 12.9928571,12.7095238 L16.5952381,25.8642857 L19.1452381,26.8357143 L31.7738095,17.202381 L31.7738095,17.1619048 C31.7470952,16.9457619 31.7470952,16.7571429 31.7738095,16.5952381 L31.7738095,11.9404762 L21.7761905,6.67857143 Z M4.53333333,39.1809524 C5.01904762,42.2029048 5.95,45.0362381 7.32619048,47.6809524 L19.8738095,49.097619 L22.4238095,45.9 C22.4772381,45.7915238 22.5314762,45.697619 22.5857143,45.6158571 C22.5857143,45.5891429 22.6124286,45.575381 22.6666667,45.575381 L22.6666667,45.5349048 L17.4857143,30.6 L15.0166667,29.6285714 L4.53333333,39.1809524 Z M23.5571429,51.0404762 L28.4952381,63.4261905 C30.2761905,63.7232857 32.1105714,63.8722381 34,63.8722381 C35.3494762,63.8722381 36.6714286,63.8042381 37.9666667,63.6698571 L44.3214286,50.7984286 L42.6619048,48.6127143 L25.297619,48.9365238 L23.5571429,51.0404762 Z" id="Shape"></path>
        </g>
    </g>
</svg>