<?xml version="1.0" encoding="UTF-8"?>
<svg width="84px" height="84px" viewBox="0 0 84 84" version="1.1" xmlns="http://www.w3.org/2000/svg" xmlns:xlink="http://www.w3.org/1999/xlink">
    <!-- Generator: Sketch 52.3 (67297) - http://www.bohemiancoding.com/sketch -->
    <title>Artboard Copy</title>
    <desc>Created with Sketch.</desc>
    <g id="Artboard-Copy" stroke="none" stroke-width="1" fill="none" fill-rule="evenodd">
        <g id="testimonial-video" transform="translate(2.000000, 2.000000)">
            <path d="M40,0 C36.1588497,-3.6690569e-06 32.4753144,1.52725493 29.7610873,4.2452335 C27.0468603,6.96321207 25.5246909,10.6488533 25.53,14.49 C25.5283752,14.9675613 25.5517405,15.4448806 25.6,15.92 L26,20" id="_8f9ca" stroke="#000000" stroke-width="4" fill-opacity="0" fill="#FFFFFF" stroke-linecap="round" stroke-linejoin="round"></path>
            <path d="M40,0 C43.8411503,-3.6690569e-06 47.5246856,1.52725493 50.2389127,4.2452335 C52.9531397,6.96321207 54.4753091,10.6488533 54.47,14.49 C54.4716248,14.9675613 54.4482595,15.4448806 54.4,15.92 L54,20" id="_8f9cb" stroke="#000000" stroke-width="4" fill-opacity="0" fill="#FFFFFF" stroke-linecap="round" stroke-linejoin="round"></path>
            <path d="M46.17,16.24 C42.1370468,17.3900094 37.8629532,17.3900094 33.83,16.24 L31.28,15.51 C30.2244381,15.2076398 29.0919967,15.3369906 28.131807,15.8695958 C27.1716173,16.402201 26.4623356,17.2944311 26.16,18.35 C26.0519789,18.7202976 25.9980876,19.1042731 26,19.49 C26.0009846,19.8248916 26.0277301,20.1592112 26.08,20.49 L28.53,35.15 C29.4213374,40.4724932 33.5083486,44.6908299 38.8,45.75 C39.592,45.91 40.408,45.91 41.2,45.75 C46.4916514,44.6908299 50.5786626,40.4724932 51.47,35.15 L53.92,20.5 C53.9714711,20.1691168 53.9982118,19.8348578 54,19.5 C54.0026554,18.4020028 53.5690226,17.3479221 52.7944967,16.5696455 C52.0199708,15.7913688 50.9679973,15.352649 49.87,15.35 C49.4809251,15.3471184 49.0935114,15.4010195 48.72,15.51 L46.17,16.24 Z" id="_8f9cc" stroke="#000000" stroke-width="4" fill-opacity="0" fill="#FFFFFF" stroke-linecap="round" stroke-linejoin="round"></path>
            <path d="M28,24 L33.69,24 C35.5180625,24 37,25.4819375 37,27.31 L37,31 C37,32.6568542 38.3431458,34 40,34" id="_8f9cd" stroke="#000000" stroke-width="4" fill-opacity="0" fill="#FFFFFF" stroke-linecap="round" stroke-linejoin="round"></path>
            <path d="M52,24 L46.31,24 C44.4819375,24 43,25.4819375 43,27.31 L43,31 C43,32.6568542 41.6568542,34 40,34" id="_8f9ce" stroke="#000000" stroke-width="4" fill-opacity="0" fill="#FFFFFF" stroke-linecap="round" stroke-linejoin="round"></path>
            <path d="M37,39 C38.7685907,40.3606154 41.2314093,40.3606154 43,39" id="_8f9cf" stroke="#000000" stroke-width="4" fill-opacity="0" fill="#FFFFFF" stroke-linecap="round" stroke-linejoin="round"></path>
            <path d="M76.000001,58 C76.0013834,55.5971758 74.4983659,53.4505789 72.24,52.63 L54,46 L45.86,53" id="_8f9cg" stroke="#000000" stroke-width="4" fill-opacity="0" fill="#FFFFFF" stroke-linecap="round" stroke-linejoin="round"></path>
            <path d="M34.14,53 L26,46 L7.76,52.63 C5.50163414,53.4505789 3.99861661,55.5971758 3.99999905,58" id="_8f9ch" stroke="#000000" stroke-width="4" fill-opacity="0" fill="#FFFFFF" stroke-linecap="round" stroke-linejoin="round"></path>
            <path d="M32.00001,42 C32.0032069,43.1956746 31.2361538,44.2574377 30.1,44.63 L26,46" id="_8f9ci" stroke="#000000" stroke-width="4" fill-opacity="0" fill="#FFFFFF" stroke-linecap="round" stroke-linejoin="round"></path>
            <path d="M47.99999,42 C47.9967931,43.1956746 48.7638462,44.2574377 49.9,44.63 L54,46" id="_8f9cj" stroke="#000000" stroke-width="4" fill-opacity="0" fill="#FFFFFF" stroke-linecap="round" stroke-linejoin="round"></path>
            <path d="M25,20 C23.8562863,19.4148533 22.4546927,19.8612207 21.86,21 C21.6399577,21.4243134 21.559467,21.9072574 21.63,22.38 L22.37,27.53 C22.4793991,28.3815327 22.9243243,29.1541182 23.6059322,29.6761209 C24.2875401,30.1981236 25.1493843,30.4263148 26,30.31 C26.3482111,30.2628059 26.6861524,30.1580442 27,30" id="_8f9ck" stroke="#000000" stroke-width="4" fill-opacity="0" fill="#FFFFFF" stroke-linecap="round" stroke-linejoin="round"></path>
            <path d="M55,20 C56.1437137,19.4148533 57.5453073,19.8612207 58.14,21 C58.3600423,21.4243134 58.440533,21.9072574 58.37,22.38 L57.63,27.53 C57.5206009,28.3815327 57.0756757,29.1541182 56.3940678,29.6761209 C55.7124599,30.1981236 54.8506157,30.4263148 54,30.31 C53.6517889,30.2628059 53.3138476,30.1580442 53,30" id="_8f9cl" stroke="#000000" stroke-width="4" fill-opacity="0" fill="#FFFFFF" stroke-linecap="round" stroke-linejoin="round"></path>
            <polyline id="_8f9cm" stroke="#000000" stroke-width="4" fill-opacity="0" fill="#FFFFFF" stroke-linecap="round" stroke-linejoin="round" points="28.25 58 0 58 0 74 28.12 74"></polyline>
            <polyline id="_8f9cn" stroke="#000000" stroke-width="4" fill-opacity="0" fill="#FFFFFF" stroke-linecap="round" stroke-linejoin="round" points="51.42 74 80 74 80 58 51.47 58"></polyline>
            <path d="M54,66 L74,66" id="_8f9co" stroke="#000000" stroke-width="4" fill-opacity="0" fill="#FFFFFF" stroke-linecap="round" stroke-linejoin="round"></path>
            <path d="M18.5,66 L26,66" id="_8f9cp" stroke="#000000" stroke-width="4" fill-opacity="0" fill="#FFFFFF" stroke-linecap="round" stroke-linejoin="round"></path>
            <path d="M6,66 L10,66" id="_8f9cq" stroke="#000000" stroke-width="4" fill-opacity="0" fill="#FFFFFF" stroke-linecap="round" stroke-linejoin="round"></path>
            <path d="M14.5,62 C16.709139,62 18.5,63.790861 18.5,66 C18.5,68.209139 16.709139,70 14.5,70 C12.290861,70 10.5,68.209139 10.5,66 C10.5,63.790861 12.290861,62 14.5,62 Z" id="_8f9cr" stroke="#000000" stroke-width="4" fill-opacity="0" fill="#FFFFFF" stroke-linecap="round" stroke-linejoin="round"></path>
            <polyline id="_8f9cs" stroke="#000000" stroke-width="4" fill-opacity="0" fill="#FFFFFF" stroke-linecap="round" stroke-linejoin="round" points="25 12 0 12 0 58"></polyline>
            <polyline id="_8f9ct" stroke="#000000" stroke-width="4" fill-opacity="0" fill="#FFFFFF" stroke-linecap="round" stroke-linejoin="round" points="80 58 80 12 55 12"></polyline>
            <path d="M40,52 C47.7319865,52 54,58.2680135 54,66 C54,73.7319865 47.7319865,80 40,80 C32.2680135,80 26,73.7319865 26,66 C26,58.2680135 32.2680135,52 40,52 Z" id="_8f9cu" stroke="#000000" stroke-width="4" fill-opacity="0" fill="#FFFFFF" stroke-linecap="round" stroke-linejoin="round"></path>
            <path d="M36.14,72.66 C36.3082954,72.7402767 36.4937128,72.7780469 36.68,72.77 C36.9074616,72.7470808 37.1265215,72.671779 37.32,72.55 L46.7,67 C47.0227475,66.7661663 47.2214911,66.3981225 47.24,66 C47.2529139,65.5938157 47.0467228,65.2119804 46.7,65 L37.32,59.4 C36.9572623,59.1805982 36.5027377,59.1805982 36.14,59.4 C35.788032,59.6227573 35.550684,59.9879081 35.49,60.4 L35.49,71.6 C35.4641218,72.0543841 35.7232841,72.477018 36.14,72.66 Z" id="Path" fill="#FF553F"></path>
        </g>
    </g>
</svg>