<?xml version="1.0" encoding="UTF-8"?>
<svg width="84px" height="84px" viewBox="0 0 84 84" version="1.1" xmlns="http://www.w3.org/2000/svg" xmlns:xlink="http://www.w3.org/1999/xlink">
    <!-- Generator: Sketch 52.3 (67297) - http://www.bohemiancoding.com/sketch -->
    <title>Artboard</title>
    <desc>Created with Sketch.</desc>
    <g id="Artboard" stroke="none" stroke-width="1" fill="none" fill-rule="evenodd">
        <g id="testimonial" transform="translate(1.000000, 2.000000)">
            <path d="M59.76,35.79 C68.8795227,37.4391084 77.7607531,31.8944029 80.2833639,22.9769096 C82.8059747,14.0594163 78.1454098,4.68396178 69.513407,1.31145835 C60.8814041,-2.06104508 51.0994728,1.67175977 46.9086409,9.93748296 C42.717809,18.2032061 45.4879175,28.3000627 53.31,33.27" id="Path" fill="#FF553F"></path>
            <polyline id="Path" fill="#FF553F" points="53.31 33.27 50.34 39.59 59.76 35.79"></polyline>
            <g id="Page-1" transform="translate(0.000000, 13.000000)" stroke="#000000" stroke-linecap="round" stroke-linejoin="round" stroke-width="4">
                <g id="Icons:-Main">
                    <g id="player">
                        <path d="M20.89,-2.91343216e-07 C16.4761609,-0.000850900296 12.2671852,1.86219491 9.30020155,5.13006644 C6.33321795,8.39793798 4.8841279,12.7667542 5.31,17.16 C5.57,19.75 5.75,21.58 5.75,21.58" id="Stroke-1"></path>
                        <path d="M20.89,0 C25.3020977,0.00196863277 29.50839,1.86623792 32.4731594,5.13376799 C35.4379288,8.40129805 36.8857045,12.768487 36.46,17.16 C36.21,19.75 36.02,21.58 36.02,21.58" id="Stroke-3"></path>
                        <path d="M27.56,17.51 C23.1963794,18.7499808 18.5736206,18.7499808 14.21,17.51 L11.46,16.72 C10.113068,16.3353869 8.6637687,16.6029167 7.54291823,17.4430638 C6.42206775,18.2832109 5.75869759,19.5992583 5.75,21 C5.75015548,21.3651826 5.78025634,21.7297375 5.84,22.09 C6.18,24.09 7.43,31.61 8.48,37.93 C9.43976229,43.6890483 13.8565075,48.2569974 19.58,49.41 C20.4383271,49.5800311 21.3216729,49.5800311 22.18,49.41 C27.8865503,48.2701475 32.3025645,43.7348889 33.29,38 C34.35,31.68 35.59,24.2 35.93,22.16 C35.9869868,21.776101 36.0104088,21.387966 36,21 C36.0006774,19.5939754 35.3412295,18.2691945 34.2190093,17.4221246 C33.0967891,16.5750547 31.6419937,16.3039707 30.29,16.69 L27.56,17.51 Z" id="Stroke-4"></path>
                        <path d="M7.91,25.9 L14.06,25.9 C16.0371794,25.9 17.64,27.5028206 17.64,29.48 L17.64,33.48 C17.637333,34.3427684 17.9788862,35.1709691 18.5889585,35.7810415 C19.1990309,36.3911138 20.0272316,36.732667 20.89,36.7300155" id="Stroke-5"></path>
                        <path d="M33.86,25.9 L27.71,25.9 C25.7328206,25.9 24.13,27.5028206 24.13,29.48 L24.13,33.48 C24.1326575,34.3410327 23.7924749,35.1677108 23.1845688,35.7774932 C22.5766626,36.3872756 21.7510368,36.7300041 20.89,36.73" id="Stroke-6"></path>
                        <path d="M17.64,42.13 C19.5551706,43.5954129 22.2148294,43.5954129 24.13,42.13" id="Stroke-7"></path>
                        <path d="M5.75,49.7 L6.39,51.62 C8.72520428,58.626899 14.0245663,64.2517567 20.88,67" id="Stroke-9"></path>
                        <path d="M36,49.7 L35.36,51.62 C33.0291875,58.6227957 27.73781,64.2469412 20.89,67" id="Stroke-10"></path>
                        <path d="M12.2400002,45.37 C12.240462,46.6650535 11.4098388,47.8142166 10.18,48.22 L5.75,49.7" id="Stroke-11"></path>
                        <path d="M29.5399968,45.37 C29.5381095,46.6623955 30.3641134,47.8107424 31.59,48.22 L36,49.7" id="Stroke-12"></path>
                        <path d="M4.67,21.58 C3.82632464,21.1324303 2.8021331,21.2002502 2.02483972,21.7551572 C1.24754635,22.3100642 0.850734029,23.2566939 1,24.2 C1.25,25.98 1.54,27.99 1.79,29.77 C1.94847497,30.8769175 2.62920618,31.8402546 3.6196692,32.3592573 C4.61013222,32.8782599 5.78965863,32.8896978 6.79,32.39" id="Stroke-15"></path>
                        <path d="M37.1,21.58 C37.9418717,21.1571188 38.9489849,21.2370412 39.7136214,21.7874115 C40.478258,22.3377817 40.8737549,23.2674304 40.74,24.2 C40.49,26 40.2,28 40,29.77 C39.841525,30.8769175 39.1607938,31.8402546 38.1703308,32.3592573 C37.1798678,32.8782599 36.0003414,32.8896978 35,32.39" id="Stroke-16"></path>
                    </g>
                </g>
            </g>
            <path d="M59.76,35.79 C68.8795227,37.4391084 77.7607531,31.8944029 80.2833639,22.9769096 C82.8059747,14.0594163 78.1454098,4.68396178 69.513407,1.31145835 C60.8814041,-2.06104508 51.0994728,1.67175977 46.9086409,9.93748296 C42.717809,18.2032061 45.4879175,28.3000627 53.31,33.27" id="Path" stroke="#000000" stroke-width="4" stroke-linecap="round" stroke-linejoin="round"></path>
            <polyline id="Path" stroke="#000000" stroke-width="4" stroke-linecap="round" stroke-linejoin="round" points="53.31 33.27 50.34 39.59 59.76 35.79"></polyline>
            <path d="M55.46,11.37 L66.85,11.37" id="Path" stroke="#000000" stroke-width="4" stroke-linecap="round" stroke-linejoin="round"></path>
            <path d="M55.46,17.86 L72.26,17.86" id="Path" stroke="#000000" stroke-width="4" stroke-linecap="round" stroke-linejoin="round"></path>
            <path d="M55.46,24.35 L67.93,24.35" id="Path" stroke="#000000" stroke-width="4" stroke-linecap="round" stroke-linejoin="round"></path>
        </g>
    </g>
</svg>