<?xml version="1.0" encoding="UTF-8"?>
<svg width="84px" height="84px" viewBox="0 0 84 84" version="1.1" xmlns="http://www.w3.org/2000/svg" xmlns:xlink="http://www.w3.org/1999/xlink">
    <!-- Generator: Sketch 52.3 (67297) - http://www.bohemiancoding.com/sketch -->
    <title>Artboard</title>
    <desc>Created with Sketch.</desc>
    <g id="Artboard" stroke="none" stroke-width="1" fill="none" fill-rule="evenodd">
        <g id="web-header" transform="translate(2.000000, 2.000000)">
            <polyline id="Path" fill="#FF553F" points="72.23 12.73 72.23 22.99 7.54 22.99 7.54 12.73"></polyline>
            <polyline id="Path" stroke="#000000" stroke-width="4.36" stroke-linejoin="round" points="72.23 12.73 72.23 22.99 7.54 22.99 7.54 12.73"></polyline>
            <g id="Page-1">
                <g id="Icons:-Main">
                    <g id="video-player">
                        <polygon id="Stroke-19" stroke="#000000" stroke-width="4" stroke-linecap="round" stroke-linejoin="round" points="80 80 80 0 55 0 25 0 0 0 0 80"></polygon>
                        <path d="M0,12.41 L80,12.41" id="Path" stroke="#000000" stroke-width="4.36" stroke-linejoin="round"></path>
                        <circle id="Oval" fill="#000000" cx="12.72" cy="6.34" r="1.61"></circle>
                        <circle id="Oval" fill="#000000" cx="7.55" cy="6.34" r="1.61"></circle>
                        <circle id="Oval" fill="#000000" cx="17.89" cy="6.34" r="1.61"></circle>
                    </g>
                </g>
            </g>
            <path d="M7.55,31.96 L24.89,31.96" id="Path" stroke="#000000" stroke-width="4.36" stroke-linecap="round" stroke-linejoin="round"></path>
            <path d="M72.23,31.96 L68.88,31.96" id="Path" stroke="#000000" stroke-width="4.36" stroke-linecap="round" stroke-linejoin="round"></path>
            <path d="M62.23,31.96 L58.88,31.96" id="Path" stroke="#000000" stroke-width="4.36" stroke-linecap="round" stroke-linejoin="round"></path>
            <path d="M52.23,31.96 L48.87,31.96" id="Path" stroke="#000000" stroke-width="4.36" stroke-linecap="round" stroke-linejoin="round"></path>
            <rect id="Rectangle" stroke="#000000" stroke-width="4.36" stroke-linejoin="round" x="7.55" y="40.92" width="43.01" height="30.48"></rect>
            <path d="M72.23,44.41 L58.88,44.41" id="Path" stroke="#000000" stroke-width="4.36" stroke-linecap="round" stroke-linejoin="round"></path>
            <path d="M72.23,51.74 L58.88,51.74" id="Path" stroke="#000000" stroke-width="4.36" stroke-linecap="round" stroke-linejoin="round"></path>
            <path d="M72.23,59.07 L58.88,59.07" id="Path" stroke="#000000" stroke-width="4.36" stroke-linecap="round" stroke-linejoin="round"></path>
            <path d="M72.23,66.4 L58.88,66.4" id="Path" stroke="#000000" stroke-width="4.36" stroke-linecap="round" stroke-linejoin="round"></path>
        </g>
    </g>
</svg>