<?xml version="1.0" encoding="UTF-8"?>
<svg width="84px" height="84px" viewBox="0 0 84 84" version="1.1" xmlns="http://www.w3.org/2000/svg" xmlns:xlink="http://www.w3.org/1999/xlink">
    <!-- Generator: Sketch 52.3 (67297) - http://www.bohemiancoding.com/sketch -->
    <title>Artboard</title>
    <desc>Created with Sketch.</desc>
    <g id="Artboard" stroke="none" stroke-width="1" fill="none" fill-rule="evenodd">
        <g id="web-navigation" transform="translate(2.000000, 2.000000)">
            <g id="Page-1">
                <g id="Icons:-Main">
                    <g id="video-player">
                        <polygon id="Stroke-19" stroke="#000000" stroke-width="4" stroke-linecap="round" stroke-linejoin="round" points="80 80 80 0 55 0 25 0 0 0 0 80"></polygon>
                        <path d="M0,12.41 L80,12.41" id="Path" stroke="#000000" stroke-width="4.36" stroke-linejoin="round"></path>
                        <circle id="Oval" fill="#000000" cx="12.72" cy="6.34" r="1.61"></circle>
                        <circle id="Oval" fill="#000000" cx="7.55" cy="6.34" r="1.61"></circle>
                        <circle id="Oval" fill="#000000" cx="17.89" cy="6.34" r="1.61"></circle>
                    </g>
                </g>
            </g>
            <polyline id="Path" stroke="#000000" stroke-width="4.36" stroke-linejoin="round" points="7.54 81 7.54 70.74 72.23 70.74 72.23 81"></polyline>
            <path d="M7.55,21.58 L24.89,21.58" id="Path" stroke="#000000" stroke-width="4.36" stroke-linecap="round" stroke-linejoin="round"></path>
            <path d="M72.23,21.58 L68.88,21.58" id="Path" stroke="#FF553F" stroke-width="4.36" stroke-linecap="round" stroke-linejoin="round"></path>
            <path d="M62.23,21.58 L58.88,21.58" id="Path" stroke="#FF553F" stroke-width="4.36" stroke-linecap="round" stroke-linejoin="round"></path>
            <path d="M52.23,21.58 L48.87,21.58" id="Path" stroke="#FF553F" stroke-width="4.36" stroke-linecap="round" stroke-linejoin="round"></path>
            <rect id="Rectangle" stroke="#000000" stroke-width="4.36" stroke-linejoin="round" x="7.55" y="30.92" width="43.01" height="30.48"></rect>
            <path d="M72.23,34.41 L58.88,34.41" id="Path" stroke="#000000" stroke-width="4.36" stroke-linecap="round" stroke-linejoin="round"></path>
            <path d="M72.23,41.74 L58.88,41.74" id="Path" stroke="#000000" stroke-width="4.36" stroke-linecap="round" stroke-linejoin="round"></path>
            <path d="M72.23,49.07 L58.88,49.07" id="Path" stroke="#000000" stroke-width="4.36" stroke-linecap="round" stroke-linejoin="round"></path>
            <path d="M72.23,56.4 L58.88,56.4" id="Path" stroke="#000000" stroke-width="4.36" stroke-linecap="round" stroke-linejoin="round"></path>
        </g>
    </g>
</svg>