<?xml version="1.0" encoding="UTF-8"?>
<svg width="84px" height="84px" viewBox="0 0 84 84" version="1.1" xmlns="http://www.w3.org/2000/svg" xmlns:xlink="http://www.w3.org/1999/xlink">
    <!-- Generator: Sketch 52.3 (67297) - http://www.bohemiancoding.com/sketch -->
    <title>Artboard Copy</title>
    <desc>Created with Sketch.</desc>
    <g id="Artboard-Copy" stroke="none" stroke-width="1" fill="none" fill-rule="evenodd">
        <g id="web-banner" transform="translate(2.000000, 2.000000)">
            <g id="Page-1">
                <g id="Icons:-Main">
                    <g id="video-player">
                        <polygon id="Stroke-19" stroke="#000000" stroke-width="4" stroke-linecap="round" stroke-linejoin="round" points="80 80 80 0 55 0 25 0 0 0 0 80"></polygon>
                        <path d="M0,12.4 L80,12.4" id="Path" stroke="#000000" stroke-width="4.36" stroke-linejoin="round"></path>
                        <circle id="Oval" fill="#000000" cx="12.7" cy="6.3" r="1.6"></circle>
                        <circle id="Oval" fill="#000000" cx="7.6" cy="6.3" r="1.6"></circle>
                        <circle id="Oval" fill="#000000" cx="17.9" cy="6.3" r="1.6"></circle>
                    </g>
                </g>
            </g>
            <polyline id="Path" stroke="#000000" stroke-width="4.36" stroke-linejoin="round" points="7.5 81 7.5 70.7 72.2 70.7 72.2 81"></polyline>
            <path d="M7.6,21.6 L24.9,21.6" id="Path" stroke="#000000" stroke-width="4.36" stroke-linecap="round" stroke-linejoin="round"></path>
            <path d="M72.2,21.6 L68.9,21.6" id="Path" stroke="#000000" stroke-width="4.36" stroke-linecap="round" stroke-linejoin="round"></path>
            <path d="M62.2,21.6 L58.9,21.6" id="Path" stroke="#000000" stroke-width="4.36" stroke-linecap="round" stroke-linejoin="round"></path>
            <path d="M52.2,21.6 L48.9,21.6" id="Path" stroke="#000000" stroke-width="4.36" stroke-linecap="round" stroke-linejoin="round"></path>
            <rect id="Rectangle" stroke="#000000" stroke-width="4.36" stroke-linejoin="round" x="7.6" y="30.9" width="43" height="30.5"></rect>
            <rect id="Rectangle" stroke="#000000" stroke-width="4.36" fill="#F15743" stroke-linejoin="round" x="60.3" y="30.9" width="11.8" height="30.5"></rect>
        </g>
    </g>
</svg>