<?xml version="1.0" encoding="UTF-8"?>
<svg width="84px" height="84px" viewBox="0 0 84 84" version="1.1" xmlns="http://www.w3.org/2000/svg" xmlns:xlink="http://www.w3.org/1999/xlink">
    <!-- Generator: Sketch 52.3 (67297) - http://www.bohemiancoding.com/sketch -->
    <title>Artboard</title>
    <desc>Created with Sketch.</desc>
    <g id="Artboard" stroke="none" stroke-width="1" fill="none" fill-rule="evenodd">
        <g id="youth-team" transform="translate(1.000000, 2.000000)">
            <path d="M41,80 C25.8774781,73.9481311 15.9723176,59.2884935 16,43 L15.9999421,0 L66.0000579,0 L66,43 C66.0276824,59.2884935 56.1225219,73.9481311 41,80 Z" id="Path" stroke="#000000" stroke-width="3.9" stroke-linecap="round" stroke-linejoin="round"></path>
            <polygon id="Path" fill="#FF553F" points="0.95 21.86 15.95 21.86 15.95 36.86 0.95 36.86 3.95 29.36"></polygon>
            <polygon id="Path" stroke="#000000" stroke-width="3.9" stroke-linecap="round" stroke-linejoin="round" points="0.95 21.86 15.95 21.86 15.95 36.86 0.95 36.86 3.95 29.36"></polygon>
            <polygon id="Path" fill="#FF553F" points="80.95 36.86 65.95 36.86 65.95 21.86 80.95 21.86 77.95 29.36"></polygon>
            <polygon id="Path" stroke="#000000" stroke-width="3.9" stroke-linecap="round" stroke-linejoin="round" points="80.95 36.86 65.95 36.86 65.95 21.86 80.95 21.86 77.95 29.36"></polygon>
            <rect id="Rectangle" fill="#FF553F" x="10.95" y="15.34" width="60" height="16"></rect>
            <rect id="Rectangle" stroke="#000000" stroke-width="3.9" stroke-linecap="round" stroke-linejoin="round" x="10.95" y="15.34" width="60" height="16"></rect>
            <path d="M16.38,46.87 L64.95,46.87" id="Path" stroke="#000000" stroke-width="3.9" stroke-linecap="round" stroke-linejoin="round"></path>
            <path d="M33.3,46.87 L33.3,75.96" id="Path" stroke="#000000" stroke-width="3.9" stroke-linecap="round" stroke-linejoin="round"></path>
            <path d="M48.59,46.87 L48.59,74.96" id="Path" stroke="#000000" stroke-width="3.9" stroke-linecap="round" stroke-linejoin="round"></path>
            <path d="M33.3,46.87 L33.3,74.96" id="Path" stroke="#000000" stroke-width="3.9" stroke-linecap="round" stroke-linejoin="round"></path>
        </g>
    </g>
</svg>