<?xml version="1.0" encoding="utf-8"?>
<!-- Generator: Adobe Illustrator 23.0.2, SVG Export Plug-In . SVG Version: 6.00 Build 0)  -->
<svg version="1.1" id="Ebene_1" xmlns="http://www.w3.org/2000/svg" xmlns:xlink="http://www.w3.org/1999/xlink" x="0px" y="0px"
	 viewBox="0 0 489.89 89.05" style="enable-background:new 0 0 489.89 89.05;" xml:space="preserve">
<style type="text/css">
	.st0{fill:#000000;}
</style>
<g>
	<path class="st0" d="M145.33,71.15v-53.8h9.21c4.86,0,9.17,1.13,13.19,3.48c4.05,2.33,7.31,5.44,9.68,9.25
		c1.26,2.02,2.23,4.25,2.9,6.66c0.72,2.42,1.08,4.94,1.08,7.47c0,2.59-0.36,5.09-1.1,7.54c-0.66,2.42-1.63,4.67-2.88,6.68
		c-2.38,3.81-5.63,6.92-9.7,9.26c-4,2.33-8.31,3.47-13.18,3.47H145.33z M175.24,10.81c-3.01-1.89-6.32-3.35-9.75-4.31
		c-3.5-1.05-7.19-1.58-10.96-1.58H132.9v78.66h21.63c3.77,0,7.45-0.53,10.89-1.56c3.5-0.98,6.8-2.44,9.81-4.33
		c5.58-3.48,10.09-8.21,13.41-14.02c3.43-5.88,5.17-12.43,5.17-19.46c0-6.97-1.74-13.49-5.15-19.34
		C185.33,19.02,180.81,14.29,175.24,10.81"/>
	<path class="st0" d="M215.94,59.49c2.09-5.59,3.94-10.53,5.54-14.79c2.14,5.73,4,10.67,5.55,14.79H215.94z M225.06,22.66
		l-3.43-9.19l-3.64,9.11c-0.6,1.49-1.04,2.64-1.36,3.49c-0.24,0.66-0.42,1.18-0.56,1.55l-20.54,54.87h11.83l0.92-2.47
		c1.4-3.76,2.56-6.83,3.45-9.22h19.58c1.5,4,2.65,7.07,3.47,9.23l0.93,2.45h11.83l-1.93-5.13
		C236.43,53.02,229.59,34.78,225.06,22.66"/>
	<rect x="256.72" y="20.2" class="st0" width="11.31" height="62.29"/>
	<path class="st0" d="M313.73,51.46c-10.67-13.07-18.8-23.03-24.39-29.87l-6.73-8.24v69.14h11.31V45.07
		c7.12,8.71,12.77,15.64,16.85,20.68l2.93,3.62l19.88-24.3v37.43h11.31V13.35l-6.73,8.24C327.05,35.2,318.86,45.21,313.73,51.46"/>
	<path class="st0" d="M374.58,59.49c2.09-5.59,3.94-10.53,5.54-14.79c2.14,5.73,4,10.67,5.55,14.79H374.58z M383.7,22.66l-3.43-9.19
		l-3.64,9.11c-0.6,1.49-1.04,2.64-1.36,3.49c-0.24,0.66-0.42,1.18-0.56,1.55l-20.54,54.87h11.83l0.92-2.47
		c1.4-3.76,2.56-6.83,3.45-9.22h19.58c1.5,4,2.65,7.07,3.47,9.23l0.93,2.45h11.83l-1.93-5.13C395.06,53.02,388.22,34.78,383.7,22.66
		"/>
	<path class="st0" d="M452.68,57.82c-13.11-15.5-23.39-27.67-30.63-36.27l-6.7-7.96v68.9h11.31v-37.5
		c13.3,15.68,23.51,27.73,30.63,36.16l6.69,7.91V20.2h-11.31V57.82z"/>
	<rect x="478.58" y="20.2" class="st0" width="11.31" height="62.29"/>
	<path class="st0" d="M71.41,61.5l17.2-17.2l-17.2-17.2V61.5z M20.22,44.3L44.3,20.22v48.17L20.22,44.3z M44.3,0L0,44.3l44.3,44.3
		L58.6,74.31V14.29L44.3,0z"/>
</g>
</svg>
