<?xml version="1.0" encoding="utf-8"?>
<!-- Generator: Adobe Illustrator 22.1.0, SVG Export Plug-In . SVG Version: 6.00 Build 0)  -->
<svg version="1.1" id="Layer_1" xmlns="http://www.w3.org/2000/svg" xmlns:xlink="http://www.w3.org/1999/xlink" x="0px" y="0px"
	 viewBox="0 0 110 30" style="enable-background:new 0 0 110 30;" xml:space="preserve">
<style type="text/css">
	.st0{fill:#FFFFFF;}
	.st1{fill:#FF553F;}
</style>
<g>
	<g>
		<path id="b87va" class="st0" d="M42.7,8.2c-0.1-0.2-0.2-0.3-0.3-0.4c-0.7-0.5-1.6-0.9-2.4-1.1l0.2,1.1l-4.6-3.3h5.6l-0.9,0.6
			l1.2,0.5L43,3.8c0,0-0.7-1.1-2.2-1.6c-0.7-0.2-1.5-0.3-2.2-0.3c-0.6,0-1.2,0.1-1.7,0.2c-0.5,0.1-1.1,0.4-1.5,0.7
			c-0.4,0.3-0.8,0.7-1.1,1.2c-0.3,0.5-0.4,1-0.4,1.7c0,0.7,0.1,1.3,0.4,1.7c0.3,0.4,0.7,0.8,1.1,1c0.4,0.2,0.9,0.4,1.4,0.5l1.4,0.3
			c0.4,0.1,0.8,0.2,1.1,0.4c0.3,0.2,0.4,0.4,0.4,0.7c0,0.3-0.2,0.5-0.5,0.6c-0.3,0.1-0.7,0.2-1.1,0.2c-0.5,0-1-0.1-1.4-0.3
			c-0.4-0.2-0.8-0.5-1.1-0.9l-2.1,2.3c0.5,0.6,1.2,1,2,1.2c1.4,0.4,2.8,0.4,4.2,0.2c0.6-0.1,1.1-0.3,1.7-0.6
			c1.1-0.6,1.7-1.7,1.7-2.9C43.1,9.3,43,8.7,42.7,8.2L42.7,8.2z"/>
	</g>
</g>
<g>
	<g>
		<path id="b87vb" class="st1" d="M24.7,23.9c-0.7,1-1.6,1.9-2.7,2.5c-1.1,0.6-2.3,1.1-3.7,1.3c-3.1,0.6-6.3,0.5-9.4-0.4
			c-1.7-0.5-3.3-1.4-4.6-2.7L9,19.5c0.7,0.9,1.5,1.6,2.4,2c0.9,0.5,1.9,0.7,3.1,0.7c0.9,0,1.7-0.1,2.4-0.4c0.7-0.2,1.1-0.7,1.1-1.4
			c0-0.7-0.3-1.2-1-1.5c-0.6-0.3-1.5-0.6-2.4-0.8l-3.2-0.7c-1.1-0.2-2.2-0.6-3.2-1.2c-1-0.5-1.8-1.3-2.4-2.2c-0.7-1.1-1-2.5-1-3.8
			c0-1.5,0.3-2.8,0.9-3.8c0.6-1,1.4-1.9,2.4-2.6c1-0.7,2.1-1.2,3.4-1.5c1.3-0.3,2.6-0.5,3.9-0.5c1.7,0,3.4,0.1,5,0.7
			c3.4,1.2,5,3.6,5,3.6L22,10.3l-2.8-1.2l2-1.5l-12.6,0l10.3,7.5l-0.4-2.5l0.2,0c0.9,0.2,3.8,1.1,5.4,2.4c0.3,0.3,0.5,0.6,0.8,0.9
			c0.6,1,1,2.2,1,3.8C25.7,21.5,25.4,22.9,24.7,23.9z M24.5,0h-19C2.5,0,0,2.5,0,5.5l0,0v19c0,3,2.5,5.5,5.5,5.5h19
			c3,0,5.5-2.5,5.5-5.5v-19C30,2.5,27.5,0,24.5,0L24.5,0z"/>
	</g>
</g>
<g>
	<g>
		<path id="b87vc" class="st0" d="M87.4,5.4c-0.3-0.3-0.6-0.5-1-0.7c-0.4-0.2-0.8-0.3-1.2-0.3c-0.3,0-0.6,0.1-0.9,0.2
			C84,4.7,83.8,5,83.8,5.3c0,0.3,0.2,0.5,0.5,0.7c0.3,0.1,0.8,0.3,1.5,0.4c0.4,0.1,0.8,0.2,1.2,0.4c0.4,0.2,0.8,0.4,1.1,0.6
			c0.3,0.3,0.6,0.6,0.8,1c0.2,0.4,0.3,0.8,0.3,1.4c0,0.7-0.1,1.3-0.4,1.8c-0.3,0.5-0.6,0.9-1.1,1.2c-0.4,0.3-0.9,0.5-1.5,0.6
			c-0.5,0.1-1.1,0.2-1.6,0.2c-0.9,0-1.7-0.1-2.6-0.4c-0.8-0.3-1.5-0.7-2.1-1.3l2-2.2c0.3,0.4,0.7,0.7,1.2,0.9
			c0.5,0.2,0.9,0.4,1.5,0.4c0.3,0,0.6-0.1,0.8-0.2c0.3-0.1,0.4-0.4,0.4-0.7c0-0.3-0.2-0.6-0.5-0.8c-0.5-0.2-1.1-0.4-1.6-0.5
			c-0.4-0.1-0.8-0.2-1.1-0.4c-0.4-0.1-0.7-0.3-1-0.6c-0.3-0.2-0.5-0.6-0.7-0.9c-0.2-0.4-0.3-0.9-0.3-1.3c0-1.1,0.5-2.2,1.5-2.8
			C82.5,2.3,83,2.1,83.5,2c0.5-0.1,1-0.2,1.6-0.2c0.8,0,1.6,0.1,2.3,0.4c0.8,0.3,1.4,0.6,1.9,1.2C89.3,3.3,87.4,5.4,87.4,5.4z"/>
	</g>
</g>
<g>
	<g>
		<path id="b87vd" class="st0" d="M52.3,7.6c0-0.3-0.1-0.7-0.2-1c-0.3-1.1-1.3-1.8-2.4-1.8c-0.7,0-1.4,0.3-1.9,0.9
			c-0.5,0.5-0.7,1.2-0.7,1.9c0,0.7,0.2,1.4,0.7,1.9c0.5,0.6,1.2,0.9,1.9,0.9c0.7,0,1.5-0.3,1.9-0.9c0.2-0.3,0.4-0.6,0.5-0.9
			C52.3,8.3,52.3,7.9,52.3,7.6z M55.8,7.6c0,0.8-0.1,1.5-0.3,2.2c-0.2,0.7-0.6,1.3-1,1.8c-1.4,1.7-3.7,2.3-5.7,1.4
			c-0.6-0.2-1-0.6-1.4-1.1h-0.1v3h-3.6V2.1h3.4v1.3h0.1c0.9-1.1,2.1-1.7,3.5-1.6c2.2,0,4.2,1.4,4.8,3.5C55.7,6.1,55.8,6.8,55.8,7.6z
			"/>
	</g>
</g>
<g>
	<g>
		<path id="b87ve" class="st0" d="M64.7,7.6c0-0.3-0.1-0.7-0.2-1c-0.2-0.7-0.7-1.2-1.3-1.5c-0.3-0.2-0.7-0.2-1.1-0.2
			c-0.7,0-1.4,0.3-1.9,0.9c-0.2,0.3-0.4,0.6-0.5,0.9c-0.2,0.7-0.2,1.4,0,2.1c0.1,0.3,0.3,0.6,0.5,0.9c0.5,0.6,1.2,0.9,1.9,0.9
			c0.7,0,1.5-0.3,1.9-0.9c0.2-0.3,0.4-0.6,0.5-0.9C64.6,8.2,64.7,7.9,64.7,7.6L64.7,7.6z M68.1,7.6c0,0.9-0.2,1.7-0.5,2.4
			c-0.3,0.7-0.8,1.3-1.3,1.8c-0.6,0.5-1.2,0.9-1.9,1.2c-1.5,0.6-3.2,0.6-4.7,0c-1.5-0.5-2.6-1.6-3.2-3C56.1,9.2,56,8.4,56,7.6
			c0-0.9,0.2-1.7,0.5-2.4c0.6-1.4,1.8-2.5,3.2-3c0.7-0.3,1.5-0.4,2.3-0.4c0.8,0,1.6,0.1,2.3,0.4c0.7,0.3,1.4,0.6,1.9,1.1
			c0.6,0.5,1,1.1,1.3,1.8S68.1,6.7,68.1,7.6L68.1,7.6z"/>
	</g>
</g>
<g>
	<g>
		<path id="b87vf" class="st0" d="M76,13.1v-6c0-0.3,0-0.6-0.1-0.9c0-0.3-0.1-0.5-0.2-0.7c-0.1-0.2-0.3-0.4-0.5-0.5
			c-0.2-0.1-0.5-0.2-0.8-0.2c-0.3,0-0.6,0.1-0.8,0.2c-0.2,0.1-0.4,0.3-0.6,0.5c-0.2,0.2-0.3,0.5-0.4,0.8c-0.1,0.3-0.1,0.6-0.1,0.9
			v5.9h-3.6V2.1h3.5v1.5h0c0.3-0.5,0.7-1,1.3-1.3c0.3-0.2,0.6-0.3,0.9-0.4c0.3-0.1,0.7-0.1,1.1-0.1c0.7,0,1.3,0.1,1.9,0.4
			c0.5,0.3,0.9,0.6,1.2,1c0.3,0.4,0.5,0.9,0.7,1.4c0.1,0.5,0.2,1.1,0.2,1.6v6.8C79.6,13.1,76,13.1,76,13.1z"/>
	</g>
</g>
<g>
	<g>
		<path id="b87vg" class="st0" d="M98,7.6c0-0.3-0.1-0.7-0.2-1c-0.2-0.7-0.7-1.2-1.3-1.5c-0.3-0.2-0.7-0.2-1.1-0.2
			c-0.7,0-1.4,0.3-1.9,0.9c-0.2,0.3-0.4,0.6-0.5,0.9c-0.2,0.7-0.2,1.4,0,2.1c0.1,0.3,0.3,0.6,0.5,0.9c0.5,0.6,1.2,0.9,1.9,0.9
			c0.4,0,0.8-0.1,1.1-0.2c0.3-0.2,0.6-0.4,0.8-0.7s0.4-0.6,0.5-0.9C97.9,8.3,98,7.9,98,7.6z M101.5,7.6c0,0.9-0.2,1.7-0.5,2.4
			c-0.3,0.7-0.8,1.3-1.3,1.8c-0.6,0.5-1.2,0.9-1.9,1.2c-1.5,0.6-3.2,0.6-4.7,0c-1.5-0.5-2.6-1.6-3.2-3c-0.3-0.8-0.5-1.6-0.5-2.4
			c0-0.9,0.2-1.7,0.5-2.4c0.6-1.4,1.8-2.5,3.2-3c0.7-0.3,1.5-0.4,2.3-0.4c0.8,0,1.6,0.1,2.3,0.4c1.5,0.5,2.6,1.6,3.2,3
			C101.3,5.9,101.5,6.7,101.5,7.6z"/>
	</g>
</g>
<g>
	<g>
		<path id="b87vh" class="st0" d="M109.3,5.1C109,5,108.7,5,108.4,5c-0.5,0-0.9,0.1-1.2,0.3c-0.3,0.2-0.6,0.4-0.8,0.6
			c-0.3,0.5-0.5,1-0.6,1.6v5.6h-3.6V2.1h3.5v1.6h0c0.3-0.6,0.7-1,1.2-1.4c0.5-0.4,1.1-0.5,1.8-0.5c0.3,0,0.5,0,0.8,0.1
			C109.4,1.9,109.3,5.1,109.3,5.1z"/>
	</g>
</g>
<g>
	<g>
		<path id="b87vi" class="st0" d="M49.2,26.3c0,0.5-0.2,1-0.6,1.3c-0.8,0.7-2,0.7-2.8-0.1c-0.1-0.1-0.2-0.3-0.3-0.4
			c-0.1-0.2-0.1-0.5-0.1-0.7c0-0.5,0.2-1,0.6-1.3c0.2-0.2,0.4-0.3,0.6-0.4c0.2-0.1,0.5-0.1,0.7-0.1C48.4,24.5,49.2,25.3,49.2,26.3
			L49.2,26.3z"/>
	</g>
</g>
<g>
	<g>
		<path id="b87vj" class="st0" d="M59.3,22.5c0-0.3-0.1-0.7-0.2-1c-0.2-0.6-0.7-1.2-1.3-1.5c-0.3-0.2-0.7-0.2-1.1-0.2
			c-0.7,0-1.4,0.3-1.8,0.8c-0.2,0.2-0.4,0.5-0.5,0.9c-0.2,0.6-0.2,1.3,0,2c0.1,0.3,0.3,0.6,0.5,0.9c0.5,0.6,1.1,0.9,1.9,0.9
			c0.7,0,1.4-0.3,1.9-0.9C59.1,23.9,59.3,23.2,59.3,22.5z M62.7,22.5c0,0.9-0.2,1.6-0.5,2.3c-0.3,0.7-0.7,1.3-1.3,1.8
			c-0.5,0.5-1.2,0.9-1.9,1.1s-1.5,0.4-2.3,0.4c-0.8,0-1.5-0.1-2.3-0.4c-1.4-0.5-2.5-1.5-3.1-2.9c-0.3-0.7-0.5-1.5-0.5-2.3
			c0-0.9,0.2-1.6,0.5-2.3c0.6-1.3,1.7-2.4,3.1-2.9c0.7-0.3,1.5-0.4,2.3-0.4c0.8,0,1.6,0.1,2.3,0.4c1.4,0.5,2.5,1.5,3.1,2.8
			C62.5,20.9,62.7,21.7,62.7,22.5z"/>
	</g>
</g>
<g>
	<g>
		<path id="b87vk" class="st0" d="M70.4,27.8v-5.8c0-0.3,0-0.6-0.1-0.8s-0.1-0.5-0.2-0.7c-0.1-0.2-0.3-0.4-0.5-0.5
			c-0.2-0.1-0.5-0.2-0.8-0.2s-0.6,0.1-0.8,0.2c-0.2,0.1-0.4,0.3-0.6,0.5c-0.2,0.2-0.3,0.5-0.3,0.7c-0.1,0.3-0.1,0.6-0.1,0.9v5.7
			h-3.5V17.3h3.4v1.5h0c0.3-0.5,0.7-0.9,1.2-1.2c0.3-0.2,0.6-0.3,0.9-0.4c0.3-0.1,0.7-0.2,1-0.2c0.7,0,1.3,0.1,1.8,0.4
			s0.9,0.6,1.2,1c0.3,0.4,0.5,0.9,0.7,1.4c0.1,0.5,0.2,1,0.2,1.6v6.5C73.9,27.8,70.4,27.8,70.4,27.8z"/>
	</g>
</g>
<g>
	<g>
		<path id="b87vl" class="st0" d="M76.1,27.8V14.5h3.5v13.3L76.1,27.8z"/>
	</g>
</g>
<g>
	<g>
		<path id="b87vm" class="st0" d="M81.8,27.8V17.3h3.5v10.5L81.8,27.8z"/>
	</g>
</g>
<g>
	<g>
		<path id="b87vn" class="st0" d="M94.4,27.8v-5.8c0-0.3,0-0.6-0.1-0.8s-0.1-0.5-0.2-0.7c-0.1-0.2-0.3-0.4-0.5-0.5
			c-0.2-0.1-0.5-0.2-0.8-0.2s-0.6,0.1-0.8,0.2c-0.2,0.1-0.4,0.3-0.6,0.5c-0.2,0.2-0.3,0.5-0.3,0.7c-0.1,0.3-0.1,0.6-0.1,0.9v5.7
			h-3.5V17.3h3.4v1.5h0c0.3-0.5,0.7-0.9,1.2-1.2c0.3-0.2,0.6-0.3,0.9-0.4c0.9-0.3,1.9-0.2,2.8,0.2c0.5,0.2,0.9,0.6,1.2,1
			c0.3,0.4,0.5,0.9,0.7,1.4c0.1,0.5,0.2,1,0.2,1.6v6.5C97.9,27.8,94.4,27.8,94.4,27.8z"/>
	</g>
</g>
<g>
	<g>
		<path id="b87vo" class="st0" d="M106.4,21.4c0-0.5-0.2-1-0.5-1.4c-0.3-0.4-0.9-0.6-1.6-0.6c-0.3,0-0.6,0.1-0.9,0.2
			c-0.5,0.2-1,0.6-1.2,1.1c-0.1,0.2-0.2,0.5-0.2,0.8C102,21.4,106.4,21.4,106.4,21.4z M109.6,22.7v0.4c0,0.1,0,0.3,0,0.4H102
			c0,0.3,0.1,0.6,0.3,0.8c0.1,0.2,0.3,0.5,0.6,0.6c0.5,0.4,1.1,0.6,1.7,0.6c0.6,0,1-0.1,1.4-0.3c0.4-0.2,0.7-0.5,0.9-0.8l2.4,1.5
			c-0.5,0.7-1.2,1.3-2,1.7c-0.8,0.4-1.8,0.6-2.8,0.6c-0.8,0-1.5-0.1-2.2-0.4c-1.4-0.4-2.5-1.5-3.1-2.8c-0.3-0.7-0.5-1.6-0.4-2.4
			c0-0.9,0.2-1.6,0.4-2.3c0.6-1.3,1.6-2.4,3-2.9c1.4-0.5,3-0.6,4.4,0c0.6,0.3,1.2,0.6,1.7,1.1c0.5,0.5,0.8,1.1,1.1,1.8
			S109.6,21.8,109.6,22.7L109.6,22.7z"/>
	</g>
</g>
</svg>
