<?xml version="1.0" encoding="utf-8"?>
<!-- Generator: Adobe Illustrator 22.1.0, SVG Export Plug-In . SVG Version: 6.00 Build 0)  -->
<svg version="1.1" id="Layer_1" xmlns="http://www.w3.org/2000/svg" xmlns:xlink="http://www.w3.org/1999/xlink" x="0px" y="0px"
	 viewBox="0 0 110 30" style="enable-background:new 0 0 110 30;" xml:space="preserve">
<style type="text/css">
	.st0{fill:#FF553F;}
</style>
<g>
	<g transform="translate(-26 -26)">
		<g>
			<g>
				<g>
					<path id="b87va" d="M68.7,34.2c-0.1-0.2-0.2-0.3-0.3-0.4c-0.7-0.5-1.6-0.9-2.4-1.1l0.2,1.1l-4.6-3.3h5.6l-0.9,0.6l1.2,0.5
						l1.5-1.8c0,0-0.7-1.1-2.2-1.6c-0.7-0.2-1.5-0.3-2.2-0.3c-0.6,0-1.2,0.1-1.7,0.2s-1.1,0.4-1.5,0.7c-0.4,0.3-0.8,0.7-1.1,1.2
						s-0.4,1-0.4,1.7s0.1,1.3,0.4,1.7c0.3,0.4,0.7,0.8,1.1,1c0.4,0.2,0.9,0.4,1.4,0.5l1.4,0.3c0.4,0.1,0.8,0.2,1.1,0.4
						c0.3,0.2,0.4,0.4,0.4,0.7s-0.2,0.5-0.5,0.6s-0.7,0.2-1.1,0.2c-0.5,0-1-0.1-1.4-0.3s-0.8-0.5-1.1-0.9l-2.1,2.3
						c0.5,0.6,1.2,1,2,1.2c1.4,0.4,2.8,0.4,4.2,0.2c0.6-0.1,1.1-0.3,1.7-0.6c1.1-0.6,1.7-1.7,1.7-2.9C69.1,35.3,69,34.7,68.7,34.2
						L68.7,34.2z"/>
				</g>
			</g>
			<g>
				<g>
					<path id="b87vb" class="st0" d="M50.7,49.9c-0.7,1-1.6,1.9-2.7,2.5c-1.1,0.6-2.3,1.1-3.7,1.3c-3.1,0.6-6.3,0.5-9.4-0.4
						c-1.7-0.5-3.3-1.4-4.6-2.7l4.7-5.2c0.7,0.9,1.5,1.6,2.4,2c0.9,0.5,1.9,0.7,3.1,0.7c0.9,0,1.7-0.1,2.4-0.4
						c0.7-0.2,1.1-0.7,1.1-1.4s-0.3-1.2-1-1.5c-0.6-0.3-1.5-0.6-2.4-0.8l-3.2-0.7c-1.1-0.2-2.2-0.6-3.2-1.2c-1-0.5-1.8-1.3-2.4-2.2
						c-0.7-1.1-1-2.5-1-3.8c0-1.5,0.3-2.8,0.9-3.8c0.6-1,1.4-1.9,2.4-2.6s2.1-1.2,3.4-1.5c1.3-0.3,2.6-0.5,3.9-0.5
						c1.7,0,3.4,0.1,5,0.7c3.4,1.2,5,3.6,5,3.6L48,36.3l-2.8-1.2l2-1.5H34.6l10.3,7.5l-0.4-2.5h0.2c0.9,0.2,3.8,1.1,5.4,2.4
						c0.3,0.3,0.5,0.6,0.8,0.9c0.6,1,1,2.2,1,3.8C51.7,47.5,51.4,48.9,50.7,49.9z M50.5,26h-19c-3,0-5.5,2.5-5.5,5.5l0,0v19
						c0,3,2.5,5.5,5.5,5.5h19c3,0,5.5-2.5,5.5-5.5v-19C56,28.5,53.5,26,50.5,26L50.5,26z"/>
				</g>
			</g>
			<g>
				<g>
					<path id="b87vc" d="M113.4,31.4c-0.3-0.3-0.6-0.5-1-0.7s-0.8-0.3-1.2-0.3c-0.3,0-0.6,0.1-0.9,0.2s-0.4,0.4-0.4,0.7
						c0,0.3,0.2,0.5,0.5,0.7c0.3,0.1,0.8,0.3,1.5,0.4c0.4,0.1,0.8,0.2,1.2,0.4c0.4,0.2,0.8,0.4,1.1,0.6c0.3,0.3,0.6,0.6,0.8,1
						c0.2,0.4,0.3,0.8,0.3,1.4c0,0.7-0.1,1.3-0.4,1.8s-0.6,0.9-1.1,1.2c-0.4,0.3-0.9,0.5-1.5,0.6c-0.5,0.1-1.1,0.2-1.6,0.2
						c-0.9,0-1.7-0.1-2.6-0.4c-0.8-0.3-1.5-0.7-2.1-1.3l2-2.2c0.3,0.4,0.7,0.7,1.2,0.9s0.9,0.4,1.5,0.4c0.3,0,0.6-0.1,0.8-0.2
						c0.3-0.1,0.4-0.4,0.4-0.7s-0.2-0.6-0.5-0.8c-0.5-0.2-1.1-0.4-1.6-0.5c-0.4-0.1-0.8-0.2-1.1-0.4c-0.4-0.1-0.7-0.3-1-0.6
						c-0.3-0.2-0.5-0.6-0.7-0.9c-0.2-0.4-0.3-0.9-0.3-1.3c0-1.1,0.5-2.2,1.5-2.8c0.4-0.3,0.9-0.5,1.4-0.6s1-0.2,1.6-0.2
						c0.8,0,1.6,0.1,2.3,0.4c0.8,0.3,1.4,0.6,1.9,1.2C115.3,29.3,113.4,31.4,113.4,31.4z"/>
				</g>
			</g>
			<g>
				<g>
					<path id="b87vd" d="M78.3,33.6c0-0.3-0.1-0.7-0.2-1c-0.3-1.1-1.3-1.8-2.4-1.8c-0.7,0-1.4,0.3-1.9,0.9c-0.5,0.5-0.7,1.2-0.7,1.9
						s0.2,1.4,0.7,1.9c0.5,0.6,1.2,0.9,1.9,0.9c0.7,0,1.5-0.3,1.9-0.9c0.2-0.3,0.4-0.6,0.5-0.9C78.3,34.3,78.3,33.9,78.3,33.6z
						 M81.8,33.6c0,0.8-0.1,1.5-0.3,2.2c-0.2,0.7-0.6,1.3-1,1.8c-1.4,1.7-3.7,2.3-5.7,1.4c-0.6-0.2-1-0.6-1.4-1.1h-0.1v3h-3.6V28.1
						h3.4v1.3h0.1c0.9-1.1,2.1-1.7,3.5-1.6c2.2,0,4.2,1.4,4.8,3.5C81.7,32.1,81.8,32.8,81.8,33.6z"/>
				</g>
			</g>
			<g>
				<g>
					<path id="b87ve" d="M90.7,33.6c0-0.3-0.1-0.7-0.2-1c-0.2-0.7-0.7-1.2-1.3-1.5c-0.3-0.2-0.7-0.2-1.1-0.2c-0.7,0-1.4,0.3-1.9,0.9
						c-0.2,0.3-0.4,0.6-0.5,0.9c-0.2,0.7-0.2,1.4,0,2.1c0.1,0.3,0.3,0.6,0.5,0.9c0.5,0.6,1.2,0.9,1.9,0.9c0.7,0,1.5-0.3,1.9-0.9
						c0.2-0.3,0.4-0.6,0.5-0.9C90.6,34.2,90.7,33.9,90.7,33.6L90.7,33.6z M94.1,33.6c0,0.9-0.2,1.7-0.5,2.4s-0.8,1.3-1.3,1.8
						c-0.6,0.5-1.2,0.9-1.9,1.2c-1.5,0.6-3.2,0.6-4.7,0c-1.5-0.5-2.6-1.6-3.2-3c-0.3-0.8-0.5-1.6-0.5-2.4c0-0.9,0.2-1.7,0.5-2.4
						c0.6-1.4,1.8-2.5,3.2-3c0.7-0.3,1.5-0.4,2.3-0.4s1.6,0.1,2.3,0.4c0.7,0.3,1.4,0.6,1.9,1.1c0.6,0.5,1,1.1,1.3,1.8
						S94.1,32.7,94.1,33.6L94.1,33.6z"/>
				</g>
			</g>
			<g>
				<g>
					<path id="b87vf" d="M102,39.1v-6c0-0.3,0-0.6-0.1-0.9c0-0.3-0.1-0.5-0.2-0.7s-0.3-0.4-0.5-0.5s-0.5-0.2-0.8-0.2
						s-0.6,0.1-0.8,0.2c-0.2,0.1-0.4,0.3-0.6,0.5s-0.3,0.5-0.4,0.8s-0.1,0.6-0.1,0.9v5.9h-3.6v-11h3.5v1.5l0,0
						c0.3-0.5,0.7-1,1.3-1.3c0.3-0.2,0.6-0.3,0.9-0.4s0.7-0.1,1.1-0.1c0.7,0,1.3,0.1,1.9,0.4c0.5,0.3,0.9,0.6,1.2,1
						c0.3,0.4,0.5,0.9,0.7,1.4c0.1,0.5,0.2,1.1,0.2,1.6V39C105.6,39.1,102,39.1,102,39.1z"/>
				</g>
			</g>
			<g>
				<g>
					<path id="b87vg" d="M124,33.6c0-0.3-0.1-0.7-0.2-1c-0.2-0.7-0.7-1.2-1.3-1.5c-0.3-0.2-0.7-0.2-1.1-0.2c-0.7,0-1.4,0.3-1.9,0.9
						c-0.2,0.3-0.4,0.6-0.5,0.9c-0.2,0.7-0.2,1.4,0,2.1c0.1,0.3,0.3,0.6,0.5,0.9c0.5,0.6,1.2,0.9,1.9,0.9c0.4,0,0.8-0.1,1.1-0.2
						c0.3-0.2,0.6-0.4,0.8-0.7s0.4-0.6,0.5-0.9C123.9,34.3,124,33.9,124,33.6z M127.5,33.6c0,0.9-0.2,1.7-0.5,2.4s-0.8,1.3-1.3,1.8
						c-0.6,0.5-1.2,0.9-1.9,1.2c-1.5,0.6-3.2,0.6-4.7,0c-1.5-0.5-2.6-1.6-3.2-3c-0.3-0.8-0.5-1.6-0.5-2.4c0-0.9,0.2-1.7,0.5-2.4
						c0.6-1.4,1.8-2.5,3.2-3c0.7-0.3,1.5-0.4,2.3-0.4s1.6,0.1,2.3,0.4c1.5,0.5,2.6,1.6,3.2,3C127.3,31.9,127.5,32.7,127.5,33.6z"/>
				</g>
			</g>
			<g>
				<g>
					<path id="b87vh" d="M135.3,31.1c-0.3-0.1-0.6-0.1-0.9-0.1c-0.5,0-0.9,0.1-1.2,0.3c-0.3,0.2-0.6,0.4-0.8,0.6
						c-0.3,0.5-0.5,1-0.6,1.6v5.6h-3.6v-11h3.5v1.6l0,0c0.3-0.6,0.7-1,1.2-1.4s1.1-0.5,1.8-0.5c0.3,0,0.5,0,0.8,0.1
						C135.4,27.9,135.3,31.1,135.3,31.1z"/>
				</g>
			</g>
			<g>
				<g>
					<path id="b87vi" d="M75.2,52.3c0,0.5-0.2,1-0.6,1.3c-0.8,0.7-2,0.7-2.8-0.1c-0.1-0.1-0.2-0.3-0.3-0.4c-0.1-0.2-0.1-0.5-0.1-0.7
						c0-0.5,0.2-1,0.6-1.3c0.2-0.2,0.4-0.3,0.6-0.4c0.2-0.1,0.5-0.1,0.7-0.1C74.4,50.5,75.2,51.3,75.2,52.3L75.2,52.3z"/>
				</g>
			</g>
			<g>
				<g>
					<path id="b87vj" d="M85.3,48.5c0-0.3-0.1-0.7-0.2-1c-0.2-0.6-0.7-1.2-1.3-1.5c-0.3-0.2-0.7-0.2-1.1-0.2c-0.7,0-1.4,0.3-1.8,0.8
						c-0.2,0.2-0.4,0.5-0.5,0.9c-0.2,0.6-0.2,1.3,0,2c0.1,0.3,0.3,0.6,0.5,0.9c0.5,0.6,1.1,0.9,1.9,0.9c0.7,0,1.4-0.3,1.9-0.9
						C85.1,49.9,85.3,49.2,85.3,48.5z M88.7,48.5c0,0.9-0.2,1.6-0.5,2.3s-0.7,1.3-1.3,1.8c-0.5,0.5-1.2,0.9-1.9,1.1
						s-1.5,0.4-2.3,0.4s-1.5-0.1-2.3-0.4c-1.4-0.5-2.5-1.5-3.1-2.9c-0.3-0.7-0.5-1.5-0.5-2.3c0-0.9,0.2-1.6,0.5-2.3
						c0.6-1.3,1.7-2.4,3.1-2.9c0.7-0.3,1.5-0.4,2.3-0.4s1.6,0.1,2.3,0.4c1.4,0.5,2.5,1.5,3.1,2.8C88.5,46.9,88.7,47.7,88.7,48.5z"/>
				</g>
			</g>
			<g>
				<g>
					<path id="b87vk" d="M96.4,53.8V48c0-0.3,0-0.6-0.1-0.8s-0.1-0.5-0.2-0.7s-0.3-0.4-0.5-0.5s-0.5-0.2-0.8-0.2S94.2,45.9,94,46
						c-0.2,0.1-0.4,0.3-0.6,0.5s-0.3,0.5-0.3,0.7C93,47.5,93,47.8,93,48.1v5.7h-3.5V43.3h3.4v1.5l0,0c0.3-0.5,0.7-0.9,1.2-1.2
						c0.3-0.2,0.6-0.3,0.9-0.4c0.3-0.1,0.7-0.2,1-0.2c0.7,0,1.3,0.1,1.8,0.4s0.9,0.6,1.2,1c0.3,0.4,0.5,0.9,0.7,1.4
						c0.1,0.5,0.2,1,0.2,1.6v6.5C99.9,53.8,96.4,53.8,96.4,53.8z"/>
				</g>
			</g>
			<g>
				<g>
					<path id="b87vl" d="M102.1,53.8V40.5h3.5v13.3H102.1z"/>
				</g>
			</g>
			<g>
				<g>
					<path id="b87vm" d="M107.8,53.8V43.3h3.5v10.5H107.8z"/>
				</g>
			</g>
			<g>
				<g>
					<path id="b87vn" d="M120.4,53.8V48c0-0.3,0-0.6-0.1-0.8s-0.1-0.5-0.2-0.7s-0.3-0.4-0.5-0.5s-0.5-0.2-0.8-0.2s-0.6,0.1-0.8,0.2
						c-0.2,0.1-0.4,0.3-0.6,0.5s-0.3,0.5-0.3,0.7c-0.1,0.3-0.1,0.6-0.1,0.9v5.7h-3.5V43.3h3.4v1.5l0,0c0.3-0.5,0.7-0.9,1.2-1.2
						c0.3-0.2,0.6-0.3,0.9-0.4c0.9-0.3,1.9-0.2,2.8,0.2c0.5,0.2,0.9,0.6,1.2,1c0.3,0.4,0.5,0.9,0.7,1.4c0.1,0.5,0.2,1,0.2,1.6v6.5
						C123.9,53.8,120.4,53.8,120.4,53.8z"/>
				</g>
			</g>
			<g>
				<g>
					<path id="b87vo" d="M132.4,47.4c0-0.5-0.2-1-0.5-1.4s-0.9-0.6-1.6-0.6c-0.3,0-0.6,0.1-0.9,0.2c-0.5,0.2-1,0.6-1.2,1.1
						c-0.1,0.2-0.2,0.5-0.2,0.8C128,47.4,132.4,47.4,132.4,47.4z M135.6,48.7v0.4c0,0.1,0,0.3,0,0.4H128c0,0.3,0.1,0.6,0.3,0.8
						c0.1,0.2,0.3,0.5,0.6,0.6c0.5,0.4,1.1,0.6,1.7,0.6c0.6,0,1-0.1,1.4-0.3s0.7-0.5,0.9-0.8l2.4,1.5c-0.5,0.7-1.2,1.3-2,1.7
						s-1.8,0.6-2.8,0.6c-0.8,0-1.5-0.1-2.2-0.4c-1.4-0.4-2.5-1.5-3.1-2.8c-0.3-0.7-0.5-1.6-0.4-2.4c0-0.9,0.2-1.6,0.4-2.3
						c0.6-1.3,1.6-2.4,3-2.9s3-0.6,4.4,0c0.6,0.3,1.2,0.6,1.7,1.1s0.8,1.1,1.1,1.8S135.6,47.8,135.6,48.7L135.6,48.7z"/>
				</g>
			</g>
		</g>
	</g>
</g>
</svg>
