<?xml version="1.0" encoding="UTF-8"?>
<svg width="30px" height="30px" viewBox="0 0 30 30" version="1.1" xmlns="http://www.w3.org/2000/svg" xmlns:xlink="http://www.w3.org/1999/xlink">
    <!-- Generator: Sketch 52.3 (67297) - http://www.bohemiancoding.com/sketch -->
    <title>so-symbol-primary</title>
    <desc>Created with Sketch.</desc>
    <g id="so-symbol-primary" stroke="none" stroke-width="1" fill="none" fill-rule="evenodd">
        <g id="Group" fill="#FF553F" fill-rule="nonzero">
            <path d="M24.65,23.91 C23.954,24.954 23.027,25.823 21.94,26.45 C20.84,27.09 19.59,27.529 18.22,27.79 C15.103,28.428 11.878,28.305 8.82,27.43 C7.088,26.971 5.512,26.052 4.26,24.77 L8.96,19.55 C9.69,20.45 10.49,21.12 11.36,21.59 C12.25,22.05 13.27,22.29 14.44,22.29 C15.34,22.29 16.15,22.16 16.88,21.891 C17.6,21.641 17.96,21.17 17.96,20.481 C17.96,19.831 17.64,19.331 17,19.001 C16.36,18.681 15.55,18.401 14.57,18.181 L11.42,17.452 C10.324,17.203 9.266,16.812 8.27,16.292 C7.287,15.775 6.451,15.019 5.84,14.092 C5.149,12.949 4.814,11.626 4.88,10.292 C4.88,8.812 5.18,7.542 5.78,6.472 C6.368,5.426 7.185,4.527 8.17,3.842 C9.15,3.142 10.27,2.642 11.55,2.312 C12.82,1.982 14.12,1.822 15.43,1.822 C17.08,1.822 18.79,1.952 20.44,2.542 C23.84,3.762 25.39,6.182 25.39,6.182 L22.04,10.332 L19.29,9.162 L21.26,7.712 L8.63,7.722 L18.93,15.212 L18.49,12.702 L18.64,12.732 C19.56,12.952 22.47,13.792 24,15.172 C24.27,15.462 24.53,15.772 24.76,16.111 C25.39,17.062 25.71,18.322 25.71,19.912 C25.71,21.529 25.36,22.859 24.65,23.91 Z M24.47,0 L5.52,0 C2.471,0 0,2.471 0,5.52 L0,24.471 C0.005,27.515 2.475,29.981 5.52,29.981 L24.47,29.981 C27.514,29.981 29.984,27.515 29.99,24.471 L29.99,5.52 C29.99,2.471 27.519,0 24.47,0 Z" id="_x33_bllb"></path>
        </g>
    </g>
</svg>